<svg xmlns="http://www.w3.org/2000/svg" width="22" height="21.101" viewBox="0 0 22 21.101">
  <g id="组_229" data-name="组 229" transform="translate(-224.057 -205.62)">
    <g id="access-privileges-white">
      <g id="路径_71" data-name="路径 71">
        <path id="路径_563" data-name="路径 563" d="M232.257,214.82a4.6,4.6,0,1,1,4.6-4.6,4.587,4.587,0,0,1-4.576,4.6Zm0-7.8a3.222,3.222,0,0,0-3.2,3.2,3.158,3.158,0,0,0,3.117,3.2c.028,0,.055,0,.083,0a3.159,3.159,0,0,0,3.2-3.117v-.083a3.1,3.1,0,0,0-3-3.2C232.393,207.018,232.325,207.018,232.257,207.02Z" fill="#fff"/>
      </g>
      <g id="路径_72" data-name="路径 72">
        <path id="路径_564" data-name="路径 564" d="M244.457,226.72h-5a1.579,1.579,0,0,1-1.6-1.559V221.92a1.581,1.581,0,0,1,1.56-1.6h5.04a1.581,1.581,0,0,1,1.6,1.56v3.24a1.58,1.58,0,0,1-1.56,1.6Zm-5-5.1a.216.216,0,0,0-.2.2v3.2a.214.214,0,0,0,.2.2h5a.214.214,0,0,0,.2-.2v-3.2a.216.216,0,0,0-.2-.2Z" fill="#fff"/>
      </g>
      <g id="路径_73" data-name="路径 73">
        <path id="路径_565" data-name="路径 565" d="M243.557,221.62h-3.2a.683.683,0,0,1-.7-.667V218.82a2.3,2.3,0,1,1,4.6,0v2.1a.683.683,0,0,1-.668.7A.17.17,0,0,1,243.557,221.62Zm-2.5-1.3h1.8v-1.4a.9.9,0,0,0-1.8,0h0Z" fill="#fff"/>
      </g>
      <g id="路径_74" data-name="路径 74">
        <path id="路径_566" data-name="路径 566" d="M235.557,224.82h-10.8a.668.668,0,0,1-.7-.6v-3.2a4.44,4.44,0,0,1,4.4-4.4h8a4.29,4.29,0,0,1,2.2.6.652.652,0,1,1-.683,1.111l-.017-.011a2.612,2.612,0,0,0-1.5-.4h-8a3.009,3.009,0,0,0-3,3v2.5h10.1a.685.685,0,0,1,.7.668v.032A.75.75,0,0,1,235.557,224.82Z" fill="#fff"/>
      </g>
    </g>
  </g>
</svg>
