<svg xmlns="http://www.w3.org/2000/svg" width="20.3" height="20.3" viewBox="0 0 20.3 20.3">
  <g id="ads" transform="translate(0.15 0.15)">
    <g id="组_368" data-name="组 368">
      <g id="组_367" data-name="组 367">
        <path id="路径_477" data-name="路径 477" d="M43.127,34.2a.335.335,0,0,0-.253,0,.343.343,0,0,0-.11.07.35.35,0,0,0-.1.237.437.437,0,0,0,.007.067.212.212,0,0,0,.02.06.255.255,0,0,0,.03.06.53.53,0,0,0,.04.05.344.344,0,0,0,.11.07.314.314,0,0,0,.253,0,.387.387,0,0,0,.11-.07l.04-.05a.254.254,0,0,0,.03-.06.216.216,0,0,0,.02-.06.464.464,0,0,0,.007-.067.351.351,0,0,0-.1-.237A.386.386,0,0,0,43.127,34.2Z" transform="translate(-41 -32.84)" fill="#fff" stroke="#fff" stroke-width="0.3"/>
        <path id="路径_478" data-name="路径 478" d="M77.369,34.24a.386.386,0,0,0-.11-.07.333.333,0,0,0-.363.07.384.384,0,0,0-.07.11.334.334,0,0,0-.027.127.443.443,0,0,0,.007.067.212.212,0,0,0,.02.06.253.253,0,0,0,.03.06.53.53,0,0,0,.04.05.351.351,0,0,0,.237.1.334.334,0,0,0,.127-.027.389.389,0,0,0,.11-.07.351.351,0,0,0,.1-.237.333.333,0,0,0-.027-.127A.388.388,0,0,0,77.369,34.24Z" transform="translate(-73.799 -32.81)" fill="#fff" stroke="#fff" stroke-width="0.3"/>
        <path id="路径_479" data-name="路径 479" d="M111.573,34.377a.255.255,0,0,0-.03-.06l-.04-.05a.339.339,0,0,0-.363-.07.384.384,0,0,0-.11.07.344.344,0,0,0-.1.237.333.333,0,0,0,.027.127.3.3,0,0,0,.18.18.333.333,0,0,0,.127.027.464.464,0,0,0,.067-.007.217.217,0,0,0,.06-.02.255.255,0,0,0,.06-.03l.05-.04a.387.387,0,0,0,.07-.11.28.28,0,0,0,.027-.127.455.455,0,0,0-.007-.067A.218.218,0,0,0,111.573,34.377Z" transform="translate(-106.6 -32.837)" fill="#fff" stroke="#fff" stroke-width="0.3"/>
        <path id="路径_480" data-name="路径 480" d="M165.133,34.133h-2.667a.333.333,0,1,0,0,.667h2.667a.333.333,0,1,0,0-.667Z" transform="translate(-155.8 -32.8)" fill="#fff" stroke="#fff" stroke-width="0.3"/>
        <path id="路径_481" data-name="路径 481" d="M39.466,213.333H34.8a.667.667,0,0,0-.667.667v5.333A.667.667,0,0,0,34.8,220h4.667a.667.667,0,0,0,.667-.667V214A.667.667,0,0,0,39.466,213.333Zm-4.667,6V214h4.667v5.333H34.8Z" transform="translate(-32.8 -205)" fill="#fff" stroke="#fff" stroke-width="0.3"/>
        <path id="路径_482" data-name="路径 482" d="M210.133,213.333h-4.667a.667.667,0,0,0-.667.667v5.333a.667.667,0,0,0,.667.667h4.667a.667.667,0,0,0,.667-.667V214A.667.667,0,0,0,210.133,213.333Zm-4.667,6V214h4.667v5.333h-4.667Z" transform="translate(-196.8 -205)" fill="#fff" stroke="#fff" stroke-width="0.3"/>
        <path id="路径_483" data-name="路径 483" d="M19.333,8.333H16V1.667A1.669,1.669,0,0,0,14.333,0H1.667A1.669,1.669,0,0,0,0,1.667V18.333A1.669,1.669,0,0,0,1.667,20H14.333A1.669,1.669,0,0,0,16,18.333v-2h2.333a.333.333,0,1,0,0-.667H16V15h3.333A.667.667,0,0,0,20,14.333V9A.667.667,0,0,0,19.333,8.333ZM.667,1.667a1,1,0,0,1,1-1H14.333a1,1,0,0,1,1,1v1H.667Zm14.667,14a.333.333,0,0,0,0,.667v2a1,1,0,0,1-1,1H1.667a1,1,0,0,1-1-1v-15H15.333v5A.667.667,0,0,0,14.667,9v5.333a.667.667,0,0,0,.667.667v.667Zm0-1.333V9h4v5.333h-4Z" fill="#fff" stroke="#fff" stroke-width="0.3"/>
        <path id="路径_484" data-name="路径 484" d="M45,401.067H43a.333.333,0,1,0,0,.667h2a.333.333,0,1,0,0-.667Z" transform="translate(-41 -385.4)" fill="#fff" stroke="#fff" stroke-width="0.3"/>
        <path id="路径_485" data-name="路径 485" d="M129.668,401.067h-1.333a.333.333,0,1,0,0,.667h1.333a.333.333,0,1,0,0-.667Z" transform="translate(-123.001 -385.4)" fill="#fff" stroke="#fff" stroke-width="0.3"/>
        <path id="路径_486" data-name="路径 486" d="M216,401.067h-2.333a.333.333,0,1,0,0,.667H216a.333.333,0,0,0,0-.667Z" transform="translate(-205.001 -385.4)" fill="#fff" stroke="#fff" stroke-width="0.3"/>
        <path id="路径_487" data-name="路径 487" d="M308.533,401.067h-1a.333.333,0,0,0,0,.667h1a.333.333,0,1,0,0-.667Z" transform="translate(-295.2 -385.4)" fill="#fff" stroke="#fff" stroke-width="0.3"/>
        <path id="路径_488" data-name="路径 488" d="M495.506,401.275a.188.188,0,0,0-.03-.057c-.013-.02-.027-.037-.04-.053s-.033-.027-.053-.04a.184.184,0,0,0-.057-.03.21.21,0,0,0-.06-.02.339.339,0,0,0-.3.09.335.335,0,1,0,.57.237.457.457,0,0,0-.007-.067A.218.218,0,0,0,495.506,401.275Z" transform="translate(-475.533 -385.402)" fill="#fff" stroke="#fff" stroke-width="0.3"/>
        <path id="路径_489" data-name="路径 489" d="M106.068,136.533h-3.333a.333.333,0,1,0,0,.667h3.333a.333.333,0,1,0,0-.667Z" transform="translate(-98.401 -131.2)" fill="#fff" stroke="#fff" stroke-width="0.3"/>
        <path id="路径_490" data-name="路径 490" d="M103.4,171.334a.333.333,0,1,0,0-.667h-.667a.333.333,0,1,0,0,.667Z" transform="translate(-98.4 -164)" fill="#fff" stroke="#fff" stroke-width="0.3"/>
        <path id="路径_491" data-name="路径 491" d="M34.8,138.533h.667a.667.667,0,0,0,.667-.667V137.2a.667.667,0,0,0-.667-.667H34.8a.667.667,0,0,0-.667.667v.667A.667.667,0,0,0,34.8,138.533Zm0-1.333h.667v.667H34.8Z" transform="translate(-32.8 -131.2)" fill="#fff" stroke="#fff" stroke-width="0.3"/>
      </g>
    </g>
  </g>
</svg>
