<svg xmlns="http://www.w3.org/2000/svg" width="20" height="20.645" viewBox="0 0 20 20.645">
  <g id="bill_1_" data-name="bill(1)" transform="translate(-7.967)">
    <path id="路径_264" data-name="路径 264" d="M27.326,14.469a.6.6,0,0,0-.044-.067,4.029,4.029,0,0,0-1.908-1.514V2.55A2.553,2.553,0,0,0,22.823,0H10.517a2.553,2.553,0,0,0-2.55,2.55V5.181A1.216,1.216,0,0,0,9.181,6.4h2.672V17.487A1.216,1.216,0,0,0,13.068,18.7h7.456a4.006,4.006,0,1,0,6.8-4.233ZM11.853,5.181H9.181V2.55a1.336,1.336,0,0,1,2.672,0ZM20.04,17.487H13.068V2.874a2.773,2.773,0,0,0-.379-1.66H22.823A1.337,1.337,0,0,1,24.159,2.55V12.635A4.012,4.012,0,0,0,20.04,17.487Zm3.917,1.943a2.792,2.792,0,1,1,2.029-4.71l-1.867,1.867-.542-.542a.607.607,0,0,0-.859.859l.972.972a.607.607,0,0,0,.859,0L26.622,15.8a2.8,2.8,0,0,1-2.665,3.628Z" fill="#fff"/>
    <path id="路径_265" data-name="路径 265" d="M168.574,97.214h1.3a.607.607,0,1,0,0-1.214h-1.3a.607.607,0,0,0,0,1.214Z" transform="translate(-153.523 -92.114)" fill="#fff"/>
    <path id="路径_266" data-name="路径 266" d="M168.574,153.214h1.3a.607.607,0,1,0,0-1.214h-1.3a.607.607,0,0,0,0,1.214Z" transform="translate(-153.523 -145.847)" fill="#fff"/>
    <path id="路径_267" data-name="路径 267" d="M168.574,217.214h1.3a.607.607,0,1,0,0-1.214h-1.3a.607.607,0,0,0,0,1.214Z" transform="translate(-153.523 -207.256)" fill="#fff"/>
    <path id="路径_268" data-name="路径 268" d="M172.137,280h-3.562a.607.607,0,1,0,0,1.214h3.562a.607.607,0,0,0,0-1.214Z" transform="translate(-153.523 -268.666)" fill="#fff"/>
    <path id="路径_269" data-name="路径 269" d="M172.137,344h-3.562a.607.607,0,0,0,0,1.214h3.562a.607.607,0,0,0,0-1.214Z" transform="translate(-153.523 -330.075)" fill="#fff"/>
    <path id="路径_270" data-name="路径 270" d="M267,67.707a6.239,6.239,0,0,1-1.528-.657.383.383,0,0,1-.107-.378c.126-.7,1.21-.665,1.63-.33l-.008-.006h0a.607.607,0,1,0,.777-.931,2.335,2.335,0,0,0-1-.452v-.194a.607.607,0,0,0-1.214,0v.232a1.756,1.756,0,0,0-.788,3.043,6.717,6.717,0,0,0,1.864.829c.576.188.606.576.573.79a1,1,0,0,1-1.044.808,1.865,1.865,0,0,1-1.263-.306.607.607,0,1,0-.629,1.039,2.85,2.85,0,0,0,1.288.46v.224a.607.607,0,0,0,1.214,0V71.6A2.006,2.006,0,0,0,267,67.707Z" transform="translate(-245.633 -61.553)" fill="#fff"/>
  </g>
</svg>
