<svg xmlns="http://www.w3.org/2000/svg" width="20" height="20.02" viewBox="0 0 20 20.02">
  <g id="checklist" transform="translate(-0.251)">
    <path id="路径_464" data-name="路径 464" d="M61.069,142.758a.6.6,0,0,0,.834-.048l1.468-1.675a.586.586,0,0,0-.882-.771l-1.076,1.227-.288-.261a.586.586,0,1,0-.786.868Z" transform="translate(-57.555 -134.591)" fill="#fff"/>
    <path id="路径_465" data-name="路径 465" d="M170.756,182.345h-3.382a.586.586,0,1,0,0,1.171h3.382a.586.586,0,1,0,0-1.171Z" transform="translate(-160.03 -175.22)" fill="#fff"/>
    <path id="路径_466" data-name="路径 466" d="M67.1,244.5H59.5a.586.586,0,1,0,0,1.171h7.6a.586.586,0,1,0,0-1.171Z" transform="translate(-56.371 -234.948)" fill="#fff"/>
    <path id="路径_467" data-name="路径 467" d="M61.069,314.538a.6.6,0,0,0,.834-.048l1.468-1.675a.586.586,0,0,0-.882-.771l-1.076,1.227-.288-.261a.586.586,0,1,0-.786.868Z" transform="translate(-57.555 -299.659)" fill="#fff"/>
    <path id="路径_468" data-name="路径 468" d="M170.756,354.07h-3.382a.586.586,0,1,0,0,1.171h3.382a.586.586,0,1,0,0-1.171Z" transform="translate(-160.03 -340.235)" fill="#fff"/>
    <path id="路径_469" data-name="路径 469" d="M67.1,415.337H59.5a.586.586,0,1,0,0,1.171h7.6a.586.586,0,1,0,0-1.171Z" transform="translate(-56.371 -399.109)" fill="#fff"/>
    <path id="路径_470" data-name="路径 470" d="M18.821,0H7.661A1.024,1.024,0,0,0,7.3.07,1.927,1.927,0,0,0,6.939.036,1.91,1.91,0,0,0,5.132,1.329H4.506a.836.836,0,0,0-.834.78H1.606A1.355,1.355,0,0,0,.251,3.462v15.2A1.355,1.355,0,0,0,1.606,20.02H12.273a1.357,1.357,0,0,0,1.308-1H18.92a1.453,1.453,0,0,0,1.331-1.428V1.428A1.431,1.431,0,0,0,18.821,0ZM4.842,2.5h.777A.586.586,0,0,0,6.2,1.926a.735.735,0,0,1,1.47,0A.586.586,0,0,0,8.26,2.5h.777v.645h-4.2Zm7.614,16.166a.183.183,0,0,1-.182.182H1.606a.183.183,0,0,1-.182-.182V3.462a.183.183,0,0,1,.182-.182H3.67V3.4a.913.913,0,0,0,.913.912H9.3a.913.913,0,0,0,.913-.912V3.28h2.064a.183.183,0,0,1,.182.182Zm6.623-1.076a.256.256,0,0,1-.227.255l-.017,0H13.628V3.462a1.355,1.355,0,0,0-1.355-1.353H10.206a.844.844,0,0,0-.841-.78H8.747c-.018-.054-.04-.106-.062-.158H18.821a.258.258,0,0,1,.257.257Z" fill="#fff"/>
  </g>
</svg>
