<?xml version="1.0" standalone="no"?><!DOCTYPE svg PUBLIC "-//W3C//DTD SVG 1.1//EN" "http://www.w3.org/Graphics/SVG/1.1/DTD/svg11.dtd"><svg t="1628057426799" class="icon" viewBox="0 0 1366 1024" version="1.1" xmlns="http://www.w3.org/2000/svg" p-id="4024" xmlns:xlink="http://www.w3.org/1999/xlink" width="266.796875" height="200"><defs><style type="text/css"></style></defs><path d="M1264.810667 614.4H456.647111c-60.529778 0-100.920889-40.96-100.920889-102.4s40.391111-102.4 100.920889-102.4h808.163556c60.529778 0 100.920889 40.96 100.920889 102.4s-40.391111 102.4-100.920889 102.4z m0-409.6H456.647111c-60.529778 0-100.920889-40.96-100.920889-102.4s40.391111-102.4 100.920889-102.4h808.163556c60.529778 0 100.920889 40.96 100.920889 102.4s-40.391111 102.4-100.920889 102.4zM101.546667 1024c-60.643556 0-101.034667-40.96-101.034667-102.4s40.391111-102.4 101.034667-102.4 101.034667 40.96 101.034666 102.4-40.391111 102.4-101.034666 102.4z m0-409.6c-60.643556 0-101.034667-40.96-101.034667-102.4s40.391111-102.4 101.034667-102.4 101.034667 40.96 101.034666 102.4-40.391111 102.4-101.034666 102.4z m0-409.6c-60.643556 0-101.034667-40.96-101.034667-102.4S40.903111 0 101.546667 0s101.034667 40.96 101.034666 102.4-40.391111 102.4-101.034666 102.4z m355.100444 614.4h808.163556c60.529778 0 100.920889 40.96 100.920889 102.4s-40.391111 102.4-100.920889 102.4H456.647111c-60.529778 0-100.920889-40.96-100.920889-102.4s40.391111-102.4 100.920889-102.4z" p-id="4025"></path></svg>