<svg xmlns="http://www.w3.org/2000/svg" width="21.151" height="22.475" viewBox="0 0 21.151 22.475">
  <g id="组_230" data-name="组 230" transform="translate(-253.616 -177.125)">
    <g id="commission-white">
      <g id="Outline">
        <g id="路径_56" data-name="路径 56">
          <path id="路径_567" data-name="路径 567" d="M264.617,186.15v.7h-.4a1.3,1.3,0,1,0,0,2.6h1.5a.577.577,0,0,1,.6.551v.049a.53.53,0,0,1-.45.6.538.538,0,0,1-.15,0h-2.4v.7h1.3v.7h.7v-.7h.4a1.3,1.3,0,0,0,0-2.6h-1.5a.575.575,0,0,1-.6-.551.4.4,0,0,1,0-.049.53.53,0,0,1,.449-.6.545.545,0,0,1,.151,0h2.4v-.7h-1.3v-.7Z" fill="#fff"/>
          <path id="路径_568" data-name="路径 568" d="M265.566,192.3h-1.2v-.7h-1.3v-1.2h2.651a.526.526,0,0,0,.116,0,.281.281,0,0,0,.236-.317l0-.069a.324.324,0,0,0-.106-.231.31.31,0,0,0-.233-.086h-1.511a1.55,1.55,0,1,1,0-3.1h.15v-.7h1.2v.7h1.3v1.2h-2.65a.4.4,0,0,0-.115,0,.276.276,0,0,0-.185.109.281.281,0,0,0-.053.208l0,.069a.31.31,0,0,0,.341.316h1.51a1.55,1.55,0,0,1,0,3.1h-.151Zm-.7-.5h.2v-.7h.651a1.05,1.05,0,0,0,0-2.1h-1.5a.812.812,0,0,1-.584-.217.821.821,0,0,1-.266-.574v-.074a.721.721,0,0,1,.15-.528.775.775,0,0,1,.513-.3.758.758,0,0,1,.223,0l2.114,0v-.2h-1.3v-.7h-.2v.7h-.65a1.05,1.05,0,1,0,0,2.1h1.5a.825.825,0,0,1,.849.791v.074a.719.719,0,0,1-.149.528.778.778,0,0,1-.514.3.9.9,0,0,1-.22,0l-2.117,0v.2h1.3Z" fill="#fff"/>
        </g>
        <g id="路径_57" data-name="路径 57">
          <path id="路径_569" data-name="路径 569" d="M274.117,193.45h-3.3l-.4-.5v-4.6a4.922,4.922,0,0,0-3.6-4.7l.6-2.2c.1-.2-.1-.4-.3-.5h-2.3v.7h1.7l-.5,1.8h-1.2v.9h1.4a4.184,4.184,0,0,1,3.3,4.1v4.9a5.222,5.222,0,0,0-5,.2h-2.5a1.538,1.538,0,0,0-1.5,1.5.6.6,0,0,0,.1.4l-1.5-.7c0-.1.1-.1.1-.2l.9-1.2c0-.1.1-.1.1-.2v-4h-.8v3.9l-.8,1.1c-.1.1-.1.2-.2.3l-1.2-.6a1.593,1.593,0,0,0-2,.7,2.337,2.337,0,0,0-.2.8,1.508,1.508,0,0,0,.9,1.4l4.3,2.1a4.978,4.978,0,0,0,2.1.5h11.8a.43.43,0,0,0,.4-.4v-5.1A.432.432,0,0,0,274.117,193.45Zm-4.4,5.2h-7.4a3.906,3.906,0,0,1-1.8-.4l-4.3-2.2a.75.75,0,0,1-.5-.7.9.9,0,0,1,.1-.5.95.95,0,0,1,1.1-.4l4.2,1.9h4.2v-.7h-3.3a.7.7,0,1,1,0-1.4h2.8c.1,0,.1,0,.2-.1h0a4.783,4.783,0,0,1,4.5-.2l.2.1Zm4,0h-3.3v-4.4h3.3Z" fill="#fff"/>
          <path id="路径_570" data-name="路径 570" d="M262.316,199.6a5.279,5.279,0,0,1-2.209-.525l-4.3-2.1a1.75,1.75,0,0,1-1.04-1.628,2.589,2.589,0,0,1,.222-.9,1.842,1.842,0,0,1,2.323-.829l1.014.506a.664.664,0,0,1,.114-.151l.727-1.005V188.9h1.3v4.25a.365.365,0,0,1-.1.253v.031l-.9,1.2.805.375a1.78,1.78,0,0,1,1.741-1.712h2.438a5.448,5.448,0,0,1,4.819-.337V188.45a3.957,3.957,0,0,0-3.1-3.856l-1.6.006v-1.4h1.261l.36-1.3h-1.621v-1.2l2.663.027c.39.195.56.539.411.835l-.519,1.92a5.2,5.2,0,0,1,3.546,4.866v4.514l.27.338h3.2a.683.683,0,0,1,.632.632v5.117a.687.687,0,0,1-.634.65Zm-5.705-5.623a1.346,1.346,0,0,0-1.175.694,2.074,2.074,0,0,0-.17.7,1.254,1.254,0,0,0,.752,1.155l4.309,2.1a4.765,4.765,0,0,0,1.993.475h11.8a.178.178,0,0,0,.15-.167V193.85a.181.181,0,0,0-.161-.15H270.7l-.529-.662V188.35a4.691,4.691,0,0,0-3.417-4.459l-.24-.066.665-2.441c.013-.056-.029-.125-.123-.184h-1.986v.2h1.78l-.639,2.3h-1.141v.4h1.151a4.462,4.462,0,0,1,3.55,4.351v5.3l-.361-.179a4.956,4.956,0,0,0-4.761.191l-.059.035h-2.569a1.285,1.285,0,0,0-1.25,1.257.362.362,0,0,0,.057.253l.509.751-2.466-1.151v-.16a.359.359,0,0,1,.1-.252v-.031l.913-1.218a.363.363,0,0,1,.087-.151v-3.7h-.3v3.731l-.848,1.166a.424.424,0,0,0-.079.115.761.761,0,0,1-.147.215l-.127.127-1.361-.68A1.294,1.294,0,0,0,256.611,193.977Zm5.629,4.924a4.187,4.187,0,0,1-1.833-.426l-4.3-2.2a.989.989,0,0,1-.636-.92,1.129,1.129,0,0,1,.128-.619,1.2,1.2,0,0,1,1.4-.522l4.176,1.888h3.9v-.2h-3.049a.95.95,0,1,1,0-1.9h2.8l.027-.026a5.024,5.024,0,0,1,4.785-.249l.342.171v5H262.24Zm-5.617-4.253a.711.711,0,0,0-.595.334.653.653,0,0,0-.062.346.512.512,0,0,0,.334.487l4.33,2.213a3.572,3.572,0,0,0,1.682.372h7.155v-4.195l-.062-.031a4.522,4.522,0,0,0-4.261.191.353.353,0,0,1-.328.135h-2.8a.45.45,0,1,0,0,.9h3.549v1.2l-4.552-.022-4.2-1.9A.618.618,0,0,0,256.623,194.648Zm17.344,4.252h-3.8V194h3.8Zm-3.3-.5h2.8v-3.9h-2.8Z" fill="#fff"/>
        </g>
        <g id="椭圆_1" data-name="椭圆 1">
          <circle id="椭圆_8" data-name="椭圆 8" cx="0.7" cy="0.7" r="0.7" transform="translate(271.217 196.45)" fill="#fff"/>
          <path id="路径_571" data-name="路径 571" d="M271.917,198.1a.95.95,0,1,1,.95-.95A.951.951,0,0,1,271.917,198.1Zm0-1.4a.45.45,0,1,0,.45.45A.45.45,0,0,0,271.917,196.7Z" fill="#fff"/>
        </g>
        <g id="路径_58" data-name="路径 58">
          <path id="路径_572" data-name="路径 572" d="M256.517,187.35c0,.2.2.3.4.3h0l1.3-.4.9,1a.283.283,0,0,0,.382.118.291.291,0,0,0,.118-.118h0l.9-1,1.3.4a.364.364,0,0,0,.487-.17l.013-.03h0l.3-1.3,1.3-.3c.2,0,.3-.2.3-.4h0l-.4-1.3,1-.9a.282.282,0,0,0,.117-.382.289.289,0,0,0-.117-.118h0l-1-.9.4-1.5a.365.365,0,0,0-.171-.487l-.029-.013h0l-1.4-.2-.3-1.3c0-.2-.2-.3-.4-.3h0l-1.3.4-.9-1a.454.454,0,0,0-.5,0h0l-.9,1-1.3-.4a.366.366,0,0,0-.488.171l-.012.029h0l-.3,1.4-1.3.3c-.2,0-.3.2-.3.4h0l.4,1.3-1,.9a.282.282,0,0,0,0,.5h0l1,.9-.4,1.4a.365.365,0,0,0,.17.488l.03.012h0l1.4.2Zm-.8-3.7-.9-.8.9-.8c.1-.1.1-.2.1-.4l-.4-1.1,1.2-.2q.15,0,.3-.3l.3-1.2,1,.4a.6.6,0,0,0,.4-.1l.8-.9.8.9c.1.1.2.1.4.1l1.1-.4.3,1.2c0,.1.1.2.2.3l1.2.3-.4,1a.6.6,0,0,0,.1.4l.9.8-.9.8c-.1.1-.1.2-.1.4l.4,1.1-1.2.2q-.15,0-.3.3l-.2,1.2-1.1-.4a.6.6,0,0,0-.4.1l-.8.9-.8-.9c-.1-.1-.2-.1-.4-.1l-1.1.4-.2-1.2q0-.15-.3-.3l-1.2-.2.4-1.1C255.817,183.85,255.817,183.75,255.717,183.65Z" fill="#fff"/>
          <path id="路径_573" data-name="路径 573" d="M259.368,188.651a.536.536,0,0,1-.472-.283l-.757-.832-1.222.364a.591.591,0,0,1-.649-.517l-.256-1.11-1.341-.214a.6.6,0,0,1-.306-.348.609.609,0,0,1,.027-.47l.342-1.209-.884-.8a.424.424,0,0,1-.172-.186.534.534,0,0,1,.221-.72l.832-.758-.364-1.222a.586.586,0,0,1,.55-.65l1.088-.257.3-1.334a.613.613,0,0,1,.819-.284l1.112.34.842-.923a.7.7,0,0,1,.775,0l.049.041.793.882,1.221-.365a.586.586,0,0,1,.649.55l.255,1.077,1.328.208a.617.617,0,0,1,.293.823l-.345,1.309.887.8a.42.42,0,0,1,.17.184.534.534,0,0,1-.22.722l-.832.758.365,1.221a.586.586,0,0,1-.55.65l-1.092.258-.3,1.234a.614.614,0,0,1-.819.283l-1.112-.339-.793.881a.426.426,0,0,1-.188.172A.523.523,0,0,1,259.368,188.651Zm-.065-.568.08.063.048-.063,1.006-1.119,1.453.448c.093.041.161.017.189-.04l.329-1.43,1.452-.336.138.232-.076-.238a.179.179,0,0,0,.043-.117l-.435-1.412,1.119-1.007.285-.2-.22.118-.065-.05-1.114-1,.44-1.648c.044-.1.02-.17-.038-.2l-1.525-.214-.339-1.468a.124.124,0,0,0-.124-.1l-1.411.434-.981-1.09a.2.2,0,0,0-.18,0l-.981,1.09-1.453-.447c-.091-.04-.161-.018-.189.04l-.326,1.529-1.455.336a.124.124,0,0,0-.105.124l.434,1.411-1.181,1.087.063.048,1.116,1.005-.443,1.55c-.033.077-.026.111-.02.127a.113.113,0,0,0,.059.066l1.526.215.345,1.523v.006a.179.179,0,0,0,.117.043l1.412-.434,1.007,1.118Zm.114-.256-.987-1.111c-.011-.01-.022-.015-.169-.016l-1.342.488-.249-1.5s-.02-.04-.133-.1l-1.458-.242.487-1.342c0-.136,0-.157-.022-.175l-1.1-.981,1.111-.987c.009-.009.014-.022.015-.169l-.487-1.341,1.5-.249c0,.011.048-.026.117-.166l.351-1.426,1.229.492a.427.427,0,0,0,.2-.061l.94-1.069.987,1.11c.01.01.022.016.169.016l1.319-.48.367,1.47a.366.366,0,0,0,.087.135l1.409.353-.492,1.229a.351.351,0,0,0,.061.2l1.069.94-1.11.987c-.011.011-.015.022-.016.169l.487,1.342-1.5.249c0-.011-.041.021-.1.133l-.243,1.458-1.383-.5a.546.546,0,0,0-.174.072Zm-1.244-1.627h.044a.708.708,0,0,1,.576.174l.624.7.613-.69a.848.848,0,0,1,.613-.182l.876.312.174-.975c.054-.109.219-.439.524-.439l.862-.146-.312-.9a.71.71,0,0,1,.173-.576l.7-.624-.69-.613a.86.86,0,0,1-.183-.613l.017-.066.293-.735-.989-.247-.048-.049a.707.707,0,0,1-.274-.477l-.224-.871-.926.321a.711.711,0,0,1-.577-.173l-.623-.7-.613.69a.879.879,0,0,1-.613.183l-.067-.017-.734-.294-.231.923c-.073.16-.238.489-.542.489l-.863.147.312.9a.715.715,0,0,1-.172.577l-.7.623.7.624a.713.713,0,0,1,.172.576l-.015.086-.3.817.975.173c.108.055.438.22.438.524l.146.863Z" fill="#fff"/>
        </g>
        <g id="路径_59" data-name="路径 59">
          <path id="路径_574" data-name="路径 574" d="M258.017,182.45a1.1,1.1,0,1,0-1.1-1.1A1.1,1.1,0,0,0,258.017,182.45Zm0-1.4a.266.266,0,0,1,.3.225.312.312,0,0,1,0,.075.43.43,0,0,1-.4.4c-.2,0-.3-.2-.3-.4S257.817,181.05,258.017,181.05Z" fill="#fff"/>
          <path id="路径_575" data-name="路径 575" d="M258.017,182.7h0a1.35,1.35,0,1,1,1.353-1.35A1.351,1.351,0,0,1,258.017,182.7Zm0-2.2a.851.851,0,0,0-.85.85.863.863,0,0,0,.851.85.85.85,0,0,0,0-1.7Zm-.084,1.5a.6.6,0,1,1,.067-1.2.51.51,0,0,1,.363.1.517.517,0,0,1,.2.34.5.5,0,0,1,0,.149.674.674,0,0,1-.629.611Zm.084-.7a.209.209,0,0,0-.15.045.215.215,0,0,0,.045.155.178.178,0,0,0,.155-.167l-.018,0Z" fill="#fff"/>
        </g>
        <g id="路径_60" data-name="路径 60">
          <path id="路径_576" data-name="路径 576" d="M260.217,183.95a1.1,1.1,0,1,0,1.1-1.1A1.1,1.1,0,0,0,260.217,183.95Zm1.4,0c0,.2-.1.4-.3.4a.4.4,0,0,1,0-.8C261.517,183.55,261.617,183.75,261.617,183.95Z" fill="#fff"/>
          <path id="路径_577" data-name="路径 577" d="M261.316,185.3a1.351,1.351,0,0,1-1.349-1.35v0a1.35,1.35,0,0,1,2.7,0A1.352,1.352,0,0,1,261.316,185.3Zm-.849-1.349a.85.85,0,1,0,.849-.851A.864.864,0,0,0,260.467,183.951Zm.849.649a.65.65,0,0,1,0-1.3.659.659,0,0,1,0,1.3Zm.005-.8a.15.15,0,1,0-.005.3.182.182,0,0,0,.051-.15.21.21,0,0,0-.045-.149Z" fill="#fff"/>
        </g>
      </g>
      <g id="矩形_4" data-name="矩形 4">
        <rect id="矩形_277" data-name="矩形 277" width="5.3" height="0.6" transform="translate(257.561 184.398) rotate(-45)" fill="#fff"/>
        <path id="路径_578" data-name="路径 578" d="M257.985,185.176l-.777-.778,4.1-4.1.777.778Zm-.07-.778.07.071,3.394-3.394-.07-.071Z" fill="#fff"/>
      </g>
    </g>
  </g>
</svg>
