<svg xmlns="http://www.w3.org/2000/svg" width="22.501" height="22.441" viewBox="0 0 22.501 22.441">
  <g id="组_223" data-name="组 223" transform="translate(-193.658 -200.98)">
    <g id="组_84" data-name="组 84">
      <g id="路径_77" data-name="路径 77">
        <path id="路径_529" data-name="路径 529" d="M206.708,209.37l8.1,1.6a1.287,1.287,0,0,1,1.1,1.3v9.3a1.367,1.367,0,0,1-1.333,1.4h-8.267a.472.472,0,0,0,.5-.442.557.557,0,0,0,0-.058v-.5h7.8a.534.534,0,0,0,.5-.5v-9.3a.366.366,0,0,0-.328-.4.433.433,0,0,0-.072,0l-7.9-1.6Z" fill="#fff"/>
        <path id="路径_530" data-name="路径 530" d="M206.337,223.221h-.044l.015-.5h.048a.222.222,0,0,0,.2-.208v-.792h8.05a.284.284,0,0,0,.25-.266V212.17a.137.137,0,0,0-.1-.151l-.037,0-.059-.007-8.075-1.636-.166-1.321,8.439,1.667a1.536,1.536,0,0,1,1.3,1.55v9.3a1.617,1.617,0,0,1-1.577,1.65h-8.244Zm.687-.5h7.484a1.131,1.131,0,0,0,1.15-1.144V212.27a1.039,1.039,0,0,0-.886-1.052L207,209.683l.035.277,7.692,1.559a.418.418,0,0,1,.079,0,.616.616,0,0,1,.551.674l0,9.275a.792.792,0,0,1-.734.75h-7.566v.321A.756.756,0,0,1,207.024,222.72Z" fill="#fff"/>
      </g>
      <g id="路径_78" data-name="路径 78">
        <path id="路径_531" data-name="路径 531" d="M211.808,213.87a.5.5,0,0,1,0,1h-1.9a.5.5,0,0,1,0-1Z" fill="#fff"/>
        <path id="路径_532" data-name="路径 532" d="M211.808,215.12h-1.9a.75.75,0,0,1,0-1.5h1.9a.75.75,0,0,1,0,1.5Zm-1.9-1a.25.25,0,0,0,0,.5h1.9a.25.25,0,0,0,0-.5Z" fill="#fff"/>
      </g>
      <g id="路径_79" data-name="路径 79">
        <path id="路径_533" data-name="路径 533" d="M211.808,216.67a.5.5,0,0,1,0,1h-1.9a.5.5,0,0,1,0-1Z" fill="#fff"/>
        <path id="路径_534" data-name="路径 534" d="M211.808,217.92h-1.9a.75.75,0,0,1,0-1.5h1.9a.75.75,0,0,1,0,1.5Zm-1.9-1a.25.25,0,0,0,0,.5h1.9a.25.25,0,0,0,0-.5Z" fill="#fff"/>
      </g>
      <g id="路径_80" data-name="路径 80">
        <path id="路径_535" data-name="路径 535" d="M211.808,219.37a.5.5,0,0,1,0,1h-1.9a.5.5,0,0,1,0-1Z" fill="#fff"/>
        <path id="路径_536" data-name="路径 536" d="M211.808,220.62h-1.9a.75.75,0,0,1,0-1.5h1.9a.75.75,0,0,1,0,1.5Zm-1.9-1a.25.25,0,0,0,0,.5h1.9a.25.25,0,0,0,0-.5Z" fill="#fff"/>
      </g>
      <g id="路径_81" data-name="路径 81">
        <path id="路径_537" data-name="路径 537" d="M206.708,222.57a.5.5,0,0,1-1,0v-12.8a.762.762,0,0,1,.2-.4c.1-.1.2-.1.4-.1l.4.1Z" fill="#fff"/>
        <path id="路径_538" data-name="路径 538" d="M206.208,223.32a.75.75,0,0,1-.75-.75v-12.8a1.017,1.017,0,0,1,.27-.573.71.71,0,0,1,.58-.177l.65.155v13.4A.75.75,0,0,1,206.208,223.32Zm.04-13.807c-.128.007-.142.012-.163.033a.5.5,0,0,0-.13.265l0,12.759a.25.25,0,0,0,.5,0V209.565Z" fill="#fff"/>
      </g>
      <g id="路径_82" data-name="路径 82">
        <path id="路径_539" data-name="路径 539" d="M205.808,222.17v.5a.472.472,0,0,0,.442.5.557.557,0,0,0,.058,0h-3.7a.472.472,0,0,0,.5-.442.566.566,0,0,0,0-.058v-.5Z" fill="#fff"/>
        <path id="路径_540" data-name="路径 540" d="M202.638,223.421l-.046,0,.016-.5h.05a.222.222,0,0,0,.2-.207v-.793h3.2v.75a.234.234,0,0,0,.055.176.22.22,0,0,0,.146.074h.049l.019.5h-3.689Zm.687-.5h2.266a.718.718,0,0,1-.032-.266v-.234h-2.2v.327A.677.677,0,0,1,203.325,222.92Z" fill="#fff"/>
      </g>
      <g id="路径_83" data-name="路径 83">
        <path id="路径_541" data-name="路径 541" d="M203.508,205.67a.472.472,0,0,1,.5.442.557.557,0,0,1,0,.058.472.472,0,0,1-.442.5.557.557,0,0,1-.058,0h-1.8a.633.633,0,0,1-.5-.6.472.472,0,0,1,.442-.5.557.557,0,0,1,.058,0h1.8Z" fill="#fff"/>
        <path id="路径_542" data-name="路径 542" d="M203.564,206.92h-1.856a.89.89,0,0,1-.75-.842.721.721,0,0,1,.677-.757h2.123v.134a.691.691,0,0,1,.257.147.71.71,0,0,1,.242.5v.092a.689.689,0,0,1-.179.489.717.717,0,0,1-.5.241Zm-1.856-1.1a.245.245,0,0,0-.195.074.22.22,0,0,0-.055.161.383.383,0,0,0,.3.37l1.748-.005a.241.241,0,0,0,.2-.074.218.218,0,0,0,.055-.16c-.007-.181-.109-.267-.235-.267l-.265.017v-.116Z" fill="#fff"/>
      </g>
      <g id="路径_84" data-name="路径 84">
        <path id="路径_543" data-name="路径 543" d="M204.008,208.87a.472.472,0,0,1-.442.5.557.557,0,0,1-.058,0h-1.8a.535.535,0,0,1-.5-.5.472.472,0,0,1,.442-.5h1.858a.472.472,0,0,1,.5.442A.557.557,0,0,1,204.008,208.87Z" fill="#fff"/>
        <path id="路径_544" data-name="路径 544" d="M203.567,209.621h-1.859a.792.792,0,0,1-.75-.734.723.723,0,0,1,.677-.765h1.873a.683.683,0,0,1,.507.18.714.714,0,0,1,.242.5v.062a.724.724,0,0,1-.676.761Zm-.03-1h-1.829c-.165.007-.258.112-.25.234a.287.287,0,0,0,.266.267h1.784c.165-.007.258-.112.25-.234v-.018l0-.017.249.019-.249-.038a.223.223,0,0,0-.222-.213Z" fill="#fff"/>
      </g>
      <g id="路径_85" data-name="路径 85">
        <path id="路径_545" data-name="路径 545" d="M203.508,211.17a.5.5,0,0,1,0,1h-1.8a.5.5,0,0,1,0-1Z" fill="#fff"/>
        <path id="路径_546" data-name="路径 546" d="M203.508,212.42h-1.8a.75.75,0,0,1,0-1.5h1.8a.75.75,0,0,1,0,1.5Zm-1.8-1a.25.25,0,0,0,0,.5h1.8a.25.25,0,0,0,0-.5Z" fill="#fff"/>
      </g>
      <g id="路径_86" data-name="路径 86">
        <path id="路径_547" data-name="路径 547" d="M203.508,213.87a.5.5,0,0,1,0,1h-1.8a.5.5,0,0,1,0-1Z" fill="#fff"/>
        <path id="路径_548" data-name="路径 548" d="M203.508,215.12h-1.8a.75.75,0,0,1,0-1.5h1.8a.75.75,0,0,1,0,1.5Zm-1.8-1a.25.25,0,0,0,0,.5h1.8a.25.25,0,0,0,0-.5Z" fill="#fff"/>
      </g>
      <g id="路径_87" data-name="路径 87">
        <path id="路径_549" data-name="路径 549" d="M199.408,214.37a.472.472,0,0,1-.442.5.557.557,0,0,1-.058,0h-1.8a.5.5,0,1,1,0-1h1.8a.472.472,0,0,1,.5.442A.566.566,0,0,1,199.408,214.37Z" fill="#fff"/>
        <path id="路径_550" data-name="路径 550" d="M198.967,215.121h-1.859a.75.75,0,1,1,0-1.5h1.8a.7.7,0,0,1,.508.18.72.72,0,0,1,.242.5v.064a.724.724,0,0,1-.677.759Zm-.03-1h-1.829a.25.25,0,1,0,0,.5h1.8a.232.232,0,0,0,.251-.235v-.028l.249.013-.249-.045A.223.223,0,0,0,198.937,214.119Z" fill="#fff"/>
      </g>
      <g id="路径_88" data-name="路径 88">
        <path id="路径_551" data-name="路径 551" d="M198.908,205.67a.472.472,0,0,1,.5.442.566.566,0,0,1,0,.058.472.472,0,0,1-.442.5.557.557,0,0,1-.058,0h-1.8c-.2-.1-.5-.3-.5-.6a.472.472,0,0,1,.442-.5.557.557,0,0,1,.058,0h1.8Z" fill="#fff"/>
        <path id="路径_552" data-name="路径 552" d="M198.964,206.92h-1.915l-.053-.026a.972.972,0,0,1-.638-.824.719.719,0,0,1,.677-.749h2.123v.134a.723.723,0,0,1,.5.643v.086a.7.7,0,0,1-.18.494.714.714,0,0,1-.5.242Zm-1.794-.5h1.738a.241.241,0,0,0,.195-.074.221.221,0,0,0,.056-.161c-.008-.179-.111-.266-.236-.266l-.265.017v-.116h-1.55a.245.245,0,0,0-.2.074.226.226,0,0,0-.056.161C196.858,206.222,197.058,206.357,197.17,206.42Z" fill="#fff"/>
      </g>
      <g id="路径_89" data-name="路径 89">
        <path id="路径_553" data-name="路径 553" d="M198.908,208.37a.472.472,0,0,1,.5.442.566.566,0,0,1,0,.058.534.534,0,0,1-.5.5h-1.8a.641.641,0,0,1-.5-.5.472.472,0,0,1,.442-.5h1.858Z" fill="#fff"/>
        <path id="路径_554" data-name="路径 554" d="M197.108,209.62a.9.9,0,0,1-.745-.7.727.727,0,0,1,.672-.8H198.9a.721.721,0,0,1,.757.677v.086a.79.79,0,0,1-.734.737Zm0-1a.232.232,0,0,0-.251.235.389.389,0,0,0,.3.27l1.75-.005a.285.285,0,0,0,.251-.266.238.238,0,0,0-.075-.179.2.2,0,0,0-.16-.055h-1.816Z" fill="#fff"/>
      </g>
      <g id="路径_90" data-name="路径 90">
        <path id="路径_555" data-name="路径 555" d="M198.908,211.17a.472.472,0,0,1,.5.442.566.566,0,0,1,0,.058.457.457,0,0,1-.5.4h-1.8a.5.5,0,0,1,0-1h1.8Z" fill="#fff"/>
        <path id="路径_556" data-name="路径 556" d="M198.952,212.322l-.068,0h-1.776a.75.75,0,0,1,0-1.5h2.05v.134a.723.723,0,0,1,.5.643v.086A.718.718,0,0,1,198.952,212.322Zm-1.844-1a.25.25,0,0,0,0,.5h1.8a.216.216,0,0,0,.252-.18.233.233,0,0,0-.237-.221l-.265.017v-.116Z" fill="#fff"/>
      </g>
      <g id="路径_91" data-name="路径 91">
        <path id="路径_557" data-name="路径 557" d="M202.108,218.07a.472.472,0,0,0-.442-.5.557.557,0,0,0-.058,0h-2.7a.472.472,0,0,0-.5.442.557.557,0,0,0,0,.058v4.1h-.8v-4.1a1.367,1.367,0,0,1,1.333-1.4h2.867a1.367,1.367,0,0,1,1.4,1.333c0,.023,0,.045,0,.067v4.1h-1.1Z" fill="#fff"/>
        <path id="路径_558" data-name="路径 558" d="M203.458,222.42h-1.6v-4.365a.22.22,0,0,0-.055-.161.217.217,0,0,0-.152-.074h-2.743a.225.225,0,0,0-.176.055.213.213,0,0,0-.074.152v4.393h-1.3v-4.35a1.617,1.617,0,0,1,1.577-1.65h2.873a1.619,1.619,0,0,1,1.65,1.577Zm-1.1-.5h.6v-3.85a1.11,1.11,0,0,0-1.144-1.15h-2.806a1.131,1.131,0,0,0-1.15,1.144v3.856h.3v-3.926a.716.716,0,0,1,.241-.494.727.727,0,0,1,.524-.179h2.761a.723.723,0,0,1,.673.757Z" fill="#fff"/>
      </g>
      <g id="路径_92" data-name="路径 92">
        <path id="路径_559" data-name="路径 559" d="M198.508,222.17h4.6v.5a.457.457,0,0,1-.5.4h-4.6a.472.472,0,0,1-.5-.442.566.566,0,0,1,0-.058v-.5h1Z" fill="#fff"/>
        <path id="路径_560" data-name="路径 560" d="M202.652,223.322q-.034,0-.069,0h-4.575a.721.721,0,0,1-.75-.676v-.824h1.5v.1h4.6v.75A.72.72,0,0,1,202.652,223.322Zm-.044-.5a.218.218,0,0,0,.252-.18v-.22h-4.6v-.1h-.5v.25a.242.242,0,0,0,.235.251Z" fill="#fff"/>
      </g>
      <g id="路径_93" data-name="路径 93">
        <path id="路径_561" data-name="路径 561" d="M195.508,201.27l10.1,1.5a1.4,1.4,0,0,1,1.2,1.4v5.3l-.4-.1a.6.6,0,0,0-.4.1.52.52,0,0,0-.2.4v-5.7a.665.665,0,0,0-.4-.5l-10-1.5h-.1a.366.366,0,0,0-.3.1c-.1.1-.2.2-.2.3v19.1a.472.472,0,0,0,.442.5.557.557,0,0,0,.058,0h2.3v.5a.472.472,0,0,0,.442.5.557.557,0,0,0,.058,0h-2.8a1.52,1.52,0,0,1-1.4-1.5v-19.1a1.232,1.232,0,0,1,.5-1A1.13,1.13,0,0,1,195.508,201.27Z" fill="#fff"/>
        <path id="路径_562" data-name="路径 562" d="M198.108,223.421h-2.8a1.764,1.764,0,0,1-1.65-1.748v-19.1a1.483,1.483,0,0,1,.6-1.2,1.347,1.347,0,0,1,1.3-.344l10.087,1.5a1.655,1.655,0,0,1,1.413,1.649v5.619l-.71-.178a.321.321,0,0,0-.2.064.265.265,0,0,0-.09.2l-.5-.005v-5.7a.417.417,0,0,0-.246-.269l-9.941-1.484-.063,0a.144.144,0,0,0-.127.031.85.85,0,0,0-.127.145l0,19.074a.234.234,0,0,0,.055.176.216.216,0,0,0,.153.074h2.592v.75a.227.227,0,0,0,.2.25h.048l.019.5Zm-2.894-21.94a.876.876,0,0,0-.627.264,1.013,1.013,0,0,0-.429.823v19.1a1.263,1.263,0,0,0,1.17,1.251h2.064a.727.727,0,0,1-.034-.265v-.235h-2.127a.721.721,0,0,1-.672-.765V202.57a.706.706,0,0,1,.271-.475.609.609,0,0,1,.51-.173l.069,0,10.037,1.5a.918.918,0,0,1,.609.7l0,5.041a.809.809,0,0,1,.377-.046l.123.03V204.17a1.153,1.153,0,0,0-.986-1.152l-10.13-1.507A.881.881,0,0,0,195.214,201.481Z" fill="#fff"/>
      </g>
    </g>
  </g>
</svg>
