<svg xmlns="http://www.w3.org/2000/svg" width="22.001" height="20.168" viewBox="0 0 22.001 20.168">
  <g id="组_228" data-name="组 228" transform="translate(-155.562 -218.612)">
    <g id="coupon">
      <g id="组_5" data-name="组 5">
        <g id="组_4" data-name="组 4">
          <g id="路径_10" data-name="路径 10">
            <path id="路径_579" data-name="路径 579" d="M177.1,229.611a.459.459,0,0,0,.458-.458h0v-2.291a1.835,1.835,0,0,0-1.833-1.833h-3.45a2.228,2.228,0,0,1-.217-.917,2.288,2.288,0,0,1,1.2-2,.459.459,0,0,0,.182-.624l0-.006-1.117-1.951a1.812,1.812,0,0,0-2.473-.68l-.016.009-13.364,7.78a1.84,1.84,0,0,0-.666,2.5l1.158,2.018a.46.46,0,0,0,.627.17l.008,0a2.25,2.25,0,0,1,1.173-.333,1.678,1.678,0,1,1,0,3.208.459.459,0,0,0-.458.458h0v2.292a1.835,1.835,0,0,0,1.833,1.833H175.73a1.834,1.834,0,0,0,1.833-1.836h0v-2.291a.458.458,0,0,0-.458-.458h0a2.292,2.292,0,0,1,0-4.583Zm-6.806-9.962a.879.879,0,0,1,.681-.092.894.894,0,0,1,.551.426l.9,1.574a3.2,3.2,0,0,0-1.286,2.554,3.168,3.168,0,0,0,.142.917H161.063Zm-11.528,10.42a3.14,3.14,0,0,0-1.231.254l-.938-1.64a.922.922,0,0,1,.331-1.252l1.4-.818a1.843,1.843,0,0,0-.025.248v2.292a.459.459,0,0,0,.458.458h0a2.281,2.281,0,0,1,1.972,1.143A3.177,3.177,0,0,0,158.771,230.069ZM173.9,231.9a3.214,3.214,0,0,0,2.75,3.176v1.866a.918.918,0,0,1-.917.917h-11v-.8a.459.459,0,1,0-.917,0v.8h-3.666a.919.919,0,0,1-.917-.917v-1.866a3.209,3.209,0,0,0,0-6.351v-1.866a.918.918,0,0,1,.917-.917h3.667v1.031a.458.458,0,0,0,.917,0v-1.031h11a.916.916,0,0,1,.917.917v1.866A3.214,3.214,0,0,0,173.9,231.9Z" fill="#fff"/>
          </g>
          <g id="路径_11" data-name="路径 11">
            <path id="路径_580" data-name="路径 580" d="M164.27,229.267a.458.458,0,0,0-.458.458h0v.917a.459.459,0,0,0,.917,0v-.917a.458.458,0,0,0-.458-.458Z" fill="#fff"/>
          </g>
          <g id="路径_12" data-name="路径 12">
            <path id="路径_581" data-name="路径 581" d="M164.27,232.933a.459.459,0,0,0-.458.458h0v.917a.459.459,0,1,0,.917,0h0v-.917a.459.459,0,0,0-.458-.458Z" fill="#fff"/>
          </g>
          <g id="路径_13" data-name="路径 13">
            <path id="路径_582" data-name="路径 582" d="M172.8,227.869a.459.459,0,0,0-.641.092l-5.5,7.333a.458.458,0,0,0,.733.551l5.5-7.334a.458.458,0,0,0-.089-.641Z" fill="#fff"/>
          </g>
          <g id="路径_14" data-name="路径 14">
            <path id="路径_583" data-name="路径 583" d="M167.938,231.444c.771,0,1.375-.8,1.375-1.833s-.6-1.833-1.375-1.833-1.375.8-1.375,1.833S167.167,231.444,167.938,231.444Zm0-2.75c.187,0,.458.356.458.917s-.271.917-.458.917-.458-.357-.458-.917S167.751,228.694,167.938,228.694Z" fill="#fff"/>
          </g>
          <g id="路径_15" data-name="路径 15">
            <path id="路径_584" data-name="路径 584" d="M171.6,232.361c-.771,0-1.375.805-1.375,1.833s.6,1.833,1.375,1.833,1.375-.8,1.375-1.833S172.375,232.361,171.6,232.361Zm0,2.75c-.187,0-.458-.357-.458-.917s.271-.917.458-.917.458.357.458.917S171.791,235.111,171.6,235.111Z" fill="#fff"/>
          </g>
        </g>
      </g>
    </g>
  </g>
</svg>
