<svg xmlns="http://www.w3.org/2000/svg" width="18.8" height="21.2" viewBox="0 0 18.8 21.2">
  <g id="customer-white" transform="translate(-1.7 0.1)">
    <g id="组_14" data-name="组 14" transform="translate(1.8 0)">
      <path id="路径_38" data-name="路径 38" d="M10.9,11.9H11a4.158,4.158,0,0,0,3.2-1.4c1.8-2,1.5-5.4,1.4-5.7A4.631,4.631,0,0,0,13.4.7,3.612,3.612,0,0,0,11,0h0A5.852,5.852,0,0,0,8.5.6c-1,.5-2.1,1.7-2.2,4.2,0,.3-.3,3.7,1.4,5.7A4.529,4.529,0,0,0,10.9,11.9Zm-3.4-7h0C7.7,1.6,10,1.2,11,1.2h0c1.2,0,3.3.5,3.5,3.6h0s.3,3.1-1.1,4.8a3.083,3.083,0,0,1-2.3,1h0a2.644,2.644,0,0,1-2.3-1C7.2,8,7.5,4.9,7.5,4.9Z" transform="translate(-1.8 0)" fill="#f1f3f5" stroke="#f1f3f5" stroke-width="0.2"/>
      <path id="路径_39" data-name="路径 39" d="M20.4,17.5h0v-.1c0-.9-.1-3-2.1-3.7h0A12.4,12.4,0,0,1,14.5,12a.652.652,0,1,0-.7,1.1A13.777,13.777,0,0,0,18,15c1.1.4,1.2,1.5,1.2,2.6v.1a6.6,6.6,0,0,1-.1,1.4,16.546,16.546,0,0,1-8,1.9,16.546,16.546,0,0,1-8-1.9A6.6,6.6,0,0,1,3,17.7v-.1c0-1,.2-2.2,1.2-2.6a13.777,13.777,0,0,0,4.2-1.9.765.765,0,0,0,.2-.9.765.765,0,0,0-.9-.2,12.4,12.4,0,0,1-3.8,1.7h0c-2,.7-2,2.8-2.1,3.7v.1h0A9.032,9.032,0,0,0,2,19.6c0,.1.1.2.2.3A17.983,17.983,0,0,0,11,22a16.824,16.824,0,0,0,8.9-2.2c.1-.1.2-.2.2-.3A5.638,5.638,0,0,0,20.4,17.5Z" transform="translate(-1.8 -1)" fill="#f1f3f5" stroke="#f1f3f5" stroke-width="0.2"/>
    </g>
  </g>
</svg>
