<?xml version="1.0" standalone="no" ?>
<!DOCTYPE svg PUBLIC "-//W3C//DTD SVG 1.1//EN" "http://www.w3.org/Graphics/SVG/1.1/DTD/svg11.dtd">
<svg t="1616467038721" class="icon" viewBox="0 0 1024 1024" version="1.1" xmlns="http://www.w3.org/2000/svg" p-id="1261" xmlns:xlink="http://www.w3.org/1999/xlink" width="200" height="200">
  <defs>
    <style type="text/css"></style>
  </defs>
  <path d="M502.654506 553.816418h4.650402a193.224218 193.224218 0 0 0 148.812876-65.105633c83.707243-93.008047 69.756036-251.121728 65.105633-265.072935a215.406638 215.406638 0 0 0-102.308852-190.666497 168.298062 168.298062 0 0 0-111.609657-32.552817 273.397155 273.397155 0 0 0-116.260059 27.902414c-46.504024 23.252012-97.65845 79.05684-102.308852 195.3169 0 13.951207-13.951207 172.064888 65.105633 265.072935a210.570219 210.570219 0 0 0 148.812876 65.105633z m-158.113681-325.528166c9.300805-153.463278 116.260059-172.064888 162.764083-172.064887 55.804828 0 153.463278 23.252012 162.764083 167.414485s13.951207 144.162473-51.154426 223.219314a143.139385 143.139385 0 0 1-106.959254 46.504023 122.910135 122.910135 0 0 1-106.959255-46.504023c-74.406438-74.406438-60.455231-218.568911-60.455231-218.568912z" p-id="1262"></path>
  <path d="M944.442731 814.238951v-4.650403c0-41.853621-4.650402-139.512071-97.65845-172.064887a576.138349 576.138349 0 0 1-176.71529-79.056841 30.320623 30.320623 0 0 0-33.343385 50.689386l0.790569 0.465041a639.011789 639.011789 0 0 0 195.316899 88.357645c51.154426 18.601609 55.804828 69.756036 55.804829 120.910461v4.650402a305.298916 305.298916 0 0 1-4.650403 65.105634 827.399589 827.399589 0 0 1-744.064379 0 308.368181 308.368181 0 0 1-4.650402-65.105634v-4.650402c0-46.504024 9.300805-102.308852 55.804828-120.910461a639.058294 639.058294 0 0 0 195.3169-88.357645 30.320623 30.320623 0 0 0-32.552817-51.154427 576.138349 576.138349 0 0 1-176.71529 79.056841c-93.008047 32.552817-93.008047 130.211266-97.65845 172.064887v4.650403a419.791822 419.791822 0 0 0 9.300805 97.658449c0 4.650402 4.650402 9.300805 9.300805 13.951208a835.677306 835.677306 0 0 0 409.235408 97.658449 781.918654 781.918654 0 0 0 413.885811-102.308852c4.650402-4.650402 9.300805-9.300805 9.300805-13.951207a262.143182 262.143182 0 0 0 13.951207-93.008047z" p-id="1263"></path>
</svg>