<?xml version="1.0" standalone="no"?><!DOCTYPE svg PUBLIC "-//W3C//DTD SVG 1.1//EN" "http://www.w3.org/Graphics/SVG/1.1/DTD/svg11.dtd"><svg t="1627876328443" class="icon" viewBox="0 0 1293 1024" version="1.1" xmlns="http://www.w3.org/2000/svg" p-id="4296" xmlns:xlink="http://www.w3.org/1999/xlink" width="252.5390625" height="200"><defs><style type="text/css"></style></defs><path d="M1094.064464 193.067307a53.17885 53.17885 0 0 0-64.352843-5.850259c-76.053361 52.652327-450.469906 310.063702-491.421716 351.015511a148.304053 148.304053 0 0 0 0 210.609307 157.254949 157.254949 0 0 0 105.304653 46.802068 146.256463 146.256463 0 0 0 105.304654-46.802068c40.95181-40.95181 298.363185-415.368355 351.015511-491.421716a52.652327 52.652327 0 0 0-5.850259-64.352843z m-415.368355 485.571457a49.668695 49.668695 0 0 1-70.203102-70.203103 2960.230811 2960.230811 0 0 1 257.411375-181.358014c-93.604136 128.705687-169.657497 234.010341-187.208273 251.561117z" p-id="4297"></path><path d="M234.076462 877.547553l-64.352844 29.251293A522.018568 522.018568 0 0 1 99.520516 643.537213a515.29077 515.29077 0 0 1 35.101551-193.058532l70.203102 35.101552c5.850259 5.850259 11.700517 5.850259 23.401034 5.850258a59.672637 59.672637 0 0 0 46.802069-29.251293 49.200674 49.200674 0 0 0-23.401035-64.352843l-70.203102-40.95181a555.774559 555.774559 0 0 1 409.518097-257.411375V175.516531a52.652327 52.652327 0 1 0 105.304653 0V99.46317a651.484789 651.484789 0 0 1 175.507756 46.802068 48.440141 48.440141 0 0 0 40.951809-87.753877 665.525409 665.525409 0 0 0-263.261633-58.502586 641.656354 641.656354 0 0 0-456.320165 187.208273A614.569657 614.569657 0 0 0 0.066121 643.537213a600.178022 600.178022 0 0 0 111.154912 356.865769 59.204616 59.204616 0 0 0 40.95181 23.401034 35.101551 35.101551 0 0 0 23.401034-5.850258l105.304653-52.652327a49.200674 49.200674 0 0 0 23.401034-64.352844c-17.550776-29.251293-46.802068-40.95181-70.203102-23.401034z" p-id="4298"></path><path d="M1228.62041 374.425321a48.440141 48.440141 0 0 0-87.753878 40.951809 582.334733 582.334733 0 0 1 46.802069 222.309824 522.018568 522.018568 0 0 1-70.203103 263.261633l-64.352843-29.251292a48.440141 48.440141 0 0 0-40.95181 87.753878l105.304653 52.652326c5.850259 5.850259 11.700517 5.850259 23.401034 5.850259a39.196732 39.196732 0 0 0 40.95181-23.401034 643.528437 643.528437 0 0 0 111.154912-356.86577A724.027994 724.027994 0 0 0 1228.62041 374.425321z" p-id="4299"></path></svg>