<svg id="dashboard-white" xmlns="http://www.w3.org/2000/svg" width="22.1" height="17.5" viewBox="0 0 22.1 17.5">
  <g id="组_2" data-name="组 2">
    <g id="组_1" data-name="组 1">
      <path id="路径_3" data-name="路径 3" d="M18.7,5.6a.909.909,0,0,0-1.1-.1c-1.3.9-7.7,5.3-8.4,6a2.535,2.535,0,0,0,0,3.6,2.688,2.688,0,0,0,1.8.8,2.5,2.5,0,0,0,1.8-.8c.7-.7,5.1-7.1,6-8.4A.9.9,0,0,0,18.7,5.6Zm-7.1,8.3a.849.849,0,0,1-1.2-1.2,50.6,50.6,0,0,1,4.4-3.1C13.2,11.8,11.9,13.6,11.6,13.9Z" transform="translate(0 -2.3)" fill="#fff"/>
      <path id="路径_4" data-name="路径 4" d="M4,17.3l-1.1.5a8.923,8.923,0,0,1-1.2-4.5A8.808,8.808,0,0,1,2.3,10l1.2.6c.1.1.2.1.4.1a1.02,1.02,0,0,0,.8-.5.841.841,0,0,0-.4-1.1L3.1,8.4a9.5,9.5,0,0,1,7-4.4V5.3a.9.9,0,1,0,1.8,0V4a11.136,11.136,0,0,1,3,.8.828.828,0,0,0,.7-1.5,11.376,11.376,0,0,0-4.5-1A10.968,10.968,0,0,0,3.3,5.5,10.505,10.505,0,0,0,0,13.3a10.259,10.259,0,0,0,1.9,6.1,1.012,1.012,0,0,0,.7.4.6.6,0,0,0,.4-.1l1.8-.9a.841.841,0,0,0,.4-1.1C4.9,17.2,4.4,17,4,17.3Z" transform="translate(0 -2.3)" fill="#fff"/>
      <path id="路径_5" data-name="路径 5" d="M21,8.7a.828.828,0,0,0-1.5.7,9.954,9.954,0,0,1,.8,3.8,8.923,8.923,0,0,1-1.2,4.5L18,17.2a.828.828,0,0,0-.7,1.5l1.8.9c.1.1.2.1.4.1a.67.67,0,0,0,.7-.4,11,11,0,0,0,1.9-6.1A12.376,12.376,0,0,0,21,8.7Z" transform="translate(0 -2.3)" fill="#fff"/>
    </g>
  </g>
</svg>
