<svg xmlns="http://www.w3.org/2000/svg" width="15.21" height="19.019" viewBox="0 0 15.21 19.019">
  <g id="btn" transform="translate(-35.8 -137)">
    <g id="icon" transform="translate(0 -1)">
      <g id="store-management-white" transform="translate(33.8 138.2)">
        <path id="路径_42" data-name="路径 42" d="M10.846,19.2a.848.848,0,0,0-.846.846.91.91,0,0,0,.846.846.846.846,0,0,0,0-1.693Zm0,1.1a.339.339,0,1,1,.339-.339A.364.364,0,0,1,10.846,20.3Z" transform="translate(-1.199 -2.951)" />
        <path id="Path_42_-_Outline" data-name="Path 42 - Outline" d="M10.846,19.15a.9.9,0,0,1,0,1.793.957.957,0,0,1-.9-.9A.9.9,0,0,1,10.846,19.15Zm0,1.693a.8.8,0,1,0-.8-.8A.862.862,0,0,0,10.846,20.843Zm0-1.269a.389.389,0,1,1-.389.389A.415.415,0,0,1,10.846,19.573Zm0,.677a.289.289,0,1,0-.289-.289A.312.312,0,0,0,10.846,20.25Z" transform="translate(-1.199 -2.951)" />
        <path id="Path_42_-_Outline-2" data-name="Path 42 - Outline" d="M10.846,19.05a1,1,0,1,1,0,1.993,1.064,1.064,0,0,1-1-1A1,1,0,0,1,10.846,19.05Zm0,1.693a.7.7,0,1,0-.7-.7A.765.765,0,0,0,10.846,20.743Zm0-1.269a.489.489,0,1,1-.489.489A.515.515,0,0,1,10.846,19.473Zm0,.677a.189.189,0,1,0-.189-.189A.217.217,0,0,0,10.846,20.15Z" transform="translate(-1.199 -2.951)" />
        <path id="Path_42_-_Outline_-_Outline" data-name="Path 42 - Outline - Outline" d="M10.846,19a1.046,1.046,0,0,1,0,2.093A1.117,1.117,0,0,1,9.8,20.046,1.049,1.049,0,0,1,10.846,19Zm0,1.993a.946.946,0,1,0-.946-.946A1.011,1.011,0,0,0,10.846,20.993Zm0-1.693a.746.746,0,1,1,0,1.493.82.82,0,0,1-.746-.746A.748.748,0,0,1,10.846,19.3Zm0,1.393a.646.646,0,1,0-.646-.646A.721.721,0,0,0,10.846,20.693Zm0-1.269a.539.539,0,1,1-.539.539A.567.567,0,0,1,10.846,19.423Zm0,.977a.439.439,0,1,0-.439-.439A.462.462,0,0,0,10.846,20.4Zm0-.677a.239.239,0,1,1-.239.239A.266.266,0,0,1,10.846,19.723Zm0,.377a.139.139,0,1,0-.139-.139A.171.171,0,0,0,10.846,20.1Z" transform="translate(-1.199 -2.951)" />
        <path id="路径_43" data-name="路径 43" d="M9.954,2.008h1.693a.224.224,0,0,0,.254-.254.224.224,0,0,0-.254-.254H9.954a.224.224,0,0,0-.254.254A.224.224,0,0,0,9.954,2.008Z" transform="translate(-1.153 -0.231)" />
        <path id="Path_43_-_Outline" data-name="Path 43 - Outline" d="M11.647,2.058H9.954a.274.274,0,0,1-.3-.3.274.274,0,0,1,.3-.3h1.693a.274.274,0,0,1,.3.3A.274.274,0,0,1,11.647,2.058ZM9.954,1.55c-.141,0-.2.063-.2.2s.063.2.2.2h1.693c.141,0,.2-.063.2-.2s-.063-.2-.2-.2Z" transform="translate(-1.153 -0.231)" />
        <path id="Path_43_-_Outline-2" data-name="Path 43 - Outline" d="M11.647,2.158H9.954a.371.371,0,0,1-.4-.4.371.371,0,0,1,.4-.4h1.693a.371.371,0,0,1,.4.4A.371.371,0,0,1,11.647,2.158ZM9.954,1.65c-.086,0-.1.017-.1.1s.017.1.1.1h1.693c.086,0,.1-.017.1-.1s-.017-.1-.1-.1Z" transform="translate(-1.153 -0.231)" />
        <path id="Path_43_-_Outline_-_Outline" data-name="Path 43 - Outline - Outline" d="M11.647,2.208H9.954A.421.421,0,0,1,9.5,1.754.421.421,0,0,1,9.954,1.3h1.693a.421.421,0,0,1,.454.454A.421.421,0,0,1,11.647,2.208ZM9.954,1.4a.322.322,0,0,0-.354.354.322.322,0,0,0,.354.354h1.693A.322.322,0,0,0,12,1.754a.322.322,0,0,0-.354-.354Zm1.693.508H9.954c-.114,0-.154-.04-.154-.154s.04-.154.154-.154h1.693c.114,0,.154.04.154.154S11.76,1.908,11.647,1.908ZM9.954,1.7a.115.115,0,0,0-.05.005.146.146,0,0,0,0,.049.115.115,0,0,0,.005.049.146.146,0,0,0,.049,0h1.693A.115.115,0,0,0,11.7,1.8a.146.146,0,0,0,0-.049A.115.115,0,0,0,11.7,1.7a.146.146,0,0,0-.049,0Z" transform="translate(-1.153 -0.231)" />
        <path id="路径_44" data-name="路径 44" d="M15.525,11.9a.224.224,0,0,0-.254.254v5.162H4.608V12.154a.224.224,0,0,0-.254-.254.224.224,0,0,0-.254.254v6.77a1.517,1.517,0,0,0,1.523,1.523H14.34a1.517,1.517,0,0,0,1.523-1.523v-6.77C15.779,11.985,15.694,11.9,15.525,11.9Zm-1.269,8.04H5.623a.939.939,0,0,1-.931-.931v-1.1H15.271v1.016A1.029,1.029,0,0,1,14.256,19.94Z" transform="translate(-0.292 -1.829)" />
        <path id="Path_44_-_Outline" data-name="Path 44 - Outline" d="M4.354,11.85a.274.274,0,0,1,.3.3v5.112H15.221V12.154a.274.274,0,0,1,.3-.3.406.406,0,0,1,.383.282l.005.011v6.782A1.575,1.575,0,0,1,14.34,20.5H5.623A1.575,1.575,0,0,1,4.05,18.924v-6.77A.274.274,0,0,1,4.354,11.85Zm10.967,5.516H4.558V12.154c0-.141-.063-.2-.2-.2s-.2.063-.2.2v6.77A1.475,1.475,0,0,0,5.623,20.4H14.34a1.475,1.475,0,0,0,1.473-1.473V12.166c-.082-.161-.156-.216-.289-.216s-.2.063-.2.2Zm-10.679.492H15.321v1.066a1.081,1.081,0,0,1-1.066,1.066H5.623a.994.994,0,0,1-.981-.981Zm10.579.1H4.742v1.05a.893.893,0,0,0,.881.881h8.632a.979.979,0,0,0,.966-.966Z" transform="translate(-0.292 -1.829)" />
        <path id="Path_44_-_Outline-2" data-name="Path 44 - Outline" d="M4.354,11.75a.371.371,0,0,1,.4.4v5.012H15.121V12.154a.371.371,0,0,1,.4-.4.506.506,0,0,1,.473.337l.016.032v6.806A1.675,1.675,0,0,1,14.34,20.6H5.623A1.675,1.675,0,0,1,3.95,18.924v-6.77A.371.371,0,0,1,4.354,11.75Zm11.067,5.716H4.458V12.154c0-.086-.017-.1-.1-.1s-.1.017-.1.1v6.77A1.375,1.375,0,0,0,5.623,20.3H14.34a1.375,1.375,0,0,0,1.373-1.373V12.19c-.068-.126-.113-.14-.189-.14s-.1.017-.1.1Zm-10.879.292H15.421v1.166a1.182,1.182,0,0,1-1.166,1.166H5.623a1.1,1.1,0,0,1-1.081-1.081Zm10.579.3H4.842v.95a.791.791,0,0,0,.781.781h8.632a.878.878,0,0,0,.866-.866Z" transform="translate(-0.292 -1.829)" />
        <path id="Path_44_-_Outline_-_Outline" data-name="Path 44 - Outline - Outline" d="M4.354,11.7a.421.421,0,0,1,.454.454v4.962H15.071V12.154a.421.421,0,0,1,.454-.454.557.557,0,0,1,.517.364l.021.042v6.818a1.725,1.725,0,0,1-1.723,1.723H5.623A1.725,1.725,0,0,1,3.9,18.924v-6.77A.421.421,0,0,1,4.354,11.7Zm10.817,5.516H4.708V12.154a.322.322,0,0,0-.354-.354A.322.322,0,0,0,4,12.154v6.77a1.625,1.625,0,0,0,1.623,1.623H14.34a1.625,1.625,0,0,0,1.623-1.623V12.13l-.011-.021a.456.456,0,0,0-.428-.309.322.322,0,0,0-.354.354ZM4.354,12c.114,0,.154.04.154.154v5.262H15.371V12.154c0-.114.04-.154.154-.154.095,0,.156.026.233.167l.006.011v6.747a1.425,1.425,0,0,1-1.423,1.423H5.623A1.425,1.425,0,0,1,4.2,18.924v-6.77C4.2,12.04,4.24,12,4.354,12Zm11.117,5.516H4.408V12.154A.115.115,0,0,0,4.4,12.1a.146.146,0,0,0-.049,0,.115.115,0,0,0-.05.005.146.146,0,0,0,0,.049v6.77a1.325,1.325,0,0,0,1.323,1.323H14.34a1.325,1.325,0,0,0,1.323-1.323V12.2c-.058-.1-.089-.1-.139-.1a.115.115,0,0,0-.05.005.146.146,0,0,0,0,.049Zm-10.979.192H15.471v1.216a1.233,1.233,0,0,1-1.216,1.216H5.623a1.146,1.146,0,0,1-1.131-1.131Zm10.879.1H4.592v1.2A1.045,1.045,0,0,0,5.623,20.04h8.632a1.131,1.131,0,0,0,1.116-1.116Zm-10.579.2H15.171v.916a.929.929,0,0,1-.916.916H5.623a.842.842,0,0,1-.831-.831Zm10.279.1H4.892v.9a.741.741,0,0,0,.731.731h8.632a.827.827,0,0,0,.816-.816Z" transform="translate(-0.292 -1.829)" />
        <path id="路径_45" data-name="路径 45" d="M17.01,4.909h0c0-.085,0-.085-.085-.169L15.487,2.708V1.523A1.517,1.517,0,0,0,13.964,0H5.331A1.517,1.517,0,0,0,3.808,1.523V2.708L2.285,4.739h0a.3.3,0,0,0-.085.169h0V6.093A1.732,1.732,0,0,0,3.723,7.786v3.3a.224.224,0,0,0,.254.254.224.224,0,0,0,.254-.254V7.7a1.852,1.852,0,0,0,1.185-.677,1.663,1.663,0,0,0,1.439.762,1.6,1.6,0,0,0,1.354-.762,1.663,1.663,0,0,0,1.439.762,1.885,1.885,0,0,0,1.439-.762,1.663,1.663,0,0,0,1.439.762,1.885,1.885,0,0,0,1.439-.762,2.31,2.31,0,0,0,1.016.762v2.962a.254.254,0,1,0,.508,0V7.786A1.732,1.732,0,0,0,17.01,6.093V4.909Zm-2.962-.254-.169-.423a.338.338,0,0,0-.339-.169c-.085,0-.169.254-.169.339l.085.254H11.34l-.254-1.523h1.693l.169.254a.338.338,0,0,0,.339.169.338.338,0,0,0,.169-.339l-.085-.085h1.693l1.1,1.523ZM8.8,3.131h1.693l.254,1.523h-2.2ZM5.331.508h8.717a.939.939,0,0,1,.931.931v1.1H4.316V1.523A1.029,1.029,0,0,1,5.331.508Zm-1.1,2.624H5.924l-.085.085c-.085.169,0,.339.169.339h.085c.085,0,.169,0,.254-.169l.169-.339H8.293L7.955,4.655H5.839L5.924,4.4c.085-.169,0-.339-.169-.339-.169-.085-.339,0-.339.169l-.254.423H3.046ZM3.977,7.194A1.21,1.21,0,0,1,2.792,6.009V5.162H5.077v.846A1.14,1.14,0,0,1,3.977,7.194Zm2.793,0A1.21,1.21,0,0,1,5.585,6.009V5.162h2.37v.846A1.157,1.157,0,0,1,6.77,7.194Zm2.877,0A1.21,1.21,0,0,1,8.463,6.009V5.162h2.285v.846A1.09,1.09,0,0,1,9.648,7.194Zm2.877,0A1.21,1.21,0,0,1,11.34,6.009V5.162h2.285v.846A1.14,1.14,0,0,1,12.525,7.194Zm3.978-1.1a1.21,1.21,0,0,1-1.185,1.185,1.157,1.157,0,0,1-1.185-1.185V5.247h2.285v.846Z" />
        <path id="Path_45_-_Outline" data-name="Path 45 - Outline" d="M5.331-.05h8.632a1.575,1.575,0,0,1,1.573,1.573V2.692l1.427,2.015c.088.088.1.1.1.2V6.093a1.787,1.787,0,0,1-1.523,1.737v2.917a.3.3,0,1,1-.608,0V7.82a2.372,2.372,0,0,1-.967-.715,1.912,1.912,0,0,1-1.438.731,1.7,1.7,0,0,1-1.442-.729,1.911,1.911,0,0,1-1.435.729,1.7,1.7,0,0,1-1.437-.721,1.661,1.661,0,0,1-1.356.721,1.7,1.7,0,0,1-1.441-.728,1.921,1.921,0,0,1-1.132.635v3.343a.274.274,0,0,1-.3.3.274.274,0,0,1-.3-.3V7.831A1.787,1.787,0,0,1,2.15,6.093V4.909a.332.332,0,0,1,.1-.2L3.758,2.692V1.523A1.575,1.575,0,0,1,5.331-.05Zm9.9,11c.141,0,.2-.063.2-.2V7.741l.045,0A1.683,1.683,0,0,0,16.96,6.093V4.909c0-.064,0-.064-.07-.134l-.005-.006L15.437,2.724v-1.2A1.475,1.475,0,0,0,13.964.05H5.331A1.475,1.475,0,0,0,3.858,1.523v1.2L2.32,4.775a.24.24,0,0,0-.07.134V6.093A1.683,1.683,0,0,0,3.728,7.736l.045,0v3.346c0,.141.063.2.2.2s.2-.063.2-.2V7.659l.042-.007a1.808,1.808,0,0,0,1.153-.658l.042-.057L5.458,7a1.609,1.609,0,0,0,1.4.739A1.555,1.555,0,0,0,8.166,7l.041-.068L8.25,7a1.609,1.609,0,0,0,1.4.739,1.83,1.83,0,0,0,1.4-.743l.043-.053L11.128,7a1.609,1.609,0,0,0,1.4.739,1.83,1.83,0,0,0,1.4-.743l.04-.05L14,6.994A2.272,2.272,0,0,0,15,7.74l.031.013v3C15.029,10.889,15.092,10.952,15.233,10.952ZM5.331.458h8.717a.994.994,0,0,1,.981.981v1.15H4.266V1.523A1.081,1.081,0,0,1,5.331.458Zm9.6,2.031V1.439a.893.893,0,0,0-.881-.881H5.331a.979.979,0,0,0-.966.966v.966ZM6.485,3h1.87L8,4.7H5.77l.109-.326a.206.206,0,0,0,0-.2.145.145,0,0,0-.129-.067H5.743l-.011-.005a.25.25,0,0,0-.11-.028.146.146,0,0,0-.156.152v.014L5.19,4.7H2.944L4.207,3.081H6.044l-.164.164a.2.2,0,0,0,0,.192.145.145,0,0,0,.129.067h.085c.08,0,.138,0,.209-.142Zm1.747.1H6.547l-.155.311a.285.285,0,0,1-.3.2H6.008a.244.244,0,0,1-.214-.114.3.3,0,0,1,0-.3L5.8,3.181H4.256L3.149,4.6H5.134l.233-.388a.245.245,0,0,1,.255-.238.347.347,0,0,1,.145.033.243.243,0,0,1,.2.114.3.3,0,0,1,0,.294L5.909,4.6H7.914Zm.527-.015h1.777L10.807,4.7H8.488Zm1.693.1H8.844L8.606,4.6h2.082Zm.576-.1h1.778l.187.282a.278.278,0,0,0,.282.142.276.276,0,0,0,.131-.268l-.155-.155h1.839L16.2,4.625l-.039.028V4.7H14.014l-.182-.455a.285.285,0,0,0-.292-.138.5.5,0,0,0-.119.281l.1.311H11.3Zm1.725.1H11.145L11.383,4.6h2l-.065-.2V4.4c0-.08.082-.389.219-.389a.388.388,0,0,1,.383.2l.158.4h1.984L15.038,3.181H13.492l.014.014v.021a.388.388,0,0,1-.2.383L13.3,3.6h-.012A.389.389,0,0,1,12.9,3.41ZM2.742,5.112H5.127v.9a1.2,1.2,0,0,1-1.15,1.235A1.268,1.268,0,0,1,2.742,6.009Zm2.285.1H2.842v.8A1.166,1.166,0,0,0,3.977,7.144a1.1,1.1,0,0,0,1.05-1.135Zm.508-.1H8v.9A1.208,1.208,0,0,1,6.77,7.244,1.268,1.268,0,0,1,5.535,6.009Zm2.37.1H5.635v.8A1.166,1.166,0,0,0,6.77,7.144,1.11,1.11,0,0,0,7.9,6.009Zm.508-.1H10.8v.893a1.051,1.051,0,0,1-.261.832,1.2,1.2,0,0,1-.889.406A1.268,1.268,0,0,1,8.413,6.009Zm2.285.1H8.513v.8A1.166,1.166,0,0,0,9.648,7.144a1.1,1.1,0,0,0,.814-.372.952.952,0,0,0,.237-.757v-.8Zm.592-.1h2.385v.9a1.2,1.2,0,0,1-1.15,1.235A1.268,1.268,0,0,1,11.29,6.009Zm2.285.1H11.39v.8a1.166,1.166,0,0,0,1.135,1.135,1.1,1.1,0,0,0,1.05-1.135Zm.508-.015h2.385v.846h.085v.05a1.268,1.268,0,0,1-1.235,1.235,1.208,1.208,0,0,1-1.235-1.235Zm2.285.1H14.183v.8a1.11,1.11,0,0,0,1.135,1.135,1.167,1.167,0,0,0,1.133-1.085h-.083Z" />
        <path id="Path_45_-_Outline-2" data-name="Path 45 - Outline" d="M5.331-.15h8.632a1.675,1.675,0,0,1,1.673,1.673V2.66l1.4,1.982a.3.3,0,0,1,.12.266V6.093a1.893,1.893,0,0,1-1.523,1.823v2.832a.4.4,0,1,1-.808,0V7.886a2.475,2.475,0,0,1-.869-.628,1.981,1.981,0,0,1-1.435.678,1.821,1.821,0,0,1-1.448-.672,1.979,1.979,0,0,1-1.43.672A1.821,1.821,0,0,1,8.213,7.28a1.767,1.767,0,0,1-1.358.656,1.821,1.821,0,0,1-1.447-.671,2.042,2.042,0,0,1-1.027.56v3.262a.371.371,0,0,1-.4.4.371.371,0,0,1-.4-.4V7.916A1.893,1.893,0,0,1,2.05,6.093V4.909a.423.423,0,0,1,.12-.267L3.658,2.658V1.523A1.675,1.675,0,0,1,5.331-.15ZM16.861,4.887l-.041-.042L16.8,4.826l-1.466-2.07V1.523A1.375,1.375,0,0,0,13.964.15H5.331A1.375,1.375,0,0,0,3.958,1.523V2.758L2.391,4.845a.177.177,0,0,0-.041.065V6.093A1.581,1.581,0,0,0,3.738,7.637l.135.014v3.436c0,.086.017.1.1.1s.1-.017.1-.1V7.574l.125-.021A1.708,1.708,0,0,0,5.3,6.934l.127-.17.118.176a1.513,1.513,0,0,0,1.314.695A1.453,1.453,0,0,0,8.08,6.947l.122-.2.131.2a1.513,1.513,0,0,0,1.314.695,1.732,1.732,0,0,0,1.322-.705l.128-.16.114.171a1.513,1.513,0,0,0,1.314.695,1.732,1.732,0,0,0,1.322-.705l.121-.151.116.155a2.173,2.173,0,0,0,.951.712l.094.038v3.064c0,.086.017.1.1.1s.1-.017.1-.1V7.65l.135-.014A1.581,1.581,0,0,0,16.86,6.093V4.909C16.86,4.9,16.861,4.893,16.861,4.887ZM5.331.358h8.717a1.1,1.1,0,0,1,1.081,1.081v1.25H4.166V1.523A1.182,1.182,0,0,1,5.331.358Zm9.5,2.031v-.95a.791.791,0,0,0-.781-.781H5.331a.878.878,0,0,0-.866.866v.866ZM6.423,2.9H8.478L8.077,4.8H5.631l.159-.471a.11.11,0,0,0,.009-.1c0-.005-.012-.019-.044-.019H5.719L5.687,4.2a.15.15,0,0,0-.066-.017c-.056,0-.056.038-.056.052v.042L5.247,4.8H2.74L4.158,2.981H6.286L5.965,3.3a.1.1,0,0,0,0,.083c0,.005.012.019.044.019h.085c.065,0,.077,0,.12-.086Zm1.685.3h-1.5l-.128.256a.383.383,0,0,1-.388.252H6.008a.342.342,0,0,1-.3-.162.378.378,0,0,1-.048-.262H4.3L3.353,4.5H5.077l.192-.319a.346.346,0,0,1,.353-.306.443.443,0,0,1,.169.035.339.339,0,0,1,.263.16.4.4,0,0,1,.01.384L6.047,4.5H7.833Zm.566-.215h1.947l.3,1.823H8.37Zm1.693.3H8.928L8.724,4.5h1.846Zm.542-.3h1.95l.223.337c.032.063.082.082.164.086a.162.162,0,0,0,.057-.128l-.295-.295h2.131l1.145,1.586-.12.087V4.8h-2.22l-.2-.511a.163.163,0,0,0-.158-.081.623.623,0,0,0-.061.169l.141.422H11.213Zm1.789.3H11.263l.2,1.223h1.781l-.027-.08V4.4c0-.086.083-.489.319-.489a.483.483,0,0,1,.473.252l.005.011.132.329h1.721l-.884-1.223H13.6a.456.456,0,0,1-.251.407l-.032.016h-.035a.485.485,0,0,1-.468-.243ZM2.642,5.012H5.227v1a1.3,1.3,0,0,1-1.25,1.335A1.354,1.354,0,0,1,2.642,6.009Zm2.285.3H2.942v.7A1.063,1.063,0,0,0,3.977,7.044a1,1,0,0,0,.95-1.035Zm.508-.3H8.1v1A1.306,1.306,0,0,1,6.77,7.344,1.354,1.354,0,0,1,5.435,6.009Zm2.37.3H5.735v.7A1.063,1.063,0,0,0,6.77,7.044,1.012,1.012,0,0,0,7.8,6.009Zm.508-.3H10.9V6a1.149,1.149,0,0,1-.286.9,1.306,1.306,0,0,1-.964.44A1.354,1.354,0,0,1,8.313,6.009Zm2.285.3H8.613v.7A1.063,1.063,0,0,0,9.648,7.044a1,1,0,0,0,.739-.338.853.853,0,0,0,.213-.678V5.312Zm.592-.3h2.585v1a1.3,1.3,0,0,1-1.25,1.335A1.354,1.354,0,0,1,11.19,6.009Zm2.285.3H11.49v.7a1.063,1.063,0,0,0,1.035,1.035,1,1,0,0,0,.95-1.035Zm.508-.215h2.585v.846h.085v.15a1.354,1.354,0,0,1-1.335,1.335,1.306,1.306,0,0,1-1.335-1.335Zm2.285.3H14.283v.7a1.012,1.012,0,0,0,1.035,1.035,1.064,1.064,0,0,0,1.022-.885h-.072Z" />
        <path id="Path_45_-_Outline_-_Outline" data-name="Path 45 - Outline - Outline" d="M5.331-.2h8.632a1.725,1.725,0,0,1,1.723,1.723V2.645L17.079,4.61a.341.341,0,0,1,.131.3V6.093a1.954,1.954,0,0,1-1.523,1.864v2.791a.454.454,0,1,1-.908,0V7.918a2.531,2.531,0,0,1-.82-.586,2.006,2.006,0,0,1-1.435.654,1.882,1.882,0,0,1-1.45-.647,2,2,0,0,1-1.427.647,1.884,1.884,0,0,1-1.434-.628,1.807,1.807,0,0,1-1.359.628A1.882,1.882,0,0,1,5.4,7.339a2.11,2.11,0,0,1-.974.525v3.222a.421.421,0,0,1-.454.454.421.421,0,0,1-.454-.454V7.958A1.954,1.954,0,0,1,2,6.093V4.909a.469.469,0,0,1,.132-.3L3.608,2.642V1.523A1.725,1.725,0,0,1,5.331-.2Zm9.9,11.3a.322.322,0,0,0,.354-.354V7.875l.041-.007A1.849,1.849,0,0,0,17.11,6.093V4.909a.25.25,0,0,0-.105-.231L17,4.671,15.587,2.676V1.523A1.625,1.625,0,0,0,13.964-.1H5.331A1.625,1.625,0,0,0,3.708,1.523V2.675l-1.5,2a.378.378,0,0,0-.107.232V6.093A1.849,1.849,0,0,0,3.582,7.867l.041.007v3.212a.322.322,0,0,0,.354.354.322.322,0,0,0,.354-.354v-3.3l.039-.009a2,2,0,0,0,1-.545l.039-.041.036.044a1.76,1.76,0,0,0,1.408.652,1.729,1.729,0,0,0,1.319-.637L8.212,7.2l.039.047a1.761,1.761,0,0,0,1.4.638,1.92,1.92,0,0,0,1.393-.656l.039-.042.036.044a1.76,1.76,0,0,0,1.409.653,1.921,1.921,0,0,0,1.4-.662l.038-.041L14,7.225a2.429,2.429,0,0,0,.852.615l.03.013v2.9A.322.322,0,0,0,15.233,11.1ZM5.331.1h8.632a1.425,1.425,0,0,1,1.423,1.423V2.74l1.471,2.073.039.04.013.014V6.093a1.632,1.632,0,0,1-1.433,1.593l-.09.009v3.053c0,.114-.04.154-.154.154s-.154-.04-.154-.154V7.718l-.063-.025a2.222,2.222,0,0,1-.973-.729l-.077-.1-.081.1a1.781,1.781,0,0,1-1.361.724,1.561,1.561,0,0,1-1.356-.717l-.076-.114-.085.107a1.781,1.781,0,0,1-1.361.724,1.561,1.561,0,0,1-1.356-.717L8.2,6.837l-.081.136a1.5,1.5,0,0,1-1.268.713A1.561,1.561,0,0,1,5.5,6.969l-.078-.118-.085.113A1.758,1.758,0,0,1,4.215,7.6l-.084.014v3.47c0,.114-.04.154-.154.154s-.154-.04-.154-.154V7.7l-.09-.009A1.632,1.632,0,0,1,2.3,6.093V4.9a.21.21,0,0,1,.052-.09L3.908,2.742V1.523A1.425,1.425,0,0,1,5.331.1ZM16.81,4.907l-.025-.026-.02-.023L15.287,2.772V1.523A1.325,1.325,0,0,0,13.964.2H5.331A1.325,1.325,0,0,0,4.008,1.523V2.775L2.427,4.88a.177.177,0,0,0-.027.038V6.093A1.53,1.53,0,0,0,3.743,7.587l.18.018v3.482a.115.115,0,0,0,.005.05.146.146,0,0,0,.049,0,.115.115,0,0,0,.05-.005.146.146,0,0,0,0-.049V7.532L4.2,7.5a1.658,1.658,0,0,0,1.058-.6l.17-.226.157.235a1.465,1.465,0,0,0,1.272.673,1.4,1.4,0,0,0,1.183-.665L8.2,6.65l.175.263a1.465,1.465,0,0,0,1.272.673A1.682,1.682,0,0,0,10.93,6.9l.171-.214.152.228a1.465,1.465,0,0,0,1.272.673A1.682,1.682,0,0,0,13.808,6.9l.161-.2.155.207a2.124,2.124,0,0,0,.93.7l.126.05v3.1a.115.115,0,0,0,.005.05.146.146,0,0,0,.049,0,.115.115,0,0,0,.05-.005.146.146,0,0,0,0-.049V7.605l.18-.018A1.53,1.53,0,0,0,16.81,6.093ZM5.331.308h8.717a1.146,1.146,0,0,1,1.131,1.131v1.3H4.116V1.523A1.233,1.233,0,0,1,5.331.308Zm9.748,2.331v-1.2A1.045,1.045,0,0,0,14.048.408H5.331A1.131,1.131,0,0,0,4.216,1.523V2.639ZM5.331.608h8.717a.842.842,0,0,1,.831.831v1H4.416V1.523A.929.929,0,0,1,5.331.608Zm9.448,1.731v-.9a.741.741,0,0,0-.731-.731H5.331a.827.827,0,0,0-.816.816v.816Zm-8.387.508H8.54L8.117,4.855H5.561l.183-.543a.089.089,0,0,0,.012-.049H5.707l-.042-.021a.107.107,0,0,0-.049-.012s0,0,0,0v.055l-.341.568H2.637l1.5-1.923H6.35Zm2.024.1H6.454l-.2.394c-.05.1-.079.114-.164.114H6.008a.1.1,0,0,1-.086-.043.148.148,0,0,1,0-.126l0-.01.243-.243H4.182L2.842,4.755H5.219l.3-.5V4.232a.1.1,0,0,1,.106-.1.2.2,0,0,1,.088.023l.021.011h.024a.1.1,0,0,1,.086.043.156.156,0,0,1,0,.147l-.135.4H8.036Zm.215-.015h2.031l.321,1.923H8.311Zm1.947.1H8.717L8.429,4.755h2.437Zm.272-.1h2.036l.241.364c.017.033.037.051.1.057a.111.111,0,0,0,.023-.058l-.363-.363h2.278l1.189,1.647-.14.1v.175h-2.3l-.216-.54a.1.1,0,0,0-.084-.049.641.641,0,0,0-.038.113l.159.476H11.171Zm1.982.1H10.968l.287,1.723h2.339l-.123-.368,0-.012a.671.671,0,0,1,.067-.186l.015-.026.03,0a.215.215,0,0,1,.2.107l0,.005.192.479h2.135V4.628l.1-.073-1.1-1.524H13.13l.226.226,0,.023a.214.214,0,0,1-.077.163l-.014.011h-.018a.214.214,0,0,1-.205-.11Zm-6.254.115H8.17l-.3,1.408h-1.9l.04-.119A.353.353,0,0,0,6.011,4.1a.288.288,0,0,0-.225-.136l-.015,0a.4.4,0,0,0-.15-.031.3.3,0,0,0-.3.262V4.2l-.212.353H3.251L4.28,3.231H5.72l-.01.058a.33.33,0,0,0,.041.227.293.293,0,0,0,.256.138h.085a.336.336,0,0,0,.343-.225Zm1.469.1H6.64l-.114.228a.432.432,0,0,1-.433.28H6.008a.391.391,0,0,1-.341-.185.422.422,0,0,1-.061-.238H4.329L3.455,4.455H5.049l.172-.286a.4.4,0,0,1,.4-.339.494.494,0,0,1,.181.036.391.391,0,0,1,.293.183.448.448,0,0,1,.023.407H7.793Zm.839-.015h1.523l.221,1.323H8.665Zm1.438.1H8.971L8.783,4.455h1.728Zm.88-.1h1.521l.138.207a.434.434,0,0,0,.424.216h.024l.021-.011a.4.4,0,0,0,.223-.366l0-.047h1.456l.956,1.323H14.116l-.148-.37a.432.432,0,0,0-.427-.223c-.186,0-.269.349-.269.439v.016l.046.138H11.425Zm1.468.1H11.322l.187,1.123h1.669l-.007-.021V4.4c0-.11.1-.539.369-.539a.536.536,0,0,1,.517.28l.006.013.12.3h1.589l-.811-1.123H13.65a.487.487,0,0,1-.274.4l-.042.021h-.047a.538.538,0,0,1-.511-.268ZM2.592,4.962H5.277V6.009a1.346,1.346,0,0,1-1.3,1.385A1.4,1.4,0,0,1,2.592,6.009Zm2.585.1H2.692v.946A1.3,1.3,0,0,0,3.977,7.294a1.246,1.246,0,0,0,1.2-1.285Zm.208-.1h2.77V6.009A1.354,1.354,0,0,1,6.77,7.394,1.4,1.4,0,0,1,5.385,6.009Zm2.67.1H5.485v.946A1.3,1.3,0,0,0,6.77,7.294,1.257,1.257,0,0,0,8.055,6.009Zm.208-.1h2.685V6a1.2,1.2,0,0,1-.3.94,1.357,1.357,0,0,1-1,.456A1.4,1.4,0,0,1,8.263,6.009Zm2.585.1H8.363v.946A1.3,1.3,0,0,0,9.648,7.294a1.255,1.255,0,0,0,.926-.423,1.1,1.1,0,0,0,.274-.865V5.062Zm.292-.1h2.685V6.009a1.346,1.346,0,0,1-1.3,1.385A1.4,1.4,0,0,1,11.14,6.009Zm2.585.1H11.24v.946a1.3,1.3,0,0,0,1.285,1.285,1.246,1.246,0,0,0,1.2-1.285Zm.208-.015h2.685v.846H16.7v.2a1.4,1.4,0,0,1-1.385,1.385,1.354,1.354,0,0,1-1.385-1.385Zm2.585.1H14.033v.946a1.257,1.257,0,0,0,1.285,1.285A1.3,1.3,0,0,0,16.6,6.093v-.1h-.085ZM2.892,5.262H4.977v.746a1.046,1.046,0,0,1-1,1.085A1.114,1.114,0,0,1,2.892,6.009Zm1.985.1H2.992v.646a1.012,1.012,0,0,0,.985.985.946.946,0,0,0,.9-.985Zm.808-.1h2.17v.746A1.061,1.061,0,0,1,6.77,7.094,1.114,1.114,0,0,1,5.685,6.009Zm2.07.1H5.785v.646a1.012,1.012,0,0,0,.985.985.963.963,0,0,0,.985-.985Zm.808-.1h2.085v.762a.9.9,0,0,1-.225.714,1.053,1.053,0,0,1-.776.355A1.114,1.114,0,0,1,8.563,6.009Zm1.985.1H8.663v.646a1.012,1.012,0,0,0,.985.985.951.951,0,0,0,.7-.321.8.8,0,0,0,.2-.639V5.362Zm.892-.1h2.085v.746a1.046,1.046,0,0,1-1,1.085A1.114,1.114,0,0,1,11.44,6.009Zm1.985.1H11.54v.646a1.012,1.012,0,0,0,.985.985.946.946,0,0,0,.9-.985Zm.808-.015h2.085v.846H16.4l-.01.058a1.111,1.111,0,0,1-1.071.926,1.061,1.061,0,0,1-1.085-1.085Zm1.985.1H14.333v.646a.963.963,0,0,0,.985.985,1.007,1.007,0,0,0,.961-.785h-.061Z" />
        <path id="路径_46" data-name="路径 46" d="M11.508,14.285a.636.636,0,0,0,.592-.423l.423-1.1c.085-.085,0-.254-.085-.339a.44.44,0,0,0-.339-.169H10.493a.254.254,0,0,0,0,.508h1.439l-.423.931H10.154a.083.083,0,0,1-.085-.085l-.254-1.269c0-.169-.254-.339-.423-.339H9.054a.254.254,0,0,0,0,.508h.254l.254,1.269a.726.726,0,0,0,.592.508Z" transform="translate(-1.014 -1.844)" />
        <path id="Path_46_-_Outline" data-name="Path 46 - Outline" d="M11.508,14.335H10.154a.78.78,0,0,1-.64-.542l0-.006-.246-1.229H9.054a.3.3,0,1,1,0-.608h.339c.181,0,.468.175.473.383l.254,1.275a.031.031,0,0,0,.035.035h1.322l.378-.831H10.493a.3.3,0,0,1,0-.608H12.1a.489.489,0,0,1,.374.184c.1.1.191.289.092.4l-.42,1.091A.689.689,0,0,1,11.508,14.335Zm-1.9-.571a.683.683,0,0,0,.544.471h1.354a.587.587,0,0,0,.545-.389l.428-1.112.008-.008a.117.117,0,0,0,.009-.118.409.409,0,0,0-.094-.15.391.391,0,0,0-.3-.155H10.493c-.141,0-.2.063-.2.2s.063.2.2.2h1.516l-.469,1.031H10.154a.131.131,0,0,1-.135-.129l-.254-1.275c0-.134-.226-.289-.373-.289H9.054c-.141,0-.2.063-.2.2s.063.2.2.2h.295Z" transform="translate(-1.014 -1.844)" />
        <path id="Path_46_-_Outline-2" data-name="Path 46 - Outline" d="M11.508,14.435H10.154a.873.873,0,0,1-.735-.61l0-.018-.23-1.149H9.054a.4.4,0,1,1,0-.808h.339c.221,0,.559.2.573.471l.244,1.221h1.2l.287-.631H10.493a.4.4,0,0,1,0-.808H12.1a.587.587,0,0,1,.445.213c.124.124.232.361.109.523l-.413,1.073A.782.782,0,0,1,11.508,14.435Zm-1.8-.7a.581.581,0,0,0,.447.4h1.354a.484.484,0,0,0,.45-.321l0-.006.435-1.13.014-.014a.281.281,0,0,0-.076-.135c-.085-.085-.13-.125-.232-.125H10.493c-.086,0-.1.017-.1.1s.017.1.1.1h1.672l-.56,1.231H10.154a.23.23,0,0,1-.234-.217l-.254-1.272v-.015c0-.063-.166-.189-.273-.189H9.054c-.086,0-.1.017-.1.1s.017.1.1.1h.377Z" transform="translate(-1.014 -1.844)" />
        <path id="Path_46_-_Outline_-_Outline" data-name="Path 46 - Outline - Outline" d="M11.508,14.485H10.154a.925.925,0,0,1-.782-.645l-.006-.021-.222-1.112h-.09a.454.454,0,1,1,0-.908h.339a.656.656,0,0,1,.622.515l.027.133a.416.416,0,0,1,.451-.394H12.1a.638.638,0,0,1,.48.228.474.474,0,0,1,.118.582l-.41,1.067A.832.832,0,0,1,11.508,14.485ZM9.054,11.9a.354.354,0,1,0,0,.708h.172l.242,1.2a.82.82,0,0,0,.686.573h1.354a.732.732,0,0,0,.686-.488l.42-1.087c.105-.138,0-.35-.1-.457a.537.537,0,0,0-.409-.2H10.493a.354.354,0,0,0,0,.708h1.283l-.332.731H10.168l-.253-1.269c-.012-.242-.326-.424-.523-.424Zm1.2,1.593h1.129l.241-.531H10.493a.429.429,0,0,1-.387-.191Zm1.258.692H10.154a.628.628,0,0,1-.494-.43l0-.007-.268-1.34H9.054c-.114,0-.154-.04-.154-.154s.04-.154.154-.154h.339c.12,0,.323.136.323.239v.01l.254,1.274a.18.18,0,0,0,.184.17h1.418l.514-1.131H10.493c-.114,0-.154-.04-.154-.154s.04-.154.154-.154H12.1a.34.34,0,0,1,.268.14.322.322,0,0,1,.09.166l0,.023-.023.023-.433,1.125A.535.535,0,0,1,11.508,14.185Zm-1.753-.46a.538.538,0,0,0,.4.36h1.354a.433.433,0,0,0,.4-.286l0-.007.44-1.142a.273.273,0,0,0-.055-.085c-.082-.082-.115-.111-.2-.111H10.493a.115.115,0,0,0-.049.005.146.146,0,0,0,0,.049.115.115,0,0,0,.005.05.146.146,0,0,0,.049,0h1.749l-.6,1.331H10.154a.281.281,0,0,1-.284-.26l-.255-1.279v-.015a.337.337,0,0,0-.223-.139H9.054a.115.115,0,0,0-.05.005.146.146,0,0,0,0,.049.115.115,0,0,0,.005.05.146.146,0,0,0,.049,0h.418Z" transform="translate(-1.014 -1.844)" />
        <path id="路径_47" data-name="路径 47" d="M10.439,14.8h0c-.169,0-.339.085-.339.254a.224.224,0,0,0,.254.254h.085a.224.224,0,0,0,.254-.254A.27.27,0,0,0,10.439,14.8Z" transform="translate(-1.214 -2.275)" />
        <path id="Path_47_-_Outline" data-name="Path 47 - Outline" d="M10.439,14.75a.318.318,0,0,1,.3.3.274.274,0,0,1-.3.3h-.085a.274.274,0,0,1-.3-.3C10.05,14.854,10.245,14.75,10.439,14.75Zm0,.508c.141,0,.2-.063.2-.2a.221.221,0,0,0-.2-.2c-.139,0-.289.064-.289.2s.063.2.2.2Z" transform="translate(-1.214 -2.275)" />
        <path id="Path_47_-_Outline-2" data-name="Path 47 - Outline" d="M10.439,14.65a.421.421,0,0,1,.4.4.371.371,0,0,1-.4.4h-.085a.371.371,0,0,1-.4-.4A.437.437,0,0,1,10.439,14.65Z" transform="translate(-1.214 -2.275)" />
        <path id="Path_47_-_Outline_-_Outline" data-name="Path 47 - Outline - Outline" d="M10.439,14.6a.473.473,0,0,1,.454.454.421.421,0,0,1-.454.454h-.085a.421.421,0,0,1-.454-.454A.485.485,0,0,1,10.439,14.6Zm0,.808a.322.322,0,0,0,.354-.354.369.369,0,0,0-.354-.354c-.254,0-.439.149-.439.354a.322.322,0,0,0,.354.354Z" transform="translate(-1.214 -2.275)" />
        <path id="路径_48" data-name="路径 48" d="M11.539,14.8h0c-.169,0-.339.085-.339.254a.224.224,0,0,0,.254.254h.085a.254.254,0,1,0,0-.508Z" transform="translate(-1.383 -2.275)" />
        <path id="Path_48_-_Outline" data-name="Path 48 - Outline" d="M11.539,14.75a.3.3,0,1,1,0,.608h-.085a.274.274,0,0,1-.3-.3C11.15,14.854,11.345,14.75,11.539,14.75Zm0,.508c.141,0,.2-.063.2-.2s-.063-.2-.2-.2-.289.064-.289.2.063.2.2.2Z" transform="translate(-1.383 -2.275)" />
        <path id="Path_48_-_Outline-2" data-name="Path 48 - Outline" d="M11.539,14.65a.4.4,0,1,1,0,.808h-.085a.371.371,0,0,1-.4-.4A.437.437,0,0,1,11.539,14.65Z" transform="translate(-1.383 -2.275)" />
        <path id="Path_48_-_Outline_-_Outline" data-name="Path 48 - Outline - Outline" d="M11.539,14.6a.454.454,0,1,1,0,.908h-.085A.421.421,0,0,1,11,15.054.485.485,0,0,1,11.539,14.6Zm0,.808a.354.354,0,1,0,0-.708c-.254,0-.439.149-.439.354a.322.322,0,0,0,.354.354Z" transform="translate(-1.383 -2.275)" />
        <path id="路径_49" data-name="路径 49" d="M13.84,12.87A3.485,3.485,0,0,0,10.37,9.4a3.47,3.47,0,0,0,0,6.94A3.485,3.485,0,0,0,13.84,12.87Zm-6.347,0a2.877,2.877,0,1,1,2.877,2.877A2.908,2.908,0,0,1,7.492,12.87Z" transform="translate(-0.722 -1.445)" />
        <path id="Path_49_-_Outline" data-name="Path 49 - Outline" d="M10.37,9.35a3.52,3.52,0,0,1,0,7.04,3.52,3.52,0,0,1,0-7.04Zm0,6.94a3.42,3.42,0,0,0,0-6.84,3.42,3.42,0,0,0,0,6.84Zm0-6.347a2.927,2.927,0,1,1,0,5.855A2.967,2.967,0,0,1,7.442,12.87,2.9,2.9,0,0,1,10.37,9.942Zm0,5.755A2.827,2.827,0,1,0,7.542,12.87,2.865,2.865,0,0,0,10.37,15.7Z" transform="translate(-0.722 -1.445)" />
        <path id="Path_49_-_Outline-2" data-name="Path 49 - Outline" d="M10.37,9.25a3.62,3.62,0,0,1,0,7.24,3.62,3.62,0,0,1,0-7.24Zm0,6.94a3.32,3.32,0,0,0,0-6.64,3.32,3.32,0,0,0,0,6.64Zm0-6.347a3.027,3.027,0,0,1,0,6.055A3.068,3.068,0,0,1,7.342,12.87,3,3,0,0,1,10.37,9.842Zm0,5.755A2.727,2.727,0,1,0,7.642,12.87,2.764,2.764,0,0,0,10.37,15.6Z" transform="translate(-0.722 -1.445)" />
        <path id="Path_49_-_Outline_-_Outline" data-name="Path 49 - Outline - Outline" d="M10.37,9.2a3.67,3.67,0,0,1,0,7.34,3.67,3.67,0,0,1,0-7.34Zm0,7.24a3.57,3.57,0,0,0,0-7.14,3.57,3.57,0,0,0,0,7.14Zm0-6.94a3.37,3.37,0,0,1,0,6.74,3.37,3.37,0,0,1,0-6.74Zm0,6.64a3.27,3.27,0,0,0,0-6.54,3.27,3.27,0,0,0,0,6.54Zm0-6.347a3.077,3.077,0,0,1,0,6.155A3.119,3.119,0,0,1,7.292,12.87,3.045,3.045,0,0,1,10.37,9.792Zm0,6.055A2.977,2.977,0,1,0,7.392,12.87,3.017,3.017,0,0,0,10.37,15.847Zm0-5.755a2.777,2.777,0,0,1,0,5.555A2.815,2.815,0,0,1,7.592,12.87,2.748,2.748,0,0,1,10.37,10.092Zm0,5.455A2.677,2.677,0,1,0,7.692,12.87,2.713,2.713,0,0,0,10.37,15.547Z" transform="translate(-0.722 -1.445)" />
      </g>
    </g>
  </g>
</svg>
