<svg xmlns="http://www.w3.org/2000/svg" xmlns:xlink="http://www.w3.org/1999/xlink" width="20.949" height="20.958" viewBox="0 0 20.949 20.958">
  <defs>
    <clipPath id="clip-path">
      <rect id="矩形_115" data-name="矩形 115" width="20.95" height="20.958"/>
    </clipPath>
  </defs>
  <g id="icon" transform="translate(-35 -140)">
    <g id="组_432" data-name="组 432" transform="translate(35 140)">
      <g id="组_432-2" data-name="组 432" clip-path="url(#clip-path)">
        <path id="路径_507" data-name="路径 507" d="M9.864,0h1.228c.4.054.811.092,1.212.165A10.2,10.2,0,0,1,18.622,3.9a10.217,10.217,0,0,1,2.251,7.835,9.987,9.987,0,0,1-2.354,5.454,10.306,10.306,0,0,1-8.168,3.767c-3.11.009-6.22,0-9.33.007A.938.938,0,0,1,0,20.3V9.863a1.393,1.393,0,0,0,.035-.176A9.869,9.869,0,0,1,1.229,5.559,10.329,10.329,0,0,1,8.652.165C9.052.089,9.46.054,9.864,0M1.637,19.316h.2q4.317,0,8.634,0a8.636,8.636,0,0,0,1.121-.075,8.634,8.634,0,0,0,6.3-3.957,8.445,8.445,0,0,0,1.349-5.928,8.6,8.6,0,0,0-3.915-6.26A8.5,8.5,0,0,0,9.361,1.714,8.6,8.6,0,0,0,3.652,4.867a8.644,8.644,0,0,0-2.016,5.7q0,4.255,0,8.511Z"/>
        <path id="路径_508" data-name="路径 508" d="M149.191,118.053a5.165,5.165,0,0,0,.069.545.53.53,0,0,0,.56.444c.353.014.723.044.949-.321a.452.452,0,0,0,.047-.2c.014-.177.022-.354.03-.531a1.393,1.393,0,0,1,.418-.97c.21-.2.436-.391.657-.583a4.294,4.294,0,0,0,1.069-1.353,2.157,2.157,0,0,0-.661-2.736,3.886,3.886,0,0,0-4.03-.135,1.856,1.856,0,0,0-.843,1.041,1.337,1.337,0,0,0-.037.6.729.729,0,0,0,.627.568.635.635,0,0,0,.723-.294,1.477,1.477,0,0,1,.716-.673,1.94,1.94,0,0,1,1.36.024.839.839,0,0,1,.551,1.014,1.483,1.483,0,0,1-.3.61,4.792,4.792,0,0,1-.743.667,2.741,2.741,0,0,0-1.161,2.282m-.268,3.085a1.094,1.094,0,0,0,1.084,1.1,1.1,1.1,0,0,0,0-2.2,1.1,1.1,0,0,0-1.082,1.1" transform="translate(-139.845 -105.992)"/>
        <path id="路径_509" data-name="路径 509" d="M149.191,118.053a2.742,2.742,0,0,1,1.161-2.282,4.8,4.8,0,0,0,.743-.667,1.483,1.483,0,0,0,.3-.61.839.839,0,0,0-.551-1.014,1.94,1.94,0,0,0-1.36-.024,1.477,1.477,0,0,0-.716.673.635.635,0,0,1-.723.294.729.729,0,0,1-.627-.568,1.338,1.338,0,0,1,.037-.6,1.857,1.857,0,0,1,.843-1.041,3.887,3.887,0,0,1,4.03.135,2.157,2.157,0,0,1,.661,2.736,4.294,4.294,0,0,1-1.069,1.353c-.221.192-.447.379-.657.583a1.393,1.393,0,0,0-.418.97c-.008.177-.016.354-.03.531a.452.452,0,0,1-.047.2c-.226.365-.6.335-.949.321a.529.529,0,0,1-.56-.444,5.151,5.151,0,0,1-.069-.545" transform="translate(-139.844 -105.992)"/>
        <path id="路径_510" data-name="路径 510" d="M177.107,275.13a1.1,1.1,0,0,1,1.082-1.1,1.1,1.1,0,0,1,0,2.2,1.094,1.094,0,0,1-1.084-1.1" transform="translate(-168.029 -259.984)"/>
      </g>
    </g>
  </g>
</svg>
