<svg xmlns="http://www.w3.org/2000/svg" width="22.504" height="15.803" viewBox="0 0 22.504 15.803">
  <g id="组_231" data-name="组 231" transform="translate(-193.326 -237.822)">
    <g id="financial-management-white">
      <g id="组_18" data-name="组 18">
        <g id="组_17" data-name="组 17">
          <g id="路径_54" data-name="路径 54">
            <path id="路径_585" data-name="路径 585" d="M215.58,246.574c0-.6-.6-1.1-1.8-1.4a14.389,14.389,0,0,0-3.3-.5v-4.6c0-.1,0-.2-.1-.2-.1-.5-.7-1-1.8-1.3a13.048,13.048,0,0,0-3.6-.5,12.491,12.491,0,0,0-3.6.5c-.7.2-1.6.7-1.6,1.5v2.1a5.224,5.224,0,0,0-6.1,4.175l-.005.025a2.76,2.76,0,0,0-.1.9,5.228,5.228,0,0,0,5.2,5.2,4.97,4.97,0,0,0,3.3-1.2,12.04,12.04,0,0,0,2.8.3c.2,1.2,2.9,1.8,5.3,1.8a12.491,12.491,0,0,0,3.6-.5c.8-.1,1.8-.6,1.8-1.4Zm-6-4.1c0,.1-.2.4-1.2.6a11.313,11.313,0,0,1-3.4.4,13.87,13.87,0,0,1-3-.3h0a4.109,4.109,0,0,0-1.3-.8v-1.2a3.575,3.575,0,0,0,.9.4,14.25,14.25,0,0,0,7.1-.1,6.9,6.9,0,0,0,1-.4v1.1C209.58,242.374,209.58,242.374,209.58,242.474Zm-7.8-3.1a11.041,11.041,0,0,1,3.3-.4,15.825,15.825,0,0,1,3.4.4c1,.3,1.2.6,1.2.6,0,.1-.2.4-1.2.6a11.313,11.313,0,0,1-3.4.4,9.98,9.98,0,0,1-3.2-.4c-1-.1-1.2-.4-1.3-.5h0C200.58,239.974,200.88,239.674,201.78,239.374Zm0,11.2a4.414,4.414,0,0,1-6.2-.3,4.325,4.325,0,0,1,.2-6.113q.048-.045.1-.087a4.551,4.551,0,0,1,2.9-1.1,5.9,5.9,0,0,1,1.3.2,4.379,4.379,0,0,1,3,3.3,2.787,2.787,0,0,1,.1.9A4.316,4.316,0,0,1,201.78,250.574Zm1.1.1a3.919,3.919,0,0,0,.8-1.4c.4,0,.8.1,1.2.1v1.6A11.951,11.951,0,0,0,202.88,250.674Zm1.2-3.9h.8v1.6h-.9a3.405,3.405,0,0,0,.1-1Zm1.1-.8h-1.2a4.812,4.812,0,0,0-.8-1.6,13.368,13.368,0,0,0,2,.1,12.491,12.491,0,0,0,3.6-.5,3.575,3.575,0,0,0,.9-.4v1.2C207.78,244.774,205.88,245.174,205.18,245.974Zm.5.7h0c0-.1.4-.4,1.3-.7a14.587,14.587,0,0,1,3.1-.4h.1a11.313,11.313,0,0,1,3.4.4,3.275,3.275,0,0,1,1.2.6h0c0,.1-.2.4-1.2.7a12.122,12.122,0,0,1-3.4.5,9.98,9.98,0,0,1-3.2-.4A2.382,2.382,0,0,1,205.68,246.674Zm7.9,5.5a11.045,11.045,0,0,1-3.3.4,10.252,10.252,0,0,1-3.3-.4c-.9-.3-1.1-.6-1.1-.6h0v-1.3a4.894,4.894,0,0,0,1.1.4,15.674,15.674,0,0,0,3.3.4,12.492,12.492,0,0,0,3.6-.5,3.575,3.575,0,0,0,.9-.4v1.3h0A2.349,2.349,0,0,1,213.58,252.174Zm1.1-3.2h0v.1c0,.1-.2.4-1.2.6a11.313,11.313,0,0,1-3.4.4c-2.4,0-4.1-.5-4.4-1v-1.4a3.008,3.008,0,0,0,1,.4,12.479,12.479,0,0,0,3.5.4,18.778,18.778,0,0,0,3.6-.4,4.2,4.2,0,0,0,1-.4v1.3Z" fill="#fff"/>
            <path id="路径_586" data-name="路径 586" d="M210.276,253.625c-2.381,0-5.115-.549-5.586-1.8a12.29,12.29,0,0,1-2.544-.279,5.322,5.322,0,0,1-3.369,1.179,5.5,5.5,0,0,1-5.447-5.449,2.982,2.982,0,0,1,.109-.969,5.471,5.471,0,0,1,6.091-4.425v-1.807c0-.907.92-1.494,1.781-1.741a12.241,12.241,0,0,1,3.671-.509H205a13.311,13.311,0,0,1,3.645.509,2.633,2.633,0,0,1,1.94,1.356.453.453,0,0,1,.142.385v4.36a14.643,14.643,0,0,1,3.116.5c1.639.41,1.984,1.119,1.984,1.641v4.9c0,.906-1.04,1.526-2.019,1.648A12.553,12.553,0,0,1,210.276,253.625Zm-5.185-2.3.035.212c.149.892,2.369,1.591,5.054,1.591a12.032,12.032,0,0,0,3.53-.49c.695-.09,1.62-.5,1.62-1.16v-4.9c0-.487-.572-.9-1.611-1.157a14.064,14.064,0,0,0-3.247-.493l-.242-.008v-4.792h-.055l-.04-.2c-.069-.34-.53-.81-1.621-1.108a12.822,12.822,0,0,0-3.513-.491c-.039,0-.077,0-.115,0a12.254,12.254,0,0,0-3.436.491c-.656.187-1.42.63-1.42,1.26v2.4l-.3-.056a4.975,4.975,0,0,0-5.8,3.976,2.65,2.65,0,0,0-.1.865,5,5,0,0,0,4.951,4.964h.058a4.718,4.718,0,0,0,3.078-1.141l.1-.082.123.028a11.745,11.745,0,0,0,2.741.294Zm4.741,1.512a10.478,10.478,0,0,1-2.922-.419,2.372,2.372,0,0,1-1.238-.7l-.042-.063v-1.782l.363.184a4.562,4.562,0,0,0,1.044.379,15.375,15.375,0,0,0,3.246.394,11.787,11.787,0,0,0,3.527-.49,3.276,3.276,0,0,0,.837-.372l.383-.239v1.848l-.066.072a2.579,2.579,0,0,1-1.322.773,11.445,11.445,0,0,1-3.37.408C210.125,252.83,209.979,252.833,209.832,252.833Zm-3.7-1.357a2.741,2.741,0,0,0,.929.461,9.935,9.935,0,0,0,3.21.387,10.767,10.767,0,0,0,3.244-.391l.011,0a2.081,2.081,0,0,0,1.006-.556V250.6a3.765,3.765,0,0,1-.581.219,12.17,12.17,0,0,1-3.671.51,15.908,15.908,0,0,1-3.354-.407,5.093,5.093,0,0,1-.794-.253Zm-7.295.471a4.655,4.655,0,0,1-3.439-1.5,4.575,4.575,0,0,1,.217-6.465l.1-.091a4.82,4.82,0,0,1,3.063-1.163,6.153,6.153,0,0,1,1.37.209,4.629,4.629,0,0,1,3.179,3.491,2.977,2.977,0,0,1,.1.963,4.562,4.562,0,0,1-1.481,3.371l0,0A4.645,4.645,0,0,1,198.835,251.947Zm-.065-8.723a4.3,4.3,0,0,0-2.727,1.039l-.088.08a4.075,4.075,0,0,0-.192,5.76,4.178,4.178,0,0,0,5.849.286,4.073,4.073,0,0,0,1.318-3.014,2.526,2.526,0,0,0-.091-.833,4.134,4.134,0,0,0-2.833-3.129A5.6,5.6,0,0,0,198.77,243.224Zm6.36,8.067-.308-.074a11.793,11.793,0,0,0-1.958-.294l-.511-.033.34-.382a3.649,3.649,0,0,0,.749-1.311l.056-.173h.182a5.145,5.145,0,0,1,.631.052,4.533,4.533,0,0,0,.569.048h.25Zm-1.765-.827a12.315,12.315,0,0,1,1.265.2v-1.049c-.127-.009-.254-.025-.381-.041s-.262-.033-.394-.042A4.159,4.159,0,0,1,203.365,250.464Zm7.111-.133c-.135,0-.27,0-.4-.007-2.312,0-4.209-.461-4.6-1.122l-.036-.059v-1.922l.383.241a2.732,2.732,0,0,0,.916.367,12.151,12.151,0,0,0,3.444.4,18.592,18.592,0,0,0,3.556-.4,3.944,3.944,0,0,0,.929-.373l.372-.208v1.976H214.9c-.087.2-.391.5-1.368.7A11.515,11.515,0,0,1,210.476,250.331Zm-4.546-1.338c.321.363,1.864.831,4.15.831a11.081,11.081,0,0,0,3.334-.391c.879-.177,1.024-.408,1.025-.411l-.009-.048v-.25h.1v-.646a4.443,4.443,0,0,1-.688.238,19.046,19.046,0,0,1-3.658.408,12.56,12.56,0,0,1-3.567-.409,3.115,3.115,0,0,1-.687-.223Zm-.8-.369h-1.471l.079-.311a3.216,3.216,0,0,0,.093-.927v-.862h1.3Zm-.843-.5h.343v-1.1h-.3v.35A3.577,3.577,0,0,1,204.287,248.124Zm5.508-.093a10.236,10.236,0,0,1-2.886-.417,2.587,2.587,0,0,1-1.41-.768l-.069-.072v-.1c0-.389.922-.754,1.471-.937a14.779,14.779,0,0,1,3.174-.413h.1a11.607,11.607,0,0,1,3.466.409,3.515,3.515,0,0,1,1.289.644l.1.076v.121c0,.2-.179.58-1.378.939a12.34,12.34,0,0,1-3.471.511C210.053,248.029,209.924,248.031,209.795,248.031Zm-3.759-1.365a2.113,2.113,0,0,0,.988.462,9.815,9.815,0,0,0,3.147.4,11.862,11.862,0,0,0,3.338-.49,2.918,2.918,0,0,0,.923-.4,3.02,3.02,0,0,0-.916-.413,11.018,11.018,0,0,0-3.327-.392h-.109a14.309,14.309,0,0,0-3.041.393A4.48,4.48,0,0,0,206.036,246.666Zm-.743-.442h-1.5l-.051-.182a4.546,4.546,0,0,0-.759-1.517l-.36-.473.59.074a13.041,13.041,0,0,0,1.963.1,11.825,11.825,0,0,0,3.536-.49,3.317,3.317,0,0,0,.838-.372l.382-.239v1.9h-.25c-2.027,0-3.72.437-4.312,1.115Zm-1.128-.5h.907c.836-.839,2.738-1.167,4.358-1.2v-.531a3.833,3.833,0,0,1-.581.219,13.3,13.3,0,0,1-3.671.51,13.041,13.041,0,0,1-1.489-.045A5.007,5.007,0,0,1,204.165,245.724Zm1.208-1.993c-.134,0-.268,0-.4-.007a13.5,13.5,0,0,1-3.043-.306l-.066-.014-.05-.045a3.851,3.851,0,0,0-1.221-.752l-.161-.061v-1.823l.382.239a3.269,3.269,0,0,0,.837.371,12.1,12.1,0,0,0,3.424.391,12.38,12.38,0,0,0,3.537-.49,6.815,6.815,0,0,0,.96-.384l.36-.178-.026,1.614a1.378,1.378,0,0,0-.074.155v.033c0,.17-.137.592-1.4.845A11.474,11.474,0,0,1,205.373,243.731Zm-.4-.507a11.029,11.029,0,0,0,3.335-.391c.767-.154.976-.35,1.018-.4a.646.646,0,0,1,.1-.319v-.652a7.2,7.2,0,0,1-.675.25,13.551,13.551,0,0,1-3.677.511,12.476,12.476,0,0,1-3.561-.409,3.787,3.787,0,0,1-.587-.22v.611a4.338,4.338,0,0,1,1.167.737A13.67,13.67,0,0,0,204.978,243.224Zm-.29-1.993a10.174,10.174,0,0,1-2.879-.418,1.876,1.876,0,0,1-1.386-.541l-.067-.072-.026-.126c0-.434.959-.8,1.371-.937l.012,0a11.4,11.4,0,0,1,3.375-.409,16.1,16.1,0,0,1,3.448.406c1.049.314,1.31.643,1.352.705l.042.063v.076c0,.17-.137.592-1.4.845a11.582,11.582,0,0,1-3.458.4C204.944,241.229,204.816,241.231,204.688,241.231Zm-3.764-1.185a2.05,2.05,0,0,0,.981.279,9.814,9.814,0,0,0,3.166.4,11.244,11.244,0,0,0,3.343-.391,2.561,2.561,0,0,0,.927-.323,3.561,3.561,0,0,0-.933-.4,15.672,15.672,0,0,0-3.33-.389,10.734,10.734,0,0,0-3.225.389A3.51,3.51,0,0,0,200.924,240.046Z" fill="#fff"/>
          </g>
        </g>
      </g>
      <g id="组_20" data-name="组 20">
        <g id="组_19" data-name="组 19">
          <g id="路径_55" data-name="路径 55">
            <path id="路径_587" data-name="路径 587" d="M200.38,247.974a1.621,1.621,0,0,0-1.6-1.2.789.789,0,0,1-.8-.778v-.022a.8.8,0,0,1,1.6,0,.4.4,0,0,0,.8,0,1.713,1.713,0,0,0-1.2-1.6v-.2c.1-.2-.1-.4-.3-.4a.457.457,0,0,0-.5.4v.2a1.621,1.621,0,0,0,.4,3.2.8.8,0,1,1,0,1.6.709.709,0,0,1-.706-.712.64.64,0,0,1,.006-.088.4.4,0,0,0-.8,0,1.712,1.712,0,0,0,1.2,1.6v.4c-.1.2.1.4.4.4a.43.43,0,0,0,.4-.4v-.4a1.547,1.547,0,0,0,1.138-1.868C200.407,248.061,200.4,248.017,200.38,247.974Z" fill="#fff"/>
            <path id="路径_588" data-name="路径 588" d="M198.9,251.023a.71.71,0,0,1-.619-.294.47.47,0,0,1-.046-.4v-.177a1.958,1.958,0,0,1-1.2-1.769.65.65,0,0,1,1.3-.022l-.006.106a.459.459,0,0,0,.457.461.551.551,0,0,0,.549-.55.574.574,0,0,0-.59-.55,1.871,1.871,0,0,1-.61-3.638v-.012a.717.717,0,0,1,.775-.649h0a.587.587,0,0,1,.472.277.487.487,0,0,1,.057.4,1.96,1.96,0,0,1,1.193,1.767.65.65,0,1,1-1.3.005.551.551,0,1,0-1.1.017.539.539,0,0,0,.547.533,1.859,1.859,0,0,1,1.843,1.377c.016.048.03.1.042.146a1.8,1.8,0,0,1-1.131,2.113v.214a.686.686,0,0,1-.633.649Zm-.19-.537a.455.455,0,0,0,.175.038.177.177,0,0,0,.15-.167v-.58l.191-.046a1.3,1.3,0,0,0,.954-1.566c-.009-.038-.02-.074-.032-.11l-.005-.016a1.364,1.364,0,0,0-1.353-1.015.988.988,0,0,1-.741-.294,1.031,1.031,0,0,1-.314-.73,1.05,1.05,0,1,1,2.1-.043c0,.2.3.182.3.017a1.458,1.458,0,0,0-1.025-1.361l-.175-.055.027-.5a.19.19,0,0,0-.1-.04.215.215,0,0,0-.225.182l0,.369-.194.045a1.372,1.372,0,0,0-1.027,1.644,1.339,1.339,0,0,0,1.365,1.062,1.05,1.05,0,1,1,.006,2.1.959.959,0,0,1-.956-.964.819.819,0,0,1,.009-.12.2.2,0,0,0-.169-.116.181.181,0,0,0-.135.167,1.456,1.456,0,0,0,1.026,1.344l.175.056-.026.695Z" fill="#fff"/>
          </g>
        </g>
      </g>
    </g>
  </g>
</svg>
