<?xml version="1.0" encoding="UTF-8"?>
<svg width="23px" height="23px" viewBox="0 0 23 23" version="1.1" xmlns="http://www.w3.org/2000/svg" xmlns:xlink="http://www.w3.org/1999/xlink">
    <!-- Generator: Sketch 59 (86127) - https://sketch.com -->
    <title>xin xi wei hu</title>
    <desc>Created with Sketch.</desc>
    <defs>
        <polygon id="path-1" points="0.93290404 0.941379502 26.0043326 0.941379502 26.0043326 26.0128081 0.93290404 26.0128081"></polygon>
    </defs>
    <g id="页面-1" stroke="none" stroke-width="1" fill="none" fill-rule="evenodd">
        <g id="xin-xi-wei-hu" transform="translate(-2.000000, -2.000000)">
            <g id="编组" transform="translate(0.000000, 0.045792)">
                <mask id="mask-2" fill="white">
                    <use xlink:href="#path-1"></use>
                </mask>
                <g id="Clip-2"></g>
                <path d="M8.17882071,14.5350709 C8.17571618,14.9257242 7.85393169,15.2320378 7.45650016,15.2227242 C7.06998622,15.213928 6.76734632,14.8998531 6.77562507,14.5164437 C6.78385207,14.1232033 7.10160068,13.8287904 7.50513779,13.839708 C7.87716392,13.8489698 8.18197699,14.1640796 8.17882071,14.5350709 M11.3495803,12.0525338 C11.3583765,12.4338217 11.0257261,12.7701458 10.6443347,12.7660582 C10.265582,12.761867 9.95414598,12.4446876 9.95414598,12.0638653 C9.95414598,11.6783862 10.259373,11.3684507 10.6427824,11.3658636 C11.023139,11.3632764 11.3407841,11.6716597 11.3495803,12.0525338 M14.5141315,14.5293792 C14.5146482,14.9195151 14.2171308,15.2206545 13.8280815,15.2238108 C13.4363416,15.2263461 13.13365,14.9319332 13.1295624,14.5428322 C13.1248538,14.1407956 13.4250101,13.8370691 13.8249252,13.8386155 C14.2145437,13.839708 14.513096,14.1387259 14.5141315,14.5293792 M23.3382388,17.8735268 C23.3382388,17.9619541 23.3315641,18.0525029 23.3119021,18.1383949 C23.2761482,18.2972433 23.169042,18.3836528 23.0061059,18.395036 C22.9305624,18.4002102 22.8545014,18.398658 22.7789061,18.398658 C16.5750728,18.3991754 10.371136,18.3991754 4.16776845,18.3991754 C3.68040904,18.3991754 3.59813901,18.3154048 3.59813901,17.8201806 L3.59813901,5.59195589 C3.59813901,5.10868411 3.69334458,5.01347854 4.17759946,5.01347854 L15.3637371,5.01347854 C14.0572475,7.0293531 14.259042,8.86516495 15.9810211,10.5509245 C15.4915402,11.3048078 14.9906761,12.0773183 14.4892946,12.8498287 C14.4779113,12.8674728 14.4634235,12.8834611 14.4557139,12.9020883 C14.3573521,13.1395848 14.2052819,13.197536 13.9454845,13.1338932 C13.6500367,13.0615059 13.3566587,13.1602817 13.1016216,13.3243043 C12.9965333,13.392604 12.9297859,13.3941562 12.8335455,13.3155082 C12.588805,13.1142311 12.3384247,12.920198 12.084319,12.7313392 C11.9813521,12.6547608 11.9612244,12.5864611 11.9994618,12.4560709 C12.2255751,11.6882172 11.7811099,10.9058757 11.0158434,10.7025291 C10.24592,10.4976301 9.46099145,10.9446824 9.28713779,11.7249541 C9.23280852,11.9691771 9.30162559,12.2392712 9.30369528,12.4974646 C9.3042127,12.5652468 9.28869005,12.6594176 9.24367437,12.6966719 C8.98496357,12.9124367 8.71073012,13.1100918 8.45098448,13.3248217 C8.35681375,13.402435 8.295758,13.388982 8.200035,13.3294785 C7.68576967,13.0128165 7.0384235,13.0604193 6.58309249,13.4376197 C6.11534336,13.8251684 5.93993744,14.4388305 6.13609197,15.0012677 C6.33369528,15.5668095 6.87698796,15.9512538 7.47823186,15.9507364 C8.40441653,15.9497015 9.08746479,15.0530099 8.83237594,14.1583879 C8.79144789,14.0150622 8.80748796,13.9384838 8.92856462,13.8505738 C9.21728587,13.6399315 9.49514127,13.4138183 9.78696706,13.1866702 C10.353078,13.5680616 10.9247772,13.5819803 11.5068765,13.1846005 C11.8406651,13.4443461 12.1759026,13.7051266 12.5075698,13.96332 C12.3197458,14.885417 12.5324578,15.4648775 13.1714218,15.7909048 C13.7617998,16.0914751 14.4313434,15.966259 14.8809827,15.4705691 C15.3440751,14.9603914 15.3425228,14.332759 14.8711517,13.5711144 C15.4413503,12.69305 16.0141878,11.811881 16.5838172,10.9348514 C18.4527958,11.7234019 20.1390211,11.4848705 21.4217092,9.88655519 C22.6686953,8.3322207 22.5450315,6.66508829 21.4321094,5.01347854 L21.9045153,5.01347854 C22.2345786,5.01347854 22.565211,5.00933916 22.8958951,5.0150308 C23.2042784,5.02020502 23.3304775,5.1516301 23.3392737,5.45897854 C23.3403603,5.49364578 23.3392737,5.52779561 23.3392737,5.56246286 C23.3392737,9.66613359 23.3397566,13.7698043 23.3382388,17.8735268 M17.9725768,22.7744925 C18.0936535,22.9851348 18.043981,23.1961911 17.8660397,23.2924315 C17.6869601,23.3897068 17.4981012,23.3327904 17.379146,23.1274257 C16.6277981,21.8318021 15.8801239,20.5340569 15.1314148,19.236881 C15.1154265,19.2089402 15.1066303,19.1773775 15.0843294,19.1246005 C15.3306739,19.1246005 15.5567353,19.117874 15.7813481,19.1297747 C15.8340733,19.1328792 15.9028904,19.190313 15.9324352,19.2410203 C16.6154317,20.4171197 17.2952719,21.5952886 17.9725768,22.7744925 M13.8001407,23.0575221 C13.7659392,23.2396545 13.6376186,23.3327904 13.4653172,23.3307544 C13.2945681,23.328651 13.1662993,23.2360325 13.1357714,23.051313 C13.1269752,22.9975012 13.1269752,22.9416197 13.1269752,22.886773 C13.1264061,21.6904942 13.1264061,20.493698 13.1269752,19.2974193 C13.1269752,19.2498165 13.1320977,19.2027311 13.1357714,19.1349489 L13.7996233,19.1349489 C13.803711,19.2120447 13.8104374,19.2782747 13.8110066,19.3450221 C13.8114723,20.5144467 13.8114723,21.6832503 13.8110066,22.8521057 C13.8110066,22.9209228 13.8130763,22.9907747 13.8001407,23.0575221 M11.7402336,19.3507137 C11.0340049,20.5759681 10.327207,21.800705 9.62087472,23.025442 C9.59655591,23.0668357 9.57378936,23.1097817 9.54688343,23.1491057 C9.42270225,23.3291684 9.23125625,23.3834977 9.06521566,23.2867399 C8.90269354,23.1930866 8.846812,22.9912921 8.95236601,22.8013984 C9.17537472,22.3988444 9.40821444,22.0024994 9.63846706,21.6040848 C10.0844845,20.8310569 10.5336064,20.0600987 10.9749671,19.2844838 C11.0407313,19.1691505 11.109031,19.1121824 11.2471826,19.1209785 C11.4385768,19.1333967 11.6311094,19.1240831 11.8633799,19.1240831 C11.8106029,19.2213583 11.7769705,19.2870709 11.7402336,19.3507137 M13.4409984,3.60769578 C13.9165606,3.59476024 14.354765,3.93827645 14.4266866,4.29788446 L12.5174526,4.29788446 C12.5960489,3.92585833 13.0006726,3.61954474 13.4409984,3.60769578 M18.4056587,4.30926648 C20.1245333,4.31082 21.5557214,5.72596808 21.568657,7.43759875 C21.5815925,9.21183742 20.1824845,10.6347468 18.4113503,10.6476824 C16.6842488,10.6611353 15.2535263,9.24759125 15.2411082,7.51521199 C15.2281726,5.74769979 16.6495298,4.30771547 18.4056587,4.30926648 M22.9062435,4.30512836 C22.2175036,4.3035761 21.5293847,4.31030258 20.8406448,4.29995415 C20.7128416,4.29788446 20.5721547,4.25493847 20.4603399,4.19026077 C19.1140089,3.40843672 17.7630211,3.39136181 16.410481,4.16185432 C16.242319,4.25752557 16.085592,4.33001634 15.8915589,4.30512836 C15.8646012,4.30202383 15.836143,4.30150641 15.8092888,4.30512836 C15.4185838,4.363597 15.1609078,4.28701861 15.0072853,3.84151861 C14.8504549,3.38572192 14.4416918,3.11298899 13.9677853,2.97432 C13.8968468,2.95362314 13.8280815,2.9241301 13.7581779,2.89877645 L13.1797005,2.89877645 C12.8175054,3.01105693 12.4543272,3.13420328 12.2085519,3.44051686 C12.0527563,3.63506739 11.9094822,3.85290188 11.8183643,4.08315449 C11.7469601,4.26533864 11.6646901,4.30926774 11.4815228,4.30926774 C9.08172141,4.30254125 6.68145434,4.3180639 4.28108378,4.2963322 C3.61723186,4.29012314 3.13245956,4.47949944 2.89284162,5.12938098 L2.89284162,18.2672329 C3.02633639,18.6465029 3.23744441,18.9585082 3.65138169,19.065097 C3.80924702,19.1054559 3.97683988,19.121496 4.1403451,19.1220134 C6.08848918,19.1256353 8.03652977,19.1240831 9.98462211,19.1240831 L10.2350542,19.1240831 C10.1843468,19.2203235 10.1527841,19.2865534 10.1160472,19.350248 C9.53187821,20.3617555 8.94517385,21.3717625 8.36354023,22.3853914 C8.04222141,22.945759 8.1664026,23.5480378 8.66157507,23.8756174 C9.12259772,24.180327 9.75592176,24.0763252 10.077758,23.6266859 C10.2294143,23.4150604 10.3535437,23.183773 10.4845031,22.9576597 C11.0763817,21.9347172 11.6662423,20.9102224 12.2566721,19.8862451 C12.2902528,19.8282939 12.3254892,19.7708601 12.3896495,19.6642712 C12.3947719,19.7858653 12.4010327,19.8562346 12.4010327,19.926604 C12.4014984,20.9179838 12.398963,21.9088461 12.402585,22.9002259 C12.4046029,23.3891893 12.5996709,23.7705291 13.0663852,23.9676667 C13.7943974,24.2744977 14.5296535,23.7420709 14.5348277,22.9038479 C14.5405193,21.9191946 14.5358625,20.9350587 14.5358625,19.9504054 L14.5358625,19.7248095 C14.5477632,19.7191179 14.5596639,19.7129089 14.5710472,19.7072172 C14.6072667,19.7656859 14.6445211,19.8236371 14.6792401,19.8831406 C15.3632714,21.0675186 16.0451813,22.2529315 16.730765,23.4362747 C17.0557575,23.9966423 17.6052592,24.1917102 18.1474653,23.9480047 C18.6416029,23.7265482 18.8842737,23.1377224 18.6856355,22.6316841 C18.6431552,22.523543 18.591413,22.4174716 18.5334618,22.3170918 C17.9642981,21.3282991 17.3930646,20.3410587 16.8229178,19.3527834 C16.7861808,19.2891406 16.7545664,19.2223932 16.7033416,19.1240831 L16.9703312,19.1240831 C18.9323939,19.1240831 20.8944566,19.1251179 22.8560019,19.1235656 C23.473855,19.1230482 23.8934322,18.8182869 24.0192174,18.2801684 C24.0409491,18.18755 24.0434845,18.0892399 24.0434845,17.9935169 C24.0443795,13.8080935 24.0443795,9.62272192 24.0440019,5.43724683 C24.0434845,4.74602331 23.6016064,4.30719805 22.9062435,4.30512836" id="Fill-1" stroke="#FFFFFF" stroke-width="0.4" fill="#FFFFFF" mask="url(#mask-2)"></path>
            </g>
            <path d="M22.0214112,17.3801187 C21.9448845,17.4034027 21.8584751,17.401333 21.7767225,17.401333 C16.2412945,17.4023679 10.7059182,17.4023679 5.17054186,17.4018504 C4.76540075,17.4018504 4.65260284,17.2926745 4.65260284,16.8921902 C4.651568,13.4704811 4.65200537,10.048772 4.65260284,6.62706298 C4.65260284,6.55876333 4.65674221,6.48942883 4.6660558,6.4216466 C4.69192688,6.24054904 4.79955057,6.13913441 4.98116556,6.1246466 C5.17416382,6.10912395 5.29782758,6.20691664 5.34698263,6.38697936 C5.3702666,6.47131908 5.36716207,6.56393754 5.36767949,6.65293406 C5.36819692,9.90958563 5.36819692,13.1662372 5.36819692,16.4223713 L5.36819692,16.691948 L5.66980197,16.691948 C11.005557,16.691948 16.3411568,16.6914306 21.6768084,16.691948 C21.7730488,16.691948 21.8703241,16.6903957 21.9655297,16.7012616 C22.145075,16.721441 22.2531643,16.8238905 22.2724124,17.0060229 C22.291971,17.1979863 22.2014222,17.3257895 22.0214112,17.3801187" id="Fill-3" stroke="#FFFFFF" stroke-width="0.3" fill="#FFFFFF"></path>
            <path d="M18.7699442,8.77851753 L18.7699442,7.9708224 C18.9753606,8.05154017 19.091263,8.18244784 19.0897107,8.37648094 C19.0881067,8.57051404 18.9691515,8.69779976 18.7699442,8.77851753 L18.7699442,8.77851753 Z M18.0346881,7.07930498 C17.8349634,7.00997049 17.7232003,6.87751056 17.7185435,6.68606456 C17.7144041,6.49151404 17.8328937,6.36164122 18.0346881,6.27937118 L18.0346881,7.07930498 Z M18.9065435,7.24332763 C18.8491097,7.22366561 18.7652874,7.16260986 18.7632177,7.11707676 C18.7497648,6.84543042 18.7564912,6.57274923 18.7564912,6.28040603 C19.0177891,6.35698443 19.0705661,6.55256979 19.124378,6.75281195 C19.1792247,6.96029801 19.3520435,7.06895655 19.5398675,7.02601056 C19.7245871,6.98306456 19.8456637,6.801967 19.8016829,6.59965516 C19.7685679,6.44753321 19.7271742,6.29075446 19.6547351,6.15415516 C19.4669111,5.80023878 19.1533536,5.60154889 18.7673571,5.51927885 C18.7590783,5.44425272 18.7616655,5.38009244 18.7435557,5.32265864 C18.6902613,5.15346178 18.5686672,5.05463425 18.391709,5.06032589 C18.2261341,5.06601753 18.0859128,5.16070568 18.0698728,5.32628059 C18.0538327,5.48668129 17.985533,5.53428408 17.8447944,5.57929976 C17.2637299,5.76660638 16.8906689,6.37302449 17.0293379,6.90648617 C17.1493797,7.36750882 17.4546585,7.66192171 17.9058501,7.81300882 C17.9622491,7.83163599 18.0434843,7.89424401 18.045554,7.93977711 C18.0590069,8.21142345 18.0522804,8.48358721 18.0522804,8.77593042 C17.7925348,8.69779976 17.7356184,8.5048015 17.6838763,8.30248965 C17.6300644,8.09241648 17.4696637,7.99100185 17.2689041,8.03032589 C17.0893588,8.06499314 16.9656951,8.25643913 16.9998449,8.45409418 C17.0893588,8.97462031 17.3811846,9.32853669 17.8856707,9.48893739 C17.998986,9.5251569 18.055385,9.55568477 18.0620597,9.68762728 C18.0719425,9.88114296 18.2142334,9.97479627 18.3927439,9.99549314 C18.5593536,10.0151552 18.7207891,9.86975969 18.7523519,9.69021439 C18.7616655,9.63795481 18.7652874,9.58414296 18.7704616,9.54119697 C18.8879163,9.49980324 18.9934186,9.46979279 19.0933327,9.42684679 C19.5548728,9.22763948 19.8994756,8.64502275 19.7887473,8.19227885 C19.6712926,7.71004192 19.3726886,7.40217606 18.9065435,7.24332763 L18.9065435,7.24332763 Z" id="Fill-5" stroke="#FFFFFF" stroke-width="0.2" fill="#FFFFFF"></path>
        </g>
    </g>
</svg>