<?xml version="1.0" encoding="UTF-8"?>
<svg width="22px" height="24px" viewBox="0 0 22 24" version="1.1" xmlns="http://www.w3.org/2000/svg" xmlns:xlink="http://www.w3.org/1999/xlink">
    <!-- Generator: Sketch 59 (86127) - https://sketch.com -->
    <title>xiang mu guan li</title>
    <desc>Created with Sketch.</desc>
    <defs>
        <polygon id="path-1" points="1.81992337e-05 0.0108192771 21.0625798 0.0108192771 21.0625798 10 1.81992337e-05 10"></polygon>
        <polygon id="path-3" points="4.85066288e-05 0.0120018753 13.2842361 0.0120018753 13.2842361 14.1992009 4.85066288e-05 14.1992009"></polygon>
        <polygon id="path-5" points="1.81992337e-05 0.0108192771 21.0625798 0.0108192771 21.0625798 10 1.81992337e-05 10"></polygon>
    </defs>
    <g id="页面-1" stroke="none" stroke-width="1" fill="none" fill-rule="evenodd">
        <g id="xiang-mu-guan-li">
            <g id="编组" transform="translate(0.000000, 14.000000)">
                <mask id="mask-2" fill="white">
                    <use xlink:href="#path-1"></use>
                </mask>
                <g id="Clip-2"></g>
                <path d="M17.4731025,9.21081928 C17.3554141,8.05907229 17.238939,6.91268675 17.1200374,5.73979518 C16.8610016,5.76328916 16.6165252,5.78612048 16.3398969,5.81142169 C16.4539454,6.95057831 16.5667807,8.07286747 16.6808292,9.21322892 L12.4203886,9.21322892 C12.1977513,7.6813012 11.9799671,6.17045783 11.7579365,4.66021687 C11.7263911,4.44696386 11.7227513,4.25238554 11.8822979,4.07593976 C11.9890667,3.95660241 12.0667168,3.81142169 12.1740923,3.65298795 C12.4634601,3.99636145 12.7370552,4.32045783 13.0476555,4.68913253 C13.3406632,3.53250602 13.6227513,2.41690361 13.9102992,1.27955422 C14.6801268,1.53491566 15.426902,1.77587952 16.1682174,2.03190361 C16.6747628,2.20720482 17.1976874,2.35907229 17.6714741,2.60244578 C18.6542328,3.10840964 19.2323617,3.94937349 19.4295201,5.0223253 C19.6843094,6.40786747 19.9002736,7.80124096 20.1356504,9.21081928 L17.4731025,9.21081928 Z M9.44360057,9.22045783 C9.48181897,8.92889157 9.51457759,8.64877108 9.55516188,8.36985542 C9.75116762,7.01991566 9.95196584,5.67106024 10.1412379,4.32106024 C10.1551906,4.21871084 10.1169722,4.091 10.0617679,3.99937349 C9.89615485,3.72768675 9.71780236,3.46262651 9.52974361,3.206 C9.43571424,3.07828916 9.42540134,2.99093976 9.53884323,2.86684337 C9.77482663,2.60786747 9.99200415,2.33250602 10.2182813,2.06509639 C10.3705482,1.8849759 10.692614,1.88612048 10.8455482,2.06744578 C11.0766785,2.34093976 11.3017423,2.61925301 11.5383324,2.88792771 C11.6244754,2.98612048 11.6366082,3.05907229 11.5565316,3.16925301 C11.3660463,3.43431325 11.1773809,3.70244578 11.0129812,3.98316867 C10.9486772,4.09214458 10.9122787,4.24515663 10.9292647,4.36931325 C11.1355227,5.86624096 11.3539135,7.36081928 11.5692711,8.85660241 C11.5856504,8.96985542 11.6020297,9.08377108 11.6214422,9.22045783 L9.44360057,9.22045783 Z M9.2743477,4.95780723 C9.03351117,6.35485542 8.85455204,7.7620241 8.65011398,9.16503614 C8.64829406,9.17828916 8.63737452,9.19093976 8.6252417,9.21690361 L4.38239368,9.21690361 C4.49462229,8.09154217 4.60685089,6.97106024 4.72150607,5.81925301 C4.46307695,5.79093976 4.21981386,5.76383133 3.94373148,5.73316867 C3.82489049,6.89943373 3.70780875,8.05184337 3.58951373,9.2163012 L0.926965837,9.2163012 C1.08711909,8.25485542 1.24181258,7.31503614 1.40014591,6.37587952 C1.48143582,5.89515663 1.55423276,5.4120241 1.65675511,4.93612048 C1.93459674,3.64642169 2.72141028,2.78250602 3.95956481,2.34160241 C4.99328129,1.97346988 6.04216379,1.64696386 7.08437324,1.30298795 C7.09771935,1.29877108 7.11409866,1.30419277 7.15838346,1.30726506 C7.43865166,2.41383133 7.72073978,3.52895181 8.01435409,4.68973494 C8.31342816,4.33551807 8.58702331,4.01087952 8.87032471,3.67527711 C9.23491603,4.03859036 9.36534387,4.42955422 9.2743477,4.95780723 L9.2743477,4.95780723 Z M20.849667,8.70780723 C20.6312762,7.41744578 20.4395776,6.12172289 20.1860016,4.83853012 C19.883227,3.31087952 18.9866721,2.22949398 17.5155674,1.67413253 C16.5115763,1.29461446 15.4814997,0.983771084 14.4629492,0.643951807 C14.0522532,0.506662651 14.0516466,0.508409639 14.0164614,0.0771445783 C14.0146414,0.056 13.9988081,0.0367228916 13.9873426,0.0108192771 L13.2472404,0.0108192771 C13.3011708,1.05479518 12.8565635,1.98431325 12.671538,3.02654217 C12.1819786,2.4433494 11.730031,1.91925301 11.2968892,1.38075904 C11.1616082,1.21142169 11.0117679,1.18009639 10.8067232,1.14877108 C10.1648969,1.04883133 9.74085473,1.29575904 9.39142944,1.8186506 C9.11419444,2.23377108 8.75324298,2.5933494 8.38683174,3.02828916 C8.20423276,1.97708434 7.76138474,1.04455422 7.80991603,0.0120843373 L7.05707439,0.0120843373 C7.05040134,0.0782891566 7.03220211,0.133710843 7.04190837,0.183710843 C7.08861973,0.430096386 6.97275128,0.529554217 6.74222765,0.602445783 C5.74794285,0.916843373 4.75487133,1.23678313 3.77029278,1.58190361 C2.08807695,2.17112048 1.11199138,3.35720482 0.819529693,5.10304819 C0.625465198,6.26383133 0.427700192,7.42413253 0.232968391,8.58491566 C0.154105045,9.05419277 0.0782749042,9.52346988 1.81992337e-05,10.0000361 L21.062598,10.0000361 C20.9903471,9.56027711 20.9212506,9.13377108 20.849667,8.70780723 L20.849667,8.70780723 Z" id="Fill-1" fill="#FEFEFE" mask="url(#mask-2)"></path>
            </g>
            <g id="编组" transform="translate(3.777778, 0.000000)">
                <mask id="mask-4" fill="white">
                    <use xlink:href="#path-3"></use>
                </mask>
                <g id="Clip-4"></g>
                <path d="M11.7260061,9.48987079 L11.7260061,7.3907428 C12.2110214,7.57077093 12.5082691,7.99683751 12.4984832,8.45830961 C12.4880856,8.93538415 12.1724893,9.36025054 11.7260061,9.48987079 L11.7260061,9.48987079 Z M11.7156086,4.75873155 C11.682581,5.33662185 11.7058226,5.91811271 11.7033761,6.49780328 C11.7033761,6.51100534 11.6917554,6.5248075 11.6850275,6.53920975 C10.6336514,6.56201331 9.78044037,6.21575921 9.23487462,5.28501378 C9.05933945,4.9849669 8.87096024,4.69212114 8.68625076,4.39327445 C8.32661774,4.69932227 7.99450765,5.01557168 7.62875841,5.28861435 C6.55719878,6.08973952 5.33762691,6.49120225 3.9902263,6.51280563 C3.61224465,6.51880656 3.234263,6.51580609 2.85566972,6.51640619 L1.58777982,6.51640619 C1.52661774,5.59226179 1.57921713,4.65131477 1.99940061,3.76737665 C2.82141896,2.04090689 4.20857492,1.04295096 6.12967584,0.813715143 C7.28563914,0.675693577 8.37615902,0.875524801 9.25750459,1.71685626 C9.71499694,2.15312443 10.0208073,2.675206 10.1890031,3.27409958 C10.2299817,3.41872218 10.2929786,3.47273061 10.4477187,3.46852996 C11.2929786,3.44752668 11.7541407,4.08422616 11.7156086,4.75873155 L11.7156086,4.75873155 Z M10.8263119,9.97774702 C10.6782997,10.6204474 10.3412966,11.161732 9.87034862,11.6256045 C9.39756575,12.0913373 8.92111315,12.5540096 8.45077676,13.0214826 C8.1755474,13.2950654 7.84710703,13.4289463 7.45566972,13.4265776 C6.91193884,13.4228853 6.36820795,13.4234854 5.82447706,13.4265776 C5.44221407,13.4276861 5.11744343,13.3017264 4.84710703,13.0346247 C4.36392661,12.5575501 3.87707645,12.083476 3.39389602,11.6064615 C2.70582263,10.9264953 2.36514985,10.1007662 2.34741284,9.14841744 C2.33640367,8.53992236 2.34557798,7.93082719 2.34557798,7.29712818 C2.84771865,7.29712818 3.32600612,7.29532789 3.80429358,7.29772827 C4.5578104,7.30132883 5.29297859,7.19511224 6.01163303,6.97247745 C6.83120489,6.71923788 7.57615902,6.33097722 8.24833028,5.80649526 C8.32784098,5.74468561 8.40918654,5.68527632 8.5107156,5.60846432 C8.90521101,6.29497159 9.4373211,6.79364951 10.1657615,7.06789236 C10.3700428,7.14470436 10.5883914,7.18491064 10.7963425,7.25212114 C10.8501651,7.26952386 10.9327339,7.32773296 10.9315107,7.36613896 C10.9119388,8.23747511 11.0250887,9.11481219 10.8263119,9.97774702 L10.8263119,9.97774702 Z M1.55536391,9.47066779 C1.20979817,9.44426367 0.876464832,9.05660309 0.801847095,8.57892846 C0.725394495,8.08505129 1.01836086,7.6025759 1.55536391,7.38714224 L1.55536391,9.47066779 Z M12.6489419,7.02828617 C12.5718777,6.95327445 12.5137737,6.8230541 12.5119388,6.7174376 C12.4997064,6.01352761 12.5125505,5.30961763 12.5033761,4.60570764 C12.4905321,3.70616709 11.8929786,2.97885345 11.0097982,2.74541697 C10.9168318,2.72081313 10.8134679,2.62119756 10.7737125,2.53178359 C10.2844159,1.43121163 9.46606728,0.673293202 8.3253945,0.255027848 C8.02753517,0.145810783 7.70826911,0.0918023441 7.39878899,0.0119898734 L6.07401835,0.0119898734 C6.02998165,0.0269922175 5.98655657,0.0443949367 5.94129664,0.0557967182 C5.44833028,0.180016128 4.93273394,0.248426817 4.46545566,0.435055977 C2.71193884,1.13716568 1.56576147,2.39976296 1.00918654,4.17904098 C0.752917431,4.99936915 0.769431193,5.8419008 0.781663609,6.68383235 C0.784110092,6.84465748 0.734568807,6.94967389 0.615914373,7.06129133 C0.078911315,7.56777046 -0.114972477,8.18826742 0.0660672783,8.89877843 C0.256892966,9.64769545 0.761480122,10.1127681 1.51866667,10.2945965 C1.69542508,10.3372032 1.76698471,10.4146153 1.81774924,10.5646387 C1.99450765,11.0843199 2.26545566,11.5541933 2.652,11.9496551 C3.20245872,12.5131432 3.76148012,13.0694301 4.32784098,13.6179158 C4.66117431,13.9401662 5.05933945,14.1604006 5.53946177,14.1730025 C6.22447706,14.1916654 6.91010398,14.2066678 7.59450765,14.195206 C8.19144954,14.1856045 8.67707645,13.9168225 9.08747401,13.4984971 C9.46484404,13.113897 9.85077676,12.7375782 10.2403792,12.36492 C10.8006239,11.8290363 11.252,11.2265421 11.5064343,10.4908272 C11.5321223,10.4170157 11.6330398,10.3366031 11.7131621,10.3168 C12.4917554,10.1277705 13.0146911,9.67409958 13.2159144,8.90777984 C13.4073517,8.17866592 13.1896147,7.55636868 12.6489419,7.02828617 L12.6489419,7.02828617 Z" id="Fill-3" stroke="#FFFFFF" stroke-width="0.5" fill="#FFFFFF" mask="url(#mask-4)"></path>
            </g>
            <g id="编组" transform="translate(0.000000, 14.000000)">
                <mask id="mask-6" fill="white">
                    <use xlink:href="#path-5"></use>
                </mask>
                <g id="Clip-6"></g>
                <path d="M17.4731025,9.21081928 C17.3554141,8.05907229 17.238939,6.91268675 17.1200374,5.73979518 C16.8610016,5.76328916 16.6165252,5.78612048 16.3398969,5.81142169 C16.4539454,6.95057831 16.5667807,8.07286747 16.6808292,9.21322892 L12.4203886,9.21322892 C12.1977513,7.6813012 11.9799671,6.17045783 11.7579365,4.66021687 C11.7263911,4.44696386 11.7227513,4.25238554 11.8822979,4.07593976 C11.9890667,3.95660241 12.0667168,3.81142169 12.1740923,3.65298795 C12.4634601,3.99636145 12.7370552,4.32045783 13.0476555,4.68913253 C13.3406632,3.53250602 13.6227513,2.41690361 13.9102992,1.27955422 C14.6801268,1.53491566 15.426902,1.77587952 16.1682174,2.03190361 C16.6747628,2.20720482 17.1976874,2.35907229 17.6714741,2.60244578 C18.6542328,3.10840964 19.2323617,3.94937349 19.4295201,5.0223253 C19.6843094,6.40786747 19.9002736,7.80124096 20.1356504,9.21081928 L17.4731025,9.21081928 Z M9.44360057,9.22045783 C9.48181897,8.92889157 9.51457759,8.64877108 9.55516188,8.36985542 C9.75116762,7.01991566 9.95196584,5.67106024 10.1412379,4.32106024 C10.1551906,4.21871084 10.1169722,4.091 10.0617679,3.99937349 C9.89615485,3.72768675 9.71780236,3.46262651 9.52974361,3.206 C9.43571424,3.07828916 9.42540134,2.99093976 9.53884323,2.86684337 C9.77482663,2.60786747 9.99200415,2.33250602 10.2182813,2.06509639 C10.3705482,1.8849759 10.692614,1.88612048 10.8455482,2.06744578 C11.0766785,2.34093976 11.3017423,2.61925301 11.5383324,2.88792771 C11.6244754,2.98612048 11.6366082,3.05907229 11.5565316,3.16925301 C11.3660463,3.43431325 11.1773809,3.70244578 11.0129812,3.98316867 C10.9486772,4.09214458 10.9122787,4.24515663 10.9292647,4.36931325 C11.1355227,5.86624096 11.3539135,7.36081928 11.5692711,8.85660241 C11.5856504,8.96985542 11.6020297,9.08377108 11.6214422,9.22045783 L9.44360057,9.22045783 Z M9.2743477,4.95780723 C9.03351117,6.35485542 8.85455204,7.7620241 8.65011398,9.16503614 C8.64829406,9.17828916 8.63737452,9.19093976 8.6252417,9.21690361 L4.38239368,9.21690361 C4.49462229,8.09154217 4.60685089,6.97106024 4.72150607,5.81925301 C4.46307695,5.79093976 4.21981386,5.76383133 3.94373148,5.73316867 C3.82489049,6.89943373 3.70780875,8.05184337 3.58951373,9.2163012 L0.926965837,9.2163012 C1.08711909,8.25485542 1.24181258,7.31503614 1.40014591,6.37587952 C1.48143582,5.89515663 1.55423276,5.4120241 1.65675511,4.93612048 C1.93459674,3.64642169 2.72141028,2.78250602 3.95956481,2.34160241 C4.99328129,1.97346988 6.04216379,1.64696386 7.08437324,1.30298795 C7.09771935,1.29877108 7.11409866,1.30419277 7.15838346,1.30726506 C7.43865166,2.41383133 7.72073978,3.52895181 8.01435409,4.68973494 C8.31342816,4.33551807 8.58702331,4.01087952 8.87032471,3.67527711 C9.23491603,4.03859036 9.36534387,4.42955422 9.2743477,4.95780723 L9.2743477,4.95780723 Z M20.849667,8.70780723 C20.6312762,7.41744578 20.4395776,6.12172289 20.1860016,4.83853012 C19.883227,3.31087952 18.9866721,2.22949398 17.5155674,1.67413253 C16.5115763,1.29461446 15.4814997,0.983771084 14.4629492,0.643951807 C14.0522532,0.506662651 14.0516466,0.508409639 14.0164614,0.0771445783 C14.0146414,0.056 13.9988081,0.0367228916 13.9873426,0.0108192771 L13.2472404,0.0108192771 C13.3011708,1.05479518 12.8565635,1.98431325 12.671538,3.02654217 C12.1819786,2.4433494 11.730031,1.91925301 11.2968892,1.38075904 C11.1616082,1.21142169 11.0117679,1.18009639 10.8067232,1.14877108 C10.1648969,1.04883133 9.74085473,1.29575904 9.39142944,1.8186506 C9.11419444,2.23377108 8.75324298,2.5933494 8.38683174,3.02828916 C8.20423276,1.97708434 7.76138474,1.04455422 7.80991603,0.0120843373 L7.05707439,0.0120843373 C7.05040134,0.0782891566 7.03220211,0.133710843 7.04190837,0.183710843 C7.08861973,0.430096386 6.97275128,0.529554217 6.74222765,0.602445783 C5.74794285,0.916843373 4.75487133,1.23678313 3.77029278,1.58190361 C2.08807695,2.17112048 1.11199138,3.35720482 0.819529693,5.10304819 C0.625465198,6.26383133 0.427700192,7.42413253 0.232968391,8.58491566 C0.154105045,9.05419277 0.0782749042,9.52346988 1.81992337e-05,10.0000361 L21.062598,10.0000361 C20.9903471,9.56027711 20.9212506,9.13377108 20.849667,8.70780723 L20.849667,8.70780723 Z" id="Fill-5" stroke="#FFFFFF" stroke-width="0.6" fill="#FFFFFF" stroke-linejoin="round" mask="url(#mask-6)"></path>
            </g>
        </g>
    </g>
</svg>