<?xml version="1.0" encoding="UTF-8"?>
<svg width="24px" height="20px" viewBox="0 0 24 20" version="1.1" xmlns="http://www.w3.org/2000/svg" xmlns:xlink="http://www.w3.org/1999/xlink">
    <!-- Generator: Sketch 59 (86127) - https://sketch.com -->
    <title>xi tong she zhi</title>
    <desc>Created with Sketch.</desc>
    <g id="页面-1" stroke="none" stroke-width="1" fill="none" fill-rule="evenodd">
        <g id="xi-tong-she-zhi" transform="translate(1.000000, 1.000000)" fill="#FFFFFF" fill-rule="nonzero" stroke="#FFFFFF" stroke-width="0.3">
            <path d="M11.375,15 L19.625,15 C19.8262002,14.9852371 19.9863905,14.8114714 20,14.5932203 L20,9.40677966 C19.9863905,9.18852859 19.8262002,9.01476289 19.625,9 L11.375,9 C11.1737998,9.01476289 11.0136095,9.18852859 11,9.40677966 L11,14.5932203 C11.0136095,14.8114714 11.1737998,14.9852371 11.375,15 L11.375,15 Z M11.75,9.71186441 L19.34375,9.71186441 L19.34375,14.1864407 L11.75,14.1864407 L11.75,9.71186441 Z" id="路径_75"></path>
            <path d="M21.5982798,15.7991977 L21.5982798,8.79955312 C21.5854766,8.08699022 21.0109257,7.51242275 20.2983834,7.49961914 L18.9984869,7.49961914 L18.9984869,1.99989844 C18.9951924,0.896752593 18.1017602,0.0032946338 16.9986462,0 L1.99984073,0 C0.896726715,0.0032946338 0.00329453872,0.896752593 0,1.99989844 L0,11.8993957 C0.00329453872,13.0025415 0.896726715,13.8959995 1.99984073,13.8992941 L7.49940272,13.8992941 L7.29941865,14.3992687 C7.07841321,15.1553115 6.57788758,15.7988631 5.89953014,16.1991773 C5.7995381,16.2991723 5.69954607,16.3991672 5.69954607,16.4991621 L5.69954607,17.5991062 C5.89953014,17.7990961 5.99952218,17.9990859 6.19950625,17.9990859 L20.7983435,17.9990859 C21.1203343,18.011896 21.4330341,17.8895928 21.6608961,17.6617243 C21.888758,17.4338558 22.0110577,17.1211469 21.998248,16.7991469 L21.998248,16.1991773 C22.0089468,16.0901663 21.9702582,15.9820939 21.8928076,15.904641 C21.8153571,15.8271882 21.7072877,15.7884985 21.5982798,15.7991977 Z M20.3983754,8.29957851 C20.5594995,8.2927125 20.7161214,8.35371564 20.8301567,8.46775423 C20.9441921,8.58179283 21.0051934,8.73841933 20.9983276,8.89954805 L20.9983276,15.8991926 L16.598678,15.8991926 C16.4887178,15.8855248 16.3784696,15.9222753 16.2987019,15.9991875 L15.9987258,16.1991773 L14.4988453,16.1991773 L14.1988692,15.8991926 C14.1191014,15.8222803 14.0088532,15.7855299 13.898893,15.7991977 L9.89921159,15.7991977 L9.89921159,8.79955312 C9.89234578,8.63842441 9.95334715,8.48179791 10.0673825,8.36775931 C10.1814178,8.25372071 10.3380397,8.19271758 10.4991638,8.19958359 L20.3983754,8.19958359 L20.3983754,8.29957851 Z M9.19926734,15.7991977 C8.98467088,15.8137138 8.81381488,15.9845747 8.79929919,16.1991773 L8.79929919,16.7991469 C8.78373644,16.9719599 8.81846097,17.1455876 8.89929123,17.2991215 L6.59947439,17.2991215 L6.59947439,16.7991469 C7.31346213,16.2799074 7.83976025,15.5430688 8.09935494,14.6992535 L8.29933901,13.9992891 L9.0992753,13.9992891 L9.0992753,15.7991977 L9.19926734,15.7991977 Z M9.19926734,13.1993297 L1.99984073,13.1993297 C1.28729838,13.1865261 0.712747497,12.6119586 0.699944254,11.8993957 L0.699944254,11.6994059 L9.0992753,11.6994059 L9.0992753,13.1993297 L9.19926734,13.1993297 Z M9.19926734,10.9994414 L0.699944254,10.9994414 L0.699944254,1.99989844 C0.712747497,1.28733553 1.28729838,0.712768065 1.99984073,0.699964453 L16.9986462,0.699964453 C17.7111885,0.712768065 18.2857394,1.28733553 18.2985426,1.99989844 L18.2985426,7.49961914 L10.3991718,7.49961914 C9.68662943,7.51242275 9.11207854,8.08699022 9.0992753,8.79955312 L9.0992753,10.9994414 L9.19926734,10.9994414 Z M21.2983037,16.7991469 C21.3065786,16.9341156 21.2565674,17.066151 21.1609537,17.1617675 C21.06534,17.257384 20.9333083,17.3073966 20.7983435,17.2991215 L9.99920363,17.2991215 C9.86423884,17.3073966 9.73220718,17.257384 9.63659346,17.1617675 C9.54097974,17.066151 9.49096859,16.9341156 9.49924345,16.7991469 L9.49924345,16.4991621 L13.698909,16.4991621 L13.9988851,16.7991469 C14.0786528,16.8760591 14.188901,16.9128096 14.2988612,16.8991418 L16.0987178,16.8991418 C16.208678,16.9128096 16.3189262,16.8760591 16.3986939,16.7991469 L16.6986701,16.4991621 L21.2983037,16.4991621 L21.2983037,16.7991469 Z" id="路径_76"></path>
        </g>
    </g>
</svg>