<?xml version="1.0" encoding="UTF-8"?>
<svg width="21px" height="21px" viewBox="0 0 21 21" version="1.1" xmlns="http://www.w3.org/2000/svg" xmlns:xlink="http://www.w3.org/1999/xlink">
    <!-- Generator: Sketch 59 (86127) - https://sketch.com -->
    <title>zhi yi guan li</title>
    <desc>Created with Sketch.</desc>
    <defs>
        <polygon id="path-1" points="0.0483637996 0.0340153228 14.3675926 0.0340153228 14.3675926 12.5911116 0.0483637996 12.5911116"></polygon>
        <polygon id="path-3" points="0 0.0441504998 9.07757943 0.0441504998 9.07757943 15.4091746 0 15.4091746"></polygon>
        <polygon id="path-5" points="0.0364384439 0.0415685858 11.5100831 0.0415685858 11.5100831 11.2375788 0.0364384439 11.2375788"></polygon>
        <polygon id="path-7" points="0 21.0019159 20.9534168 21.0019159 20.9534168 0.0582921835 0 0.0582921835"></polygon>
    </defs>
    <g id="页面-1" stroke="none" stroke-width="1" fill="none" fill-rule="evenodd">
        <g id="zhi-yi-guan-li">
            <g id="编组" transform="translate(3.439239, 8.410804)">
                <mask id="mask-2" fill="white">
                    <use xlink:href="#path-1"></use>
                </mask>
                <g id="Clip-2"></g>
                <path d="M12.4859059,9.46782228 C12.3372608,9.57391406 12.2597322,9.70040809 12.2702248,9.88869185 C12.2812421,10.0839707 12.2725565,10.2804153 12.2725565,10.4931818 L9.12944198,10.4931818 C9.12944198,10.2885762 9.15270057,10.0763927 9.12128108,9.87353588 C9.09965468,9.73771509 9.03209404,9.57799451 8.93124856,9.49113915 C8.65144608,9.24922659 8.34593675,9.03704304 8.04637321,8.81844736 C7.81437032,8.64940002 7.66100359,8.43488479 7.58528204,8.15391646 C7.32174308,7.17402486 7.0501598,6.19588202 6.78254038,5.21715626 C6.77502069,5.18975893 6.77560361,5.16061284 6.77204779,5.13321551 C7.13118593,5.01080193 7.47213691,5.13496428 7.70530565,5.45032499 C7.98108597,5.82339497 8.16004297,6.22036474 8.08484606,6.69952648 C8.07085593,6.79162813 8.08309729,6.88781024 8.08309729,6.99973123 L8.78027181,6.99973123 L8.78027181,1.31566041 C8.78027181,1.26494621 8.77904767,1.21423201 8.78027181,1.16293489 C8.7855181,0.905866362 8.91550967,0.742065326 9.11953231,0.734487342 C9.32938417,0.726326436 9.47855387,0.8988713 9.47855387,1.16410073 C9.48036093,2.44419709 9.47977801,3.72487636 9.47977801,5.00497271 L9.47977801,5.25621202 L10.1780601,5.25621202 L10.1780601,4.58876652 L10.8729612,4.58876652 L10.8729612,5.25970955 L11.5665799,5.25970955 L11.5665799,4.58526899 L12.2614227,4.58526899 L12.2614227,5.25621202 L12.9673993,5.25621202 L12.9673993,4.58526899 C13.387686,4.61849553 13.661018,4.87498114 13.6650985,5.26845338 C13.6750082,6.20695753 13.6744835,7.14546169 13.6639909,8.08338292 C13.6604351,8.42905557 13.499607,8.71118974 13.2203874,8.91987576 C12.975502,9.10349613 12.7348135,9.29061404 12.4859059,9.46782228 L12.4859059,9.46782228 Z M1.2570826,1.43107894 C1.20572718,1.43107894 1.15507128,1.43399354 1.10435708,1.42874725 C0.900917355,1.40892791 0.752272287,1.26028284 0.7528535,1.08015999 C0.753379839,0.899454221 0.901500277,0.752557919 1.10552292,0.733321498 C1.14865914,0.729241045 1.19296119,0.731572733 1.23668033,0.731572733 L8.10524832,0.731572733 C8.09353159,0.970570685 8.08309729,1.18625176 8.07085593,1.43107894 L1.2570826,1.43107894 Z M13.2932527,9.74529307 C13.4145004,9.68292044 13.5165117,9.58382373 13.626101,9.49988298 C14.1134237,9.12739593 14.369851,8.64123912 14.3675926,8.02101029 C14.3634971,7.11165222 14.3675926,6.20287708 14.3658288,5.29351902 C14.3646047,4.47917721 13.7619218,3.87701896 12.94758,3.87585311 C12.1040921,3.87410435 11.2605459,3.87527019 10.4171163,3.87527019 L10.1763696,3.87527019 C10.1763696,2.93501727 10.1774772,2.02624213 10.1763696,1.11804991 C10.1752038,0.476252969 9.7356224,0.0349811393 9.09621544,0.0343982175 C6.4415894,0.0338152957 3.78696336,0.0338152957 1.13227903,0.0349811393 C1.03906983,0.0355640612 0.942304805,0.0390615922 0.851951921,0.0617955438 C0.317412598,0.197616331 -0.00727486451,0.677361002 0.0562636156,1.22705629 C0.115721643,1.73886166 0.570983596,2.12767053 1.11951304,2.12767053 C3.35210367,2.12883637 5.5846943,2.12825345 7.81722664,2.12825345 L8.06560964,2.12825345 L8.06560964,4.77355274 C7.49201455,4.32703461 6.89743428,4.22968667 6.25971779,4.55845458 C5.99034961,4.6977729 5.94435708,4.81494019 6.02363445,5.1087328 C6.25732781,5.96912542 6.53660566,6.8201913 6.71433853,7.69165945 C6.90034889,8.60451504 7.32174308,9.31567968 8.14022363,9.76627826 C8.45844066,9.94115481 8.47190615,10.1958917 8.40778475,10.5100865 C8.31160265,10.5100865 8.21833516,10.5083378 8.12506766,10.5100865 C7.86216991,10.5147499 7.73800756,10.6359976 7.73445174,10.8959808 C7.73159542,11.0924254 7.73386882,11.2888701 7.73386882,11.4853148 L7.73386882,12.5864541 L8.43926253,12.5864541 L8.43926253,11.2218341 L12.9813895,11.2218341 L12.9813895,12.5911175 L13.6680714,12.5911175 C13.6680714,12.0927193 13.656413,11.6065625 13.6715689,11.1209886 C13.686142,10.640661 13.6144426,10.4686991 13.0653302,10.5089207 C13.044345,10.5100865 13.0227769,10.5042573 12.9947384,10.5007598 C12.9038609,10.1609163 12.9760849,9.90851119 13.2932527,9.74529307 L13.2932527,9.74529307 Z" id="Fill-1" stroke="#FFFFFF" stroke-width="0.3" fill="#FFFFFF" mask="url(#mask-2)"></path>
            </g>
            <g id="编组" transform="translate(0.000000, 1.765495)">
                <mask id="mask-4" fill="white">
                    <use xlink:href="#path-3"></use>
                </mask>
                <g id="Clip-4"></g>
                <path d="M9.07694987,10.7350827 C9.07694987,11.709728 9.07869864,12.6843733 9.07636695,13.6584357 C9.07345234,14.6365785 8.31046595,15.4060354 7.33692819,15.4072012 C5.47565877,15.4101158 3.61380643,15.4095329 1.75201238,15.4072012 C0.7644845,15.4060354 0.000856895098,14.6400761 0.000856895098,13.6491089 C-0.000308948573,9.70039644 -0.000308948573,5.751101 0.000856895098,1.80180556 C0.000856895098,0.810255522 0.763901578,0.0466279176 1.75370285,0.0454620739 C3.60803551,0.0437133084 5.46225157,0.0437133084 7.31652593,0.0454620739 C8.30865889,0.0460449958 9.07345234,0.806757991 9.07636695,1.7948105 C9.07869864,2.76945581 9.07694987,3.74410112 9.07694987,4.71874643 L9.07694987,4.92684952 L8.37977536,4.92684952 L8.37977536,4.69251495 C8.37977536,3.76858384 8.38035828,2.84523565 8.37977536,1.92130454 C8.37866781,1.1728329 7.95080318,0.742636589 7.20460494,0.742053667 C5.42319581,0.741470746 3.64184497,0.741470746 1.85979463,0.742636589 C1.12881065,0.742636589 0.698089703,1.17691336 0.697448488,1.91197779 C0.696865567,5.788408 0.696865567,9.6648382 0.697448488,13.5412684 C0.698089703,14.275167 1.13003478,14.7100267 1.86037755,14.7106096 C3.64936466,14.7117755 5.43835178,14.7117755 7.22739718,14.7106096 C7.9431669,14.7100267 8.37808488,14.2716695 8.37919244,13.5523439 C8.38099949,12.6289957 8.37977536,11.7050646 8.37977536,10.7817164 L8.37977536,10.5333917 L9.07694987,10.5333917 L9.07694987,10.7350827 Z" id="Fill-3" stroke="#FFFFFF" stroke-width="0.3" fill="#FFFFFF" mask="url(#mask-4)"></path>
            </g>
            <path d="M7.32294973,12.3000529 L8.02945099,12.3000529 L8.02945099,12.8240997 C8.02945099,13.6751656 8.03003392,14.5262314 8.02945099,15.3772973 C8.02834344,15.8430519 7.74848267,16.125186 7.2851181,16.125769 C5.45235356,16.1263519 3.61964731,16.1263519 1.78694106,16.125769 C1.33634248,16.125186 1.04837909,15.8407202 1.04837909,15.394202 C1.04721325,11.4594797 1.04721325,7.52417435 1.04837909,3.58886904 C1.04837909,3.14351675 1.33750832,2.85963382 1.78752398,2.85788505 C2.10754807,2.85671921 2.42763045,2.86254843 2.74765453,2.85613629 C2.95045304,2.85205584 3.07694708,2.9418258 3.13990264,3.13069247 C3.2110191,3.34404186 3.27455758,3.56030587 3.36083001,3.76782604 C3.38531273,3.82728407 3.47566561,3.89840053 3.53628949,3.89956637 C4.20554205,3.90889312 4.87467802,3.90889312 5.54328937,3.89956637 C5.60397153,3.89840053 5.69199273,3.8255353 5.71758299,3.76491143 C5.80152374,3.56496924 5.86686928,3.35686614 5.93151531,3.14934597 C5.99388794,2.94882086 6.11863322,2.85205584 6.33198261,2.85613629 C6.67415773,2.86254843 7.01569163,2.8538046 7.35734212,2.85963382 C7.70307306,2.86488012 8.0212318,3.14701428 8.02478762,3.48219434 C8.03411437,4.543695 8.02834344,5.60461274 8.02834344,6.68185229 L7.34102031,6.68185229 L7.34102031,3.55622541 C7.08978099,3.55622541 6.85311473,3.54981327 6.61761431,3.56205463 C6.57570223,3.56438632 6.52084928,3.63666863 6.50161286,3.68796575 C6.42233549,3.89840053 6.35355072,4.11233284 6.2836001,4.32568224 C6.22128575,4.51571475 6.09706511,4.60490179 5.8935671,4.60431887 C4.9919036,4.60082134 4.08948231,4.60023842 3.18770223,4.60431887 C2.97435284,4.60548472 2.85024878,4.50988554 2.78840077,4.30936042 C2.72427937,4.10184025 2.65724336,3.89432008 2.5756343,3.69321204 C2.55231743,3.63550278 2.47653759,3.56555216 2.42057709,3.56147171 C2.20489601,3.54631574 1.98746617,3.55505957 1.75482206,3.55505957 L1.75482206,15.4175189 L7.32294973,15.4175189 L7.32294973,12.3000529 Z" id="Fill-5" stroke="#FFFFFF" stroke-width="0.3" fill="#FFFFFF"></path>
            <g id="编组" transform="translate(9.443334, 0.016730)">
                <mask id="mask-6" fill="white">
                    <use xlink:href="#path-5"></use>
                </mask>
                <g id="Clip-8"></g>
                <path d="M11.4879379,8.09154966 C11.3043175,9.72139911 10.1034985,10.9571934 8.54301679,11.1775379 C8.26438015,11.2165936 7.9799143,11.2177595 7.68145832,11.2375788 L7.68145832,10.5240242 C8.63570136,10.5660528 9.47044543,10.2908554 10.115157,9.55526639 C10.5535142,9.05570237 10.7779391,8.4663684 10.8035877,7.80650088 C10.8478897,6.65523025 10.0031777,5.39553617 9.04666125,5.16469912 C8.97315481,5.47131601 8.89976495,5.77793289 8.8210705,6.10670081 C8.57968257,6.02276006 8.37047193,5.94989483 8.14488118,5.87120039 C8.54062681,4.62316474 8.39670341,3.45207477 7.65289515,2.37949859 C7.08629512,1.5628251 6.29876772,1.05043681 5.32936871,0.839419102 C3.33927356,0.405725256 1.20053335,1.61820267 0.726617897,3.94697541 C0.501027147,3.90908549 0.288260677,3.87352726 0.0364384439,3.83097396 C0.0935064916,3.60596613 0.136118078,3.38911921 0.203737011,3.17985027 C0.849031483,1.18217714 2.77617107,-0.100833819 4.89334318,0.0542233891 C6.99588395,0.208114754 8.76860754,1.88984425 9.01285179,3.98777993 C9.0478271,4.28915052 9.15683348,4.42963469 9.43896765,4.55146535 C10.823407,5.14779439 11.6592586,6.57012367 11.4879379,8.09154966" id="Fill-7" stroke="#FFFFFF" stroke-width="0.3" fill="#FFFFFF" mask="url(#mask-6)"></path>
            </g>
            <path d="M14.6584264,9.47695084 L13.9799054,9.47695084 C13.9548981,9.35337141 13.9379351,9.22454568 13.9023768,9.10154917 C13.7263927,8.49181294 13.1813025,8.09717485 12.506279,8.09542609 C11.1247543,8.09251148 9.74328782,8.09484317 8.36170478,8.09484317 C7.10375946,8.09484317 5.84581414,8.09192856 4.58786882,8.09600901 C3.89425013,8.0983407 3.31657459,8.54835635 3.18419304,9.17674609 C2.99072128,10.0919334 3.64411837,10.8858729 4.60477355,10.8882046 C6.58262734,10.8922851 8.56048113,10.8893704 10.5378103,10.8893704 L10.8170298,10.8893704 L10.8170298,11.586545 L10.5885245,11.586545 C8.58146631,11.586545 6.57504936,11.5877108 4.56804948,11.585962 C3.46172212,11.5853791 2.53429348,10.758213 2.44796276,9.70137574 C2.35527819,8.5576831 3.12065456,7.58711825 4.25857627,7.40991001 C4.3366878,7.39766865 4.41765564,7.39825157 4.49751593,7.39825157 C7.20233154,7.39766865 9.90761349,7.39475404 12.6123708,7.39883449 C13.6523034,7.40058326 14.5593297,8.23591025 14.6578435,9.26709898 C14.663731,9.3318033 14.6584264,9.39709055 14.6584264,9.47695084" id="Fill-9" stroke="#FFFFFF" stroke-width="0.3" fill="#FFFFFF"></path>
            <path d="M14.9097007,11.5614968 C14.7365729,11.4081884 14.5738795,11.2647896 14.3990029,11.1097324 C14.8205137,10.605505 15.0349706,10.0307441 15.0058245,9.38195207 C14.9837318,8.87714176 14.8152674,8.41721643 14.5074847,8.01208575 C13.9939305,7.3353135 12.9633247,6.76288426 11.6482531,7.22106082 C11.5631465,7.01295773 11.4780399,6.80310587 11.3929333,6.59383693 C12.4829971,6.07853402 14.1850706,6.33443671 15.1347086,7.6716594 C16.0609714,8.97565555 15.787581,10.6690435 14.9097007,11.5614968" id="Fill-11" stroke="#FFFFFF" stroke-width="0.3" fill="#FFFFFF"></path>
            <path d="M15.9915745,7.08873756 C15.8120346,7.21814621 15.6319117,7.34755486 15.4314449,7.49153655 C14.8612891,6.72266265 14.115732,6.22834494 13.1754791,6.05988053 C12.2387237,5.89141611 11.3759994,6.09951921 10.5616576,6.63813899 C10.4240881,6.44286017 10.2993428,6.26623485 10.1752387,6.08960954 C11.6581336,4.87596628 14.5109531,4.95874118 15.9915745,7.08873756" id="Fill-13" stroke="#FFFFFF" stroke-width="0.3" fill="#FFFFFF"></path>
            <mask id="mask-8" fill="white">
                <use xlink:href="#path-7"></use>
            </mask>
            <g id="Clip-16"></g>
            <polygon id="Fill-15" fill="#FFFFFF" mask="url(#mask-8)" points="3.85923401 3.54049235 5.21919065 3.54049235 5.21919065 2.86197134 3.85923401 2.86197134"></polygon>
        </g>
    </g>
</svg>