<svg id="history" xmlns="http://www.w3.org/2000/svg" xmlns:xlink="http://www.w3.org/1999/xlink" width="15" height="13.738" viewBox="0 0 15 13.738">
  <defs>
    <clipPath id="clip-path">
      <rect id="矩形_277" data-name="矩形 277" width="15" height="13.738" />
    </clipPath>
  </defs>
  <g id="组_698" data-name="组 698" clip-path="url(#clip-path)">
    <path id="路径_499" data-name="路径 499" d="M0,4.586a.641.641,0,0,1,.609-.443.609.609,0,0,1,.536.3c.147.223.295.445.437.66.147-.384.264-.775.44-1.137A6.58,6.58,0,0,1,7.231.08a6.466,6.466,0,0,1,6.205,2.448,6.871,6.871,0,0,1,.125,8.572A6.439,6.439,0,0,1,8.94,13.7a6.63,6.63,0,0,1-6.308-2.844.622.622,0,0,1,.306-1,.611.611,0,0,1,.691.257A5.727,5.727,0,0,0,4.97,11.467,5.56,5.56,0,1,0,2.8,5.5c-.006.023-.009.046-.017.089.327-.22.636-.433.949-.638a.6.6,0,0,1,.7.01.565.565,0,0,1,.244.64.729.729,0,0,1-.249.377c-.682.479-1.375.943-2.07,1.4a.624.624,0,0,1-.911-.217Q.719,6.068,0,4.967V4.586" transform="translate(0 0)" />
    <path id="路径_500" data-name="路径 500" d="M191.617,81.248c0-.508,0-1.016,0-1.524a.627.627,0,1,1,1.25,0q0,1.355,0,2.71a.312.312,0,0,0,.1.243q.8.8,1.585,1.6a.6.6,0,0,1,.154.647.592.592,0,0,1-.488.412.584.584,0,0,1-.537-.169q-.945-.949-1.883-1.9a.635.635,0,0,1-.179-.466q0-.777,0-1.553" transform="translate(-184.127 -75.96)" />
  </g>
</svg>
