<svg xmlns="http://www.w3.org/2000/svg" width="22.006" height="16.001" viewBox="0 0 22.006 16.001">
  <g id="组_232" data-name="组 232" transform="translate(-224.938 -235.771)">
    <g id="logistics-management-white">
      <g id="组_22" data-name="组 22">
        <g id="组_21" data-name="组 21">
          <g id="椭圆_2" data-name="椭圆 2">
            <circle id="椭圆_9" data-name="椭圆 9" cx="0.5" cy="0.5" r="0.5" transform="translate(230.441 248.772)" fill="#fff"/>
          </g>
        </g>
      </g>
      <g id="组_24" data-name="组 24">
        <g id="组_23" data-name="组 23">
          <g id="椭圆_3" data-name="椭圆 3">
            <circle id="椭圆_10" data-name="椭圆 10" cx="0.5" cy="0.5" r="0.5" transform="translate(241.941 248.772)" fill="#fff"/>
          </g>
        </g>
      </g>
      <g id="组_26" data-name="组 26">
        <g id="组_25" data-name="组 25">
          <g id="路径_61" data-name="路径 61">
            <path id="路径_589" data-name="路径 589" d="M246.341,244.072l-1.5-1.1-1.4-4.3a.461.461,0,0,0-.5-.3h-4.5c-.3-.1-.5.1-.5.4v10h-4.5a2.452,2.452,0,0,0-2.4-2,2.556,2.556,0,0,0-2.4,2h-2.2a.472.472,0,0,1-.5-.442.566.566,0,0,1,0-.058v-11a.472.472,0,0,1,.443-.5.538.538,0,0,1,.057,0h11.5a.5.5,0,1,0,1,0v-.5a.472.472,0,0,0-.442-.5.557.557,0,0,0-.058,0h-12a1.473,1.473,0,0,0-1.5,1.445v11.055a1.417,1.417,0,0,0,1.329,1.5,1.63,1.63,0,0,0,.171,0h2a2.452,2.452,0,0,0,2.4,2,2.555,2.555,0,0,0,2.4-2h5a.471.471,0,0,0,.5-.442.281.281,0,0,0,0-.058v-10h3.6l1.2,3.5h-1l.2-.3c.1-.2,0-.6-.2-.6a.481.481,0,0,0-.6.2l-.3.7h-1.2a.5.5,0,0,0,0,1h3.9l1.4,1.1c.2.1.2.2.2.4v3a.472.472,0,0,1-.442.5h-.558a2.5,2.5,0,1,0,0,1h.5a1.417,1.417,0,0,0,1.5-1.329,1.216,1.216,0,0,0,0-.171v-3A1.558,1.558,0,0,0,246.341,244.072Zm-15.4,6.7a1.418,1.418,0,0,1-1.5-1.329,1.63,1.63,0,0,1,0-.171,1.473,1.473,0,0,1,1.446-1.5.483.483,0,0,1,.054,0,1.417,1.417,0,0,1,1.5,1.329,1.216,1.216,0,0,1,0,.171,1.473,1.473,0,0,1-1.445,1.5Zm11.5,0a1.418,1.418,0,0,1-1.5-1.329,1.63,1.63,0,0,1,0-.171,1.5,1.5,0,0,1,3,0,1.416,1.416,0,0,1-1.328,1.5A1.65,1.65,0,0,1,242.441,250.772Z" fill="#fff"/>
          </g>
        </g>
      </g>
      <g id="组_28" data-name="组 28">
        <g id="组_27" data-name="组 27">
          <g id="路径_62" data-name="路径 62">
            <path id="路径_590" data-name="路径 590" d="M236.441,244.772h-9a.5.5,0,0,0,0,1h9a.5.5,0,0,0,0-1Z" fill="#fff"/>
          </g>
        </g>
      </g>
    </g>
  </g>
</svg>
