<?xml version="1.0" standalone="no"?><!DOCTYPE svg PUBLIC "-//W3C//DTD SVG 1.1//EN" "http://www.w3.org/Graphics/SVG/1.1/DTD/svg11.dtd"><svg t="1615858323865" class="icon" viewBox="0 0 1024 1024" version="1.1" xmlns="http://www.w3.org/2000/svg" p-id="2191" xmlns:xlink="http://www.w3.org/1999/xlink" width="200" height="200"><defs><style type="text/css"></style></defs><path d="M813.6 851.1H209c-52.4 0-99.5-32.8-117-81.6-17.4-48.2-26.2-99-26.2-150.9 0-123.8 49.5-238.8 139.5-323.8 89.9-85 207.5-127.9 331.6-121.1 227.5 12.7 411.9 201.2 419.8 429.1 2 57.1-6.7 112.9-25.7 166-17.6 49.2-64.8 82.3-117.4 82.3zM511.2 262.2c-91.6 0-177.8 34.2-244.7 97.4-72 68.1-111.6 160.1-111.6 259.1 0 41.6 7 82.2 20.9 120.7C180.7 752.9 194 762 209 762h604.7c15 0 28.5-9.3 33.5-23.2 15.2-42.3 22.1-87 20.5-132.8C861.4 423.7 714 273 532 262.8c-7-0.4-14-0.6-20.8-0.6z" fill="#333333" p-id="2192"></path><path d="M912.4 663.2h-81.5c-24.6 0-44.6-20-44.6-44.6s20-44.6 44.6-44.6h81.5c24.6 0 44.6 20 44.6 44.6s-20 44.6-44.6 44.6zM191.8 663.2h-81.5c-24.6 0-44.6-20-44.6-44.6s20-44.6 44.6-44.6h81.5c24.6 0 44.6 20 44.6 44.6s-20 44.6-44.6 44.6zM511.3 343.7c-24.6 0-44.6-20-44.6-44.6v-81.5c0-24.6 20-44.6 44.6-44.6s44.6 20 44.6 44.6v81.5c0 24.6-20 44.6-44.6 44.6zM511.3 657.6c-10 0-20-3.8-27.6-11.4L316.9 479.3c-15.2-15.2-15.2-39.9 0-55.1 15.2-15.2 39.9-15.2 55.1 0L538.9 591c15.2 15.2 15.2 39.9 0 55.1-7.6 7.7-17.6 11.5-27.6 11.5z" fill="#333333" p-id="2193"></path><path d="M511.2 692.3c-40.6 0-73.7-33.1-73.7-73.7s33.1-73.7 73.7-73.7 73.7 33.1 73.7 73.7-33 73.7-73.7 73.7z m0-89.1c-8.5 0-15.4 6.9-15.4 15.4s6.9 15.4 15.4 15.4 15.4-6.9 15.4-15.4-6.8-15.4-15.4-15.4z" fill="#333333" p-id="2194"></path></svg>