<svg xmlns="http://www.w3.org/2000/svg" width="22.2" height="16.7" viewBox="0 0 22.2 16.7">
  <g id="组_233" data-name="组 233" transform="translate(-253.667 -209.32)">
    <g id="membership-card">
      <g id="组_7" data-name="组 7">
        <g id="路径_19" data-name="路径 19">
          <path id="路径_591" data-name="路径 591" d="M273.475,225.92H256.059a2.3,2.3,0,0,1-2.292-2.292V211.712a2.3,2.3,0,0,1,2.292-2.292h17.416a2.3,2.3,0,0,1,2.292,2.292v11.916A2.3,2.3,0,0,1,273.475,225.92Zm-17.416-15.583a1.377,1.377,0,0,0-1.375,1.375v11.916A1.377,1.377,0,0,0,256.059,225h17.416a1.378,1.378,0,0,0,1.375-1.375V211.712a1.378,1.378,0,0,0-1.375-1.375Z" fill="#fff"/>
          <path id="路径_592" data-name="路径 592" d="M273.475,226.02H256.059a2.406,2.406,0,0,1-2.392-2.392V211.712a2.4,2.4,0,0,1,2.391-2.392h17.417a2.407,2.407,0,0,1,2.392,2.391v11.917A2.408,2.408,0,0,1,273.475,226.02Zm-17.416-16.5a2.205,2.205,0,0,0-2.192,2.192v11.916a2.205,2.205,0,0,0,2.192,2.192h17.415a2.206,2.206,0,0,0,2.193-2.193V211.712a2.206,2.206,0,0,0-2.193-2.192ZM273.475,225.1H256.059a1.48,1.48,0,0,1-1.476-1.475V211.712a1.48,1.48,0,0,1,1.476-1.475h17.416a1.48,1.48,0,0,1,1.475,1.475v11.916A1.48,1.48,0,0,1,273.475,225.1Zm-17.416-14.666a1.278,1.278,0,0,0-1.275,1.275v11.916a1.278,1.278,0,0,0,1.275,1.275h17.416a1.279,1.279,0,0,0,1.275-1.275V211.712a1.279,1.279,0,0,0-1.275-1.275Z" fill="#fff"/>
        </g>
      </g>
      <g id="组_8" data-name="组 8">
        <g id="路径_20" data-name="路径 20">
          <path id="路径_593" data-name="路径 593" d="M260.642,217.67a2.292,2.292,0,1,1,2.291-2.293v0A2.3,2.3,0,0,1,260.642,217.67Zm0-3.667a1.375,1.375,0,1,0,1.375,1.376A1.375,1.375,0,0,0,260.642,214Z" fill="#fff"/>
          <path id="路径_594" data-name="路径 594" d="M260.641,217.77a2.392,2.392,0,0,1,0-4.784h0a2.392,2.392,0,0,1,0,4.784h0Zm0-4.584h0a2.192,2.192,0,1,0,0,4.384h0a2.2,2.2,0,0,0,2.191-2.191,2.194,2.194,0,0,0-2.192-2.193Zm0,3.667a1.475,1.475,0,1,1,0-2.95l.1,0a1.475,1.475,0,0,1-.1,2.946Zm-.048-2.749a1.3,1.3,0,1,0,.048,0Z" fill="#fff"/>
        </g>
      </g>
      <g id="组_9" data-name="组 9">
        <g id="路径_21" data-name="路径 21">
          <path id="路径_595" data-name="路径 595" d="M264.309,222.254a.458.458,0,0,1-.458-.458v-.917a1.378,1.378,0,0,0-1.375-1.375h-3.667a1.377,1.377,0,0,0-1.375,1.375v.917a.458.458,0,1,1-.917,0v-.917a2.3,2.3,0,0,1,2.292-2.292h3.666a2.3,2.3,0,0,1,2.292,2.292v.917A.459.459,0,0,1,264.309,222.254Z" fill="#fff"/>
          <path id="路径_596" data-name="路径 596" d="M256.975,222.354a.558.558,0,0,1-.558-.558v-.917a2.4,2.4,0,0,1,2.391-2.392h3.667a2.407,2.407,0,0,1,2.392,2.391v.918a.56.56,0,0,1-.558.558h0a.56.56,0,0,1-.559-.558v-.917a1.278,1.278,0,0,0-1.274-1.275h-3.667a1.278,1.278,0,0,0-1.275,1.275v.917A.559.559,0,0,1,256.975,222.354Zm1.834-3.667a2.205,2.205,0,0,0-2.192,2.192v.917a.358.358,0,1,0,.716,0v-.917a1.48,1.48,0,0,1,1.476-1.475h3.667a1.48,1.48,0,0,1,1.475,1.475v.917a.358.358,0,1,0,.716,0v-.917a2.206,2.206,0,0,0-2.193-2.192Z" fill="#fff"/>
        </g>
      </g>
      <g id="组_10" data-name="组 10">
        <g id="路径_22" data-name="路径 22">
          <path id="路径_597" data-name="路径 597" d="M272.558,214.92h-5.5a.458.458,0,1,1,0-.917h5.5a.458.458,0,0,1,0,.917Z" fill="#fff"/>
          <path id="路径_598" data-name="路径 598" d="M272.558,215.02h-5.5a.559.559,0,1,1,0-1.117h5.5a.559.559,0,0,1,0,1.117Zm-5.5-.917a.359.359,0,1,0,0,.717h5.5a.359.359,0,0,0,0-.717Z" fill="#fff"/>
        </g>
      </g>
      <g id="组_11" data-name="组 11">
        <g id="路径_23" data-name="路径 23">
          <path id="路径_599" data-name="路径 599" d="M272.558,218.587h-5.5a.459.459,0,1,1,0-.917h5.5a.459.459,0,0,1,0,.917Z" fill="#fff"/>
          <path id="路径_600" data-name="路径 600" d="M272.558,218.687h-5.5a.558.558,0,1,1,0-1.117h5.5a.558.558,0,0,1,0,1.117Zm-5.5-.917a.358.358,0,1,0,0,.717h5.5a.358.358,0,0,0,0-.717Z" fill="#fff"/>
        </g>
      </g>
      <g id="组_12" data-name="组 12">
        <g id="路径_24" data-name="路径 24">
          <path id="路径_601" data-name="路径 601" d="M272.558,222.254h-5.5a.458.458,0,1,1,0-.917h5.5a.458.458,0,0,1,0,.917Z" fill="#fff"/>
          <path id="路径_602" data-name="路径 602" d="M272.558,222.354h-5.5a.559.559,0,1,1,0-1.117h5.5a.559.559,0,0,1,0,1.117Zm-5.5-.917a.359.359,0,1,0,0,.717h5.5a.359.359,0,0,0,0-.717Z" fill="#fff"/>
        </g>
      </g>
    </g>
  </g>
</svg>
