<svg xmlns="http://www.w3.org/2000/svg" width="16.44" height="16.647" viewBox="0 0 16.44 16.647">
  <g id="nium" transform="translate(-9.9 -6.5)">
    <path id="Path_436" data-name="Path 436" d="M9.9,23.33V9.43c.187.133.363.258.536.383.292.213.584.425.879.635a.172.172,0,0,1,.079.164V21.89h1.157V6.7h1.508q3.368,8.309,6.744,16.63c-.034,0-.06.006-.085.006h-1.4a.106.106,0,0,1-.122-.077q-.383-.953-.771-1.905-.6-1.467-1.194-2.937-.693-1.709-1.386-3.425-.8-1.969-1.6-3.932a2.98,2.98,0,0,0-.19-.411V23.327C12.667,23.33,11.286,23.33,9.9,23.33Z" transform="translate(0 -0.194)" fill="#f5eeee"/>
    <path id="Path_437" data-name="Path 437" d="M214.806,7.949H213.65v15.19c-.037,0-.062.006-.091.006-.442,0-.884,0-1.327,0a.112.112,0,0,1-.119-.082q-.787-1.948-1.576-3.9-.659-1.633-1.324-3.263l-1.6-3.943q-.663-1.633-1.324-3.263-.434-1.076-.873-2.146c-.006-.011-.008-.023-.017-.045.034,0,.062-.006.091-.006.465,0,.933,0,1.4,0a.106.106,0,0,1,.116.082q.74,1.829,1.48,3.66.574,1.42,1.151,2.843.7,1.718,1.4,3.439.527,1.3,1.052,2.6c.014.034.031.065.048.1a.088.088,0,0,1,.023-.006V6.511H216.3v13.9c-.113-.079-.224-.156-.332-.232-.363-.261-.723-.522-1.086-.78a.175.175,0,0,1-.085-.162q0-5.579,0-11.156A.674.674,0,0,0,214.806,7.949Z" transform="translate(-189.958)" fill="#f5eeee"/>
  </g>
</svg>
