<svg xmlns="http://www.w3.org/2000/svg" width="19.1" height="16.151" viewBox="0 0 19.1 16.151">
  <g id="btn" transform="translate(-33.45 -139)">
    <g id="online-order" transform="translate(33.55 139.1)">
      <g id="XMLID_124_" transform="translate(0 0)">
        <path id="XMLID_136_" d="M117.814,132h-.945a.37.37,0,0,0-.369.369v3.245a.37.37,0,0,0,.369.369h1.107a1.245,1.245,0,0,0,1.244-1.244,1.231,1.231,0,0,0-.491-.986,1.117,1.117,0,0,0-.915-1.753Zm-.572.738h.576a.378.378,0,0,1,0,.757h-.576Zm.738,2.507h-.738v-1.008h.738a.5.5,0,1,1,0,1.008Z" transform="translate(-112.199 -128.604)" />
        <path id="XMLID_136__-_Outline" data-name="XMLID_136_ - Outline" d="M116.869,131.9h.945a1.217,1.217,0,0,1,1.048,1.832,1.322,1.322,0,0,1,.459,1.007,1.346,1.346,0,0,1-1.344,1.344h-1.107a.47.47,0,0,1-.469-.469v-3.245A.47.47,0,0,1,116.869,131.9Zm1.107,3.983a1.145,1.145,0,0,0,1.144-1.144,1.124,1.124,0,0,0-.451-.906l-.077-.058.055-.079a1.016,1.016,0,0,0-.833-1.6h-.945a.269.269,0,0,0-.269.269v3.245a.269.269,0,0,0,.269.269Zm-.835-3.245h.676a.478.478,0,0,1,0,.957h-.676Zm.676.757a.278.278,0,0,0,0-.557h-.476v.557Zm-.676.742h.838a.6.6,0,1,1,0,1.208h-.838Zm.838,1.008a.4.4,0,1,0,0-.808h-.638v.808Z" transform="translate(-112.199 -128.604)" />
        <path id="XMLID_144_" d="M320.981,136.069h0a.37.37,0,0,0,.369-.369l0-1.55.971-1.488a.368.368,0,1,0-.616-.4l-.72,1.107-.727-1.115a.368.368,0,0,0-.616.4l.978,1.5,0,1.55a.359.359,0,0,0,.362.369Z" transform="translate(-307.788 -128.686)" />
        <path id="XMLID_144__-_Outline" data-name="XMLID_144_ - Outline" d="M320.981,136.169a.467.467,0,0,1-.335-.142.449.449,0,0,1-.127-.331l0-1.517-.962-1.47a.468.468,0,0,1,.784-.512l.643.986.636-.979a.468.468,0,0,1,.784.512l-.955,1.463,0,1.521A.47.47,0,0,1,320.981,136.169Zm-1.029-3.984a.268.268,0,0,0-.224.414l.995,1.52,0,1.58a.253.253,0,0,0,.071.188.263.263,0,0,0,.191.081.269.269,0,0,0,.269-.269l0-1.58.987-1.512a.268.268,0,0,0-.449-.293l-.8,1.236-.811-1.243A.267.267,0,0,0,319.952,132.185Z" transform="translate(-307.788 -128.686)" />
        <path id="XMLID_145_" d="M214.3,132.369v2.237a1.3,1.3,0,0,0,.679,1.152,1.457,1.457,0,0,0,.8.229h0a1.555,1.555,0,0,0,.7-.162,1.319,1.319,0,0,0,.816-1.222v-2.233a.369.369,0,0,0-.738,0V134.6c0,.166-.048.38-.41.565a.811.811,0,0,1-.369.085h0a.721.721,0,0,1-.4-.114.583.583,0,0,1-.34-.532v-2.237a.369.369,0,0,0-.738,0Z" transform="translate(-206.389 -128.604)" />
        <path id="XMLID_145__-_Outline" data-name="XMLID_145_ - Outline" d="M214.669,131.9a.47.47,0,0,1,.469.469v2.237c0,.131.023.273.294.448a.621.621,0,0,0,.348.1.709.709,0,0,0,.324-.074c.312-.159.354-.33.354-.475v-2.233a.469.469,0,0,1,.938,0V134.6a1.415,1.415,0,0,1-.871,1.311,1.653,1.653,0,0,1-.746.173,1.555,1.555,0,0,1-.855-.245,1.4,1.4,0,0,1-.725-1.236v-2.237A.47.47,0,0,1,214.669,131.9Zm1.111,3.452a.824.824,0,0,1-.456-.13.684.684,0,0,1-.386-.616v-2.237a.269.269,0,0,0-.538,0v2.237a1.21,1.21,0,0,0,.633,1.067,1.355,1.355,0,0,0,.744.213,1.459,1.459,0,0,0,.66-.152,1.225,1.225,0,0,0,.761-1.132v-2.233a.269.269,0,0,0-.538,0V134.6a.7.7,0,0,1-.464.654A.917.917,0,0,1,215.78,135.352Z" transform="translate(-206.389 -128.604)" />
        <path id="XMLID_148_" d="M17.055,40H11.111a.369.369,0,0,0,0,.738h5.943a1.111,1.111,0,0,1,1.107,1.107v7.088a1.111,1.111,0,0,1-1.107,1.107H15.309L12.09,48.184a.367.367,0,0,0-.369,0,.37.37,0,0,0-.185.321v1.536H1.846A1.111,1.111,0,0,1,.738,48.933V41.846a1.111,1.111,0,0,1,1.107-1.107h9.635a.369.369,0,0,0,0-.738H1.846A1.846,1.846,0,0,0,0,41.846v7.088a1.846,1.846,0,0,0,1.846,1.846h9.69V53.57a.37.37,0,0,0,.185.321.367.367,0,0,0,.369,0l.587-.34,1.277,2.215a.368.368,0,0,0,.225.174.426.426,0,0,0,.1.011.4.4,0,0,0,.185-.048L16.722,54.6a.373.373,0,0,0,.137-.506l-1.277-2.215.9-.517a.37.37,0,0,0,.185-.321.376.376,0,0,0-.1-.258h.495A1.846,1.846,0,0,0,18.9,48.933V41.846A1.846,1.846,0,0,0,17.055,40ZM16.032,54.138l-1.624.938-1.277-2.215a.368.368,0,0,0-.225-.174.425.425,0,0,0-.1-.011.4.4,0,0,0-.185.048l-.354.2V49.144l3.282,1.894-.664.384a.37.37,0,0,0-.137.506Z" transform="translate(0 -40)" />
        <path id="XMLID_148__-_Outline" data-name="XMLID_148_ - Outline" d="M1.846,39.9H17.055A1.948,1.948,0,0,1,19,41.846v7.088a1.948,1.948,0,0,1-1.946,1.946h-.318a.473.473,0,0,1-.207.566l-.811.467,1.227,2.128a.476.476,0,0,1-.173.642L14.51,55.99a.505.505,0,0,1-.235.061.523.523,0,0,1-.118-.013.473.473,0,0,1-.291-.222L12.64,53.688l-.5.289a.469.469,0,0,1-.7-.408V50.879H1.846A1.948,1.948,0,0,1-.1,48.933V41.846A1.948,1.948,0,0,1,1.846,39.9Zm8.882.2H1.846A1.748,1.748,0,0,0,.1,41.846v7.088a1.748,1.748,0,0,0,1.746,1.746h9.79V53.57a.269.269,0,0,0,.4.235l.674-.39,1.327,2.3a.27.27,0,0,0,.165.127.321.321,0,0,0,.07.008.3.3,0,0,0,.137-.036l2.26-1.305a.274.274,0,0,0,.1-.37l-1.327-2.3.984-.567a.272.272,0,0,0,.134-.235.275.275,0,0,0-.076-.19l-.16-.169h.727A1.748,1.748,0,0,0,18.8,48.933V41.846A1.748,1.748,0,0,0,17.055,40.1h-5.19a.468.468,0,0,1,0,.538h5.19a1.209,1.209,0,0,1,1.207,1.207v7.088a1.209,1.209,0,0,1-1.207,1.207H15.282l-3.242-1.87a.269.269,0,0,0-.4.235v1.636H1.846A1.209,1.209,0,0,1,.638,48.933V41.846a1.209,1.209,0,0,1,1.207-1.207h8.882a.468.468,0,0,1,0-.538Zm.753.538a.269.269,0,0,0,0-.538h-.369a.269.269,0,0,0,0,.538Zm-.369.2H1.846A1.009,1.009,0,0,0,.838,41.846v7.088a1.009,1.009,0,0,0,1.007,1.007h9.59V48.505a.469.469,0,0,1,.7-.408l3.2,1.843h1.719a1.009,1.009,0,0,0,1.007-1.007V41.846a1.009,1.009,0,0,0-1.007-1.007Zm1.059,8.132,3.582,2.067-.814.471a.27.27,0,0,0-.1.37l1.331,2.3-1.8,1.038-1.327-2.3a.27.27,0,0,0-.165-.127.32.32,0,0,0-.07-.008.3.3,0,0,0-.138.036l-.5.287Zm3.182,2.067L12.37,49.317v3.438l.2-.117a.505.505,0,0,1,.234-.061.522.522,0,0,1,.118.013.473.473,0,0,1,.291.222l1.227,2.127L15.9,54.1l-1.231-2.125a.47.47,0,0,1,.174-.643Z" transform="translate(0 -40)" />
        <path id="XMLID_149_" d="M246.369,40.738a.388.388,0,0,0,.262-.107.359.359,0,0,0,.107-.262.381.381,0,0,0-.107-.262.365.365,0,0,0-.262-.107.388.388,0,0,0-.262.107.365.365,0,0,0-.107.262.388.388,0,0,0,.107.262A.365.365,0,0,0,246.369,40.738Z" transform="translate(-236.919 -40)" />
        <path id="XMLID_149__-_Outline" data-name="XMLID_149_ - Outline" d="M246.369,40.838a.467.467,0,0,1-.335-.138.487.487,0,0,1-.134-.331.467.467,0,0,1,.138-.335.487.487,0,0,1,.331-.134.467.467,0,0,1,.335.138.481.481,0,0,1,.134.331.461.461,0,0,1-.138.335A.487.487,0,0,1,246.369,40.838Zm0-.738a.289.289,0,0,0-.193.08.267.267,0,0,0-.076.19.289.289,0,0,0,.08.193.267.267,0,0,0,.19.076.289.289,0,0,0,.193-.08.26.26,0,0,0,.076-.189.281.281,0,0,0-.08-.193A.267.267,0,0,0,246.369,40.1Z" transform="translate(-236.919 -40)" />
      </g>
    </g>
  </g>
</svg>
