<svg xmlns="http://www.w3.org/2000/svg" width="22.578" height="22.569" viewBox="0 0 22.578 22.569">
  <g id="组_224" data-name="组 224" transform="translate(-185.528 -254.422)">
    <g id="payment-management-white">
      <g id="组_16" data-name="组 16">
        <g id="组_15" data-name="组 15">
          <g id="路径_40" data-name="路径 40">
            <path id="路径_613" data-name="路径 613" d="M207.629,262.591l-2.5-6.4a2.283,2.283,0,0,0-2.946-1.321l-.054.021h-.1l-12.2,5.1a2.367,2.367,0,0,0-1.3,3l.3.8h-.7a2.326,2.326,0,0,0-2.3,2.3v8.2a2.347,2.347,0,0,0,2.295,2.4h15.605a2.264,2.264,0,0,0,2.3-2.225v-8.675l.4-.2A2.322,2.322,0,0,0,207.629,262.591Zm-19.5,2h15.6a1.473,1.473,0,0,1,1.5,1.446v.054h-18.7A1.557,1.557,0,0,1,188.129,264.591Zm3.7-2.2,2.4-1.2.5,1.3-2.4,1.1Zm13.4,12a1.58,1.58,0,0,1-1.56,1.6h-15.54a1.58,1.58,0,0,1-1.6-1.56v-4.74h18.7Zm0-5.4h-18.7v-2.2h18.7Zm.8-4.1-.4.2a2.2,2.2,0,0,0-2-1.2h-10.1l1.9-.9c.2-.1.2-.3.2-.5l-.9-2a.271.271,0,0,0-.306-.231.261.261,0,0,0-.094.031h0l-3.2,1.6c-.1.1-.2.3-.1.4l.6,1.5h-2l-.4-1.1a1.708,1.708,0,0,1,.9-2.1l12.3-5.1a1.667,1.667,0,0,1,2.1.9h0l2.5,6.4a1.6,1.6,0,0,1-.915,2.07C206.086,264.872,206.058,264.882,206.029,264.891Z" fill="#fff"/>
            <path id="路径_614" data-name="路径 614" d="M203.768,276.991H188.129a2.653,2.653,0,0,1-2.6-2.707v-8.193a2.641,2.641,0,0,1,2.6-2.6h.271l-.148-.394a2.664,2.664,0,0,1,1.464-3.382l12.364-5.124a2.593,2.593,0,0,1,1.976.055,2.565,2.565,0,0,1,1.357,1.438l2.5,6.4a2.609,2.609,0,0,1-1.357,3.385l-.222.112v8.495a2.562,2.562,0,0,1-2.561,2.519Zm-.039-.6a1.994,1.994,0,0,0,1.4-.552,1.95,1.95,0,0,0,.6-1.378v-8.856l.566-.282a2.015,2.015,0,0,0,1.057-2.618l0,0-2.5-6.4a1.984,1.984,0,0,0-2.56-1.15l-.2.041-12.145,5.077a2.066,2.066,0,0,0-1.134,2.62l.451,1.2h-1.132a2.039,2.039,0,0,0-2,2v8.2a2.053,2.053,0,0,0,2,2.1Zm-15.624-.1a1.882,1.882,0,0,1-1.876-1.857v-5.044h19.3v5a1.882,1.882,0,0,1-1.856,1.9H188.1Zm-1.276-6.3v4.4a1.313,1.313,0,0,0,1.3,1.3h15.5a1.289,1.289,0,0,0,1.3-1.3v-4.4Zm18.7-.7h-19.3v-2.8h19.3Zm-18.7-.6h18.1v-1.6h-18.1Zm18.4-2.3H186.217l.012-.311a1.837,1.837,0,0,1,1.9-1.788h15.6a1.727,1.727,0,0,1,1.257.495,1.761,1.761,0,0,1,.543,1.244l.006.3Zm-18.349-.6h18.013a1.145,1.145,0,0,0-.323-.573,1.188,1.188,0,0,0-.836-.328H188.121A1.245,1.245,0,0,0,186.88,265.792Zm18.617-.3-.135-.265a1.91,1.91,0,0,0-1.728-1.037h-10.1l-.129-.571,1.9-.9c.018-.009.027-.047.029-.165l-.9-2.023-3.114,1.6a.236.236,0,0,0-.018.03l.772,1.93h-2.653l-.472-1.3A2,2,0,0,1,190,260.319l12.311-5.1a1.973,1.973,0,0,1,2.49,1.057l2.5,6.411a1.9,1.9,0,0,1-1.085,2.459l-.076.026Zm-1.823-1.9a2.517,2.517,0,0,1,2.071,1.107l.263-.117a1.3,1.3,0,0,0,.741-1.682l-2.5-6.4a1.371,1.371,0,0,0-1.718-.727l-12.288,5.1a1.4,1.4,0,0,0-.731,1.725l.326.9h1.347l-.419-1.047a.493.493,0,0,1-.048-.448.839.839,0,0,1,.2-.317l.078-.056,3.2-1.6a.6.6,0,0,1,.19-.06.574.574,0,0,1,.633.438l.912,2.091a.757.757,0,0,1-.366.769l-.7.331h8.811Zm-11.5.4-.727-1.746,2.947-1.473.719,1.871Zm.042-1.46.273.655,1.862-.853-.281-.729Z" fill="#fff"/>
          </g>
          <g id="路径_41" data-name="路径 41">
            <path id="路径_615" data-name="路径 615" d="M199.029,274.891a2.167,2.167,0,0,0,2.2,0,2.2,2.2,0,0,0,2.445-3.658,2.222,2.222,0,0,0-.245-.142,2.167,2.167,0,0,0-2.2,0,2.2,2.2,0,1,0-2.445,3.658A2.052,2.052,0,0,0,199.029,274.891Zm2.8-3.3a.9.9,0,0,1,.5-.1,1.5,1.5,0,0,1,0,3,.894.894,0,0,1-.5-.1A2.4,2.4,0,0,0,201.829,271.591Zm-.6.4a1.391,1.391,0,0,1,0,1.9A1.389,1.389,0,0,1,201.229,271.991Zm-1.1-.5a.9.9,0,0,1,.5.1,2.129,2.129,0,0,0,0,2.8.9.9,0,0,1-.5.1,1.5,1.5,0,1,1,0-3Z" fill="#fff"/>
            <path id="路径_616" data-name="路径 616" d="M202.446,275.563a2.474,2.474,0,0,1-1.227-.326,2.469,2.469,0,0,1-2.333-.082,2.65,2.65,0,0,1-.269-.156,2.5,2.5,0,0,1,2.622-4.254,2.465,2.465,0,0,1,2.342.088,2.111,2.111,0,0,1,.26.151,2.5,2.5,0,0,1-.9,4.53A2.577,2.577,0,0,1,202.446,275.563Zm-1.207-1.026.157.105a1.9,1.9,0,0,0,2.111-3.16,1.931,1.931,0,0,0-.211-.122,1.875,1.875,0,0,0-1.915-.01l-.162.1-.157-.1a1.9,1.9,0,1,0-2.111,3.159,2.014,2.014,0,0,0,.212.123l.018.01a1.873,1.873,0,0,0,1.9,0Zm1,.258a1.2,1.2,0,0,1-.547-.138l-.306-.16.2-.281a2.1,2.1,0,0,0,0-2.449l-.2-.281.3-.16a1.2,1.2,0,0,1,.666-.134h0a1.8,1.8,0,0,1-.029,3.6C202.3,274.794,202.267,274.8,202.236,274.8Zm.061-3.006a2.7,2.7,0,0,1,0,2.4h.005a1.2,1.2,0,1,0,.027-2.4ZM200.21,274.8c-.036,0-.072,0-.108-.005h0a1.8,1.8,0,0,1,.016-3.6,1.2,1.2,0,0,1,.653.135l.335.177-.249.286a1.834,1.834,0,0,0,0,2.4l.25.286-.337.177A1.2,1.2,0,0,1,200.21,274.8Zm-.089-3a1.2,1.2,0,0,0,0,2.4A2.446,2.446,0,0,1,200.121,271.791Zm1.108,2.539-.219-.234a1.693,1.693,0,0,1,0-2.31l.219-.234.219.235a1.7,1.7,0,0,1,0,2.309Zm0-1.786a1.088,1.088,0,0,0,0,.794A1.109,1.109,0,0,0,201.229,272.544Z" fill="#fff"/>
          </g>
        </g>
      </g>
    </g>
  </g>
</svg>
