<svg id="coupon" xmlns="http://www.w3.org/2000/svg" xmlns:xlink="http://www.w3.org/1999/xlink" width="15" height="11.232" viewBox="0 0 15 11.232">
    <path d="M0,10.032V7.371a.567.567,0,0,1,.558-.359A1.4,1.4,0,0,0,.574,4.222.581.581,0,0,1,0,3.862V1.2c.006-.007.016-.013.018-.022A1.412,1.412,0,0,1,1.548,0H12.325c.434,0,.869-.005,1.3,0a1.4,1.4,0,0,1,1.306.977c.023.073.044.147.066.22V3.862a.582.582,0,0,1-.573.36,1.4,1.4,0,0,0,0,2.789.582.582,0,0,1,.573.36v2.661c-.006.007-.016.013-.018.021a1.41,1.41,0,0,1-1.529,1.178h-11c-.356,0-.713,0-1.069,0a1.408,1.408,0,0,1-1.316-.964C.045,10.189.024,10.11,0,10.032m14.061-2.12a2.348,2.348,0,0,1,0-4.6c0-.036,0-.074,0-.113,0-.585,0-1.169,0-1.754A.471.471,0,0,0,13.55.938H1.454a.473.473,0,0,0-.516.519q0,.87,0,1.739c0,.043,0,.086.007.126a2.366,2.366,0,0,1,1.867,2.19A2.377,2.377,0,0,1,.938,7.921v.156q0,.819,0,1.637c0,.417.166.582.586.582h11.95c.049,0,.1,0,.146,0a.456.456,0,0,0,.439-.43c.008-.647,0-1.295,0-1.951" transform="translate(0 -0.001)" />
    <path d="M147.587,43.654l.878.328-2.811,7.482-.879-.326,2.811-7.483" transform="translate(-139.121 -41.949)" />
    <path d="M100.586,78.733a1.4,1.4,0,1,1,1.42-1.382,1.407,1.407,0,0,1-1.42,1.382m.017-.935a.46.46,0,0,0,.466-.461.467.467,0,0,0-.458-.472.477.477,0,0,0-.478.471.471.471,0,0,0,.469.462" transform="translate(-95.322 -72.963)" />
    <path d="M223.358,151.708a1.405,1.405,0,0,1,2.81.006,1.405,1.405,0,0,1-2.81-.006m.938,0a.468.468,0,0,0,.456.474.478.478,0,0,0,.479-.47.471.471,0,0,0-.468-.463.458.458,0,0,0-.467.459" transform="translate(-214.633 -144.439)" />
</svg>
