<svg xmlns="http://www.w3.org/2000/svg" width="20" height="20.822" viewBox="0 0 20 20.822">
  <g id="promotions" transform="translate(-10.111 -0.001)">
    <g id="组_292" data-name="组 292" transform="translate(10.111 0.001)">
      <g id="组_291" data-name="组 291" transform="translate(0 0)">
        <path id="路径_274" data-name="路径 274" d="M29.027,10.757a.634.634,0,0,1,0-.691l.76-1.169a1.993,1.993,0,0,0-.958-2.948l-1.3-.5a.634.634,0,0,1-.406-.559L27.049,3.5a1.993,1.993,0,0,0-2.508-1.822l-1.346.362a.634.634,0,0,1-.657-.214L21.661.741a1.993,1.993,0,0,0-3.1,0l-.877,1.084a.634.634,0,0,1-.657.214L15.68,1.677A1.993,1.993,0,0,0,13.172,3.5L13.1,4.891a.634.634,0,0,1-.406.559l-1.3.5A1.993,1.993,0,0,0,10.434,8.9l.76,1.169a.634.634,0,0,1,0,.691l-.76,1.169a1.993,1.993,0,0,0,.958,2.948l1.3.5a.634.634,0,0,1,.406.559l.072,1.392a1.993,1.993,0,0,0,2.508,1.822l1.346-.362a.635.635,0,0,1,.658.214l.877,1.084a1.993,1.993,0,0,0,3.1,0L22.537,19a.635.635,0,0,1,.657-.214l1.347.362a1.993,1.993,0,0,0,2.508-1.822l.072-1.392a.634.634,0,0,1,.406-.559l1.3-.5a1.993,1.993,0,0,0,.958-2.948Zm-.683,2.848-1.3.5a1.994,1.994,0,0,0-1.278,1.759l-.072,1.392a.634.634,0,0,1-.8.579l-1.347-.362a1.994,1.994,0,0,0-2.067.672L20.6,19.228a.634.634,0,0,1-.986,0l-.877-1.084a1.993,1.993,0,0,0-2.068-.672l-1.347.362a.634.634,0,0,1-.8-.579l-.072-1.392A1.994,1.994,0,0,0,13.18,14.1l-1.3-.5a.634.634,0,0,1-.3-.938l.76-1.169a1.994,1.994,0,0,0,0-2.174l-.76-1.169a.634.634,0,0,1,.3-.938l1.3-.5a1.994,1.994,0,0,0,1.278-1.759l.072-1.392a.634.634,0,0,1,.8-.579l1.347.362a1.994,1.994,0,0,0,2.067-.672L19.618,1.6a.634.634,0,0,1,.986,0L21.48,2.68a1.994,1.994,0,0,0,2.067.672l1.347-.362a.634.634,0,0,1,.8.579l.072,1.392A1.994,1.994,0,0,0,27.041,6.72l1.3.5a.634.634,0,0,1,.3.938l-.76,1.169a1.994,1.994,0,0,0,0,2.174l.76,1.169A.634.634,0,0,1,28.344,13.605Z" transform="translate(-10.111 -0.001)" fill="#fff"/>
      </g>
    </g>
    <g id="组_294" data-name="组 294" transform="translate(16.003 6.75)">
      <g id="组_293" data-name="组 293">
        <path id="路径_275" data-name="路径 275" d="M162.5,166.15a.68.68,0,0,0-.961,0l-6.343,6.343a.68.68,0,1,0,.961.961l6.343-6.343A.679.679,0,0,0,162.5,166.15Z" transform="translate(-154.993 -165.951)" fill="#fff"/>
      </g>
    </g>
    <g id="组_296" data-name="组 296" transform="translate(16.003 6.75)">
      <g id="组_295" data-name="组 295" transform="translate(0)">
        <path id="路径_276" data-name="路径 276" d="M156.352,165.95a1.359,1.359,0,1,0,1.359,1.359A1.361,1.361,0,0,0,156.352,165.95Z" transform="translate(-154.993 -165.95)" fill="#fff"/>
      </g>
    </g>
    <g id="组_298" data-name="组 298" transform="translate(20.987 11.733)">
      <g id="组_297" data-name="组 297" transform="translate(0)">
        <path id="路径_277" data-name="路径 277" d="M278.9,288.495a1.359,1.359,0,1,0,1.359,1.359A1.361,1.361,0,0,0,278.9,288.495Z" transform="translate(-277.538 -288.495)" fill="#fff"/>
      </g>
    </g>
  </g>
</svg>
