<svg xmlns="http://www.w3.org/2000/svg" width="18.3" height="12.818" viewBox="0 0 18.3 12.818">
  <g id="btn" transform="translate(-33.85 -140.591)">
    <g id="financial-management-white" transform="translate(34 137.441)">
      <g id="组_18" data-name="组 18" transform="translate(0 3.3)">
        <g id="组_17" data-name="组 17">
          <path id="路径_54" data-name="路径 54" d="M18,10.255c0-.491-.491-.9-1.473-1.145a11.752,11.752,0,0,0-2.7-.409V4.936c0-.082,0-.164-.082-.164-.082-.409-.573-.818-1.473-1.064A10.668,10.668,0,0,0,9.327,3.3a10.23,10.23,0,0,0-2.945.409c-.573.164-1.309.573-1.309,1.227V6.655A4.274,4.274,0,0,0,.082,10.091,2.265,2.265,0,0,0,0,10.827a4.278,4.278,0,0,0,4.255,4.255,4.067,4.067,0,0,0,2.7-.982,9.835,9.835,0,0,0,2.291.245c.164.982,2.373,1.473,4.336,1.473a10.23,10.23,0,0,0,2.945-.409c.655-.082,1.473-.491,1.473-1.145V10.255ZM13.091,6.9c0,.082-.164.327-.982.491a9.269,9.269,0,0,1-2.782.327,11.336,11.336,0,0,1-2.455-.245h0a3.363,3.363,0,0,0-1.064-.655V5.836a2.906,2.906,0,0,0,.736.327,10.21,10.21,0,0,0,2.864.327,10.23,10.23,0,0,0,2.945-.409,5.641,5.641,0,0,0,.818-.327v.9C13.091,6.818,13.091,6.818,13.091,6.9ZM6.709,4.364a9.045,9.045,0,0,1,2.7-.327,12.978,12.978,0,0,1,2.782.327c.818.245.982.491.982.491,0,.082-.164.327-.982.491a9.269,9.269,0,0,1-2.782.327,8.164,8.164,0,0,1-2.618-.327c-.818-.082-.982-.327-1.064-.409h0C5.727,4.855,5.973,4.609,6.709,4.364Zm0,9.164a3.611,3.611,0,0,1-5.073-.245,3.539,3.539,0,0,1,.245-5.073,3.727,3.727,0,0,1,2.373-.9,4.789,4.789,0,0,1,1.064.164,3.582,3.582,0,0,1,2.455,2.7,2.265,2.265,0,0,1,.082.736A3.529,3.529,0,0,1,6.709,13.527Zm.9.082a3.21,3.21,0,0,0,.655-1.145c.327,0,.655.082.982.082v1.309A9.816,9.816,0,0,0,7.609,13.609Zm.982-3.191h.655v1.309H8.509a2.783,2.783,0,0,0,.082-.818Q8.591,10.664,8.591,10.418Zm.9-.655H8.509a3.937,3.937,0,0,0-.655-1.309,10.965,10.965,0,0,0,1.636.082,10.23,10.23,0,0,0,2.945-.409,2.906,2.906,0,0,0,.736-.327v.982C11.618,8.782,10.064,9.109,9.491,9.764Zm.409.573h0c0-.082.327-.327,1.064-.573A11.912,11.912,0,0,1,13.5,9.436h.082a9.269,9.269,0,0,1,2.782.327,2.687,2.687,0,0,1,.982.491h0c0,.082-.164.327-.982.573a9.922,9.922,0,0,1-2.782.409,8.164,8.164,0,0,1-2.618-.327A1.948,1.948,0,0,1,9.9,10.336Zm6.464,4.5a9.045,9.045,0,0,1-2.7.327,8.384,8.384,0,0,1-2.7-.327c-.736-.245-.9-.491-.9-.491h0V13.282a3.988,3.988,0,0,0,.9.327,12.831,12.831,0,0,0,2.7.327,10.23,10.23,0,0,0,2.945-.409,2.906,2.906,0,0,0,.736-.327v1.064h0A1.918,1.918,0,0,1,16.364,14.836Zm.9-2.618h0V12.3c0,.082-.164.327-.982.491a9.269,9.269,0,0,1-2.782.327c-1.964,0-3.355-.409-3.6-.818V11.155a2.45,2.45,0,0,0,.818.327,10.21,10.21,0,0,0,2.864.327,15.415,15.415,0,0,0,2.945-.327,3.419,3.419,0,0,0,.818-.327v1.064Z" transform="translate(0 -3.3)" />
          <path id="Path_54_-_Outline" data-name="Path 54 - Outline" d="M13.582,15.968c-1.953,0-4.126-.462-4.454-1.473a10.014,10.014,0,0,1-2.133-.231,4.205,4.205,0,0,1-2.74.968,4.382,4.382,0,0,1-3.092-1.281A4.361,4.361,0,0,1-.15,10.827a2.421,2.421,0,0,1,.086-.773,4.4,4.4,0,0,1,4.37-3.618,4.522,4.522,0,0,1,.617.042V4.936c0-.713.732-1.176,1.418-1.372A10.4,10.4,0,0,1,9.327,3.15a10.858,10.858,0,0,1,2.989.415c.847.231,1.407.625,1.554,1.09a.312.312,0,0,1,.107.281V8.561a11.285,11.285,0,0,1,2.592.4c1.306.328,1.581.882,1.581,1.29v4.009c0,.707-.818,1.192-1.592,1.293A10.411,10.411,0,0,1,13.582,15.968ZM6.914,13.935l.077.019a9.681,9.681,0,0,0,2.255.241h.127l.021.125c.141.843,2.24,1.347,4.188,1.347a10.1,10.1,0,0,0,2.9-.4l.024-.005c.557-.07,1.341-.425,1.341-1V10.255c0-.426-.483-.781-1.359-1l-.011,0a11.633,11.633,0,0,0-2.664-.4l-.139-.011v-3.9s0-.009,0-.014h-.055L13.6,4.8c-.076-.382-.587-.736-1.365-.948a10.553,10.553,0,0,0-2.906-.4,10.1,10.1,0,0,0-2.9.4c-.556.159-1.2.537-1.2,1.084v1.9L5.046,6.8a4.224,4.224,0,0,0-.74-.066A4.1,4.1,0,0,0,.23,10.116l-.006.022a2.131,2.131,0,0,0-.074.689,4.109,4.109,0,0,0,4.1,4.1,3.893,3.893,0,0,0,2.6-.944Zm6.75,1.378a8.3,8.3,0,0,1-2.75-.336,1.9,1.9,0,0,1-.975-.549l-.025-.038V13.039l.217.109a3.839,3.839,0,0,0,.869.316,12.792,12.792,0,0,0,2.664.323,10.1,10.1,0,0,0,2.9-.4,2.75,2.75,0,0,0,.7-.308l.233-.155v1.406l-.044.044-.025.026a2.108,2.108,0,0,1-1.016.583A9.037,9.037,0,0,1,13.664,15.314Zm-3.45-1.025a2.157,2.157,0,0,0,.8.405l.005,0a8.142,8.142,0,0,0,2.647.318,8.755,8.755,0,0,0,2.653-.32A1.875,1.875,0,0,0,17.2,14.2V13.46a4,4,0,0,1-.539.21,10.407,10.407,0,0,1-2.993.417,13.1,13.1,0,0,1-2.733-.331,4.267,4.267,0,0,1-.717-.238ZM4.3,14.6a3.792,3.792,0,0,1-2.775-1.217,3.579,3.579,0,0,1-.992-2.678A3.89,3.89,0,0,1,1.779,8.1l0,0a3.862,3.862,0,0,1,2.472-.937,4.762,4.762,0,0,1,1.1.168l.011,0a3.706,3.706,0,0,1,2.553,2.8A2.418,2.418,0,0,1,8,10.909a3.692,3.692,0,0,1-1.2,2.73A3.773,3.773,0,0,1,4.3,14.6ZM1.983,8.32a3.406,3.406,0,0,0-.237,4.859,3.461,3.461,0,0,0,4.864.236,3.388,3.388,0,0,0,1.1-2.506,2.131,2.131,0,0,0-.074-.689l-.005-.02A3.408,3.408,0,0,0,5.276,7.617a4.53,4.53,0,0,0-1.022-.158A3.553,3.553,0,0,0,1.983,8.32ZM9.4,14.063,9.2,14a4.856,4.856,0,0,0-1.051-.177c-.182-.018-.371-.036-.559-.063l-.3-.042L7.5,13.5a3.068,3.068,0,0,0,.621-1.1l.038-.094h.1a4.108,4.108,0,0,1,.51.042,3.824,3.824,0,0,0,.472.04H9.4Zm-1.489-.568.269.027a6.347,6.347,0,0,1,.92.133v-.965c-.122-.007-.242-.023-.36-.037s-.251-.031-.372-.037A3.751,3.751,0,0,1,7.906,13.495Zm5.594-.226c-1.851,0-3.419-.375-3.729-.891l-.021-.036V10.874l.233.155a2.3,2.3,0,0,0,.771.307l.007,0a10,10,0,0,0,2.821.321,15.077,15.077,0,0,0,2.907-.323l.143-.046a2.524,2.524,0,0,0,.63-.261l.233-.155v1.494H17.4c-.043.139-.24.4-1.082.568A9.286,9.286,0,0,1,13.5,13.268Zm-3.45-1.015c.241.3,1.455.715,3.45.715a8.978,8.978,0,0,0,2.734-.32l.018,0c.7-.14.842-.327.861-.358v-.217H17.2v-.661a4.141,4.141,0,0,1-.474.17l-.147.047-.018,0a15.389,15.389,0,0,1-2.975.33,10.3,10.3,0,0,1-2.9-.333,3.153,3.153,0,0,1-.628-.213ZM9.4,11.877H8.3l.066-.2a2.691,2.691,0,0,0,.074-.771v-.641H9.4Zm-.7-.3h.4V10.568H8.741v.341A3.888,3.888,0,0,1,8.7,11.577Zm4.881-.191a8.094,8.094,0,0,1-2.666-.335,2.143,2.143,0,0,1-1.1-.586l-.022-.023L9.75,10.4v-.062c0-.3.893-.624,1.166-.715l.015,0A12.164,12.164,0,0,1,13.5,9.286h.082a9.252,9.252,0,0,1,2.829.335,2.811,2.811,0,0,1,1.04.527l.044.044v.062c0,.117-.106.422-1.089.716A10.107,10.107,0,0,1,13.582,11.386ZM10.1,10.327a2.227,2.227,0,0,0,.907.438l.01,0a7.918,7.918,0,0,0,2.566.318,9.8,9.8,0,0,0,2.739-.4,2.068,2.068,0,0,0,.831-.391,3.337,3.337,0,0,0-.835-.387,8.978,8.978,0,0,0-2.734-.32H13.5a11.861,11.861,0,0,0-2.5.322A3.277,3.277,0,0,0,10.1,10.327Zm-.541-.414H8.4l-.034-.1a3.773,3.773,0,0,0-.629-1.263l-.237-.3.375.054a10.864,10.864,0,0,0,1.615.08,10.1,10.1,0,0,0,2.9-.4,2.75,2.75,0,0,0,.7-.308l.233-.155V8.932h-.15c-1.673,0-3.074.365-3.569.931Zm-.942-.3h.808c.673-.7,2.261-.962,3.6-.981V8.06a4,4,0,0,1-.539.21,10.407,10.407,0,0,1-2.993.417c-.461,0-.872,0-1.316-.043A4.364,4.364,0,0,1,8.617,9.614Zm.711-1.745A11.539,11.539,0,0,1,6.84,7.619L6.8,7.61l-.031-.031a3.224,3.224,0,0,0-1.013-.621L5.659,6.92V5.556l.233.155a2.763,2.763,0,0,0,.7.31,10.008,10.008,0,0,0,2.816.32,10.1,10.1,0,0,0,2.9-.4,5.455,5.455,0,0,0,.794-.318l.217-.109V6.69l-.016.032c-.066.132-.066.132-.066.178,0,.1-.079.431-1.093.636A9.286,9.286,0,0,1,9.327,7.868ZM6.947,7.335a11.3,11.3,0,0,0,2.381.233,8.978,8.978,0,0,0,2.734-.32l.018,0c.7-.14.842-.327.861-.358a.493.493,0,0,1,.082-.266V5.991a6.465,6.465,0,0,1-.621.233,10.408,10.408,0,0,1-2.993.417A10.288,10.288,0,0,1,6.5,6.307,4.036,4.036,0,0,1,5.959,6.1v.622A3.481,3.481,0,0,1,6.947,7.335ZM9.409,5.823a8.153,8.153,0,0,1-2.652-.33c-.793-.083-1.012-.318-1.118-.431l-.018-.019L5.577,5V4.936c0-.218.416-.492,1.084-.715a9.036,9.036,0,0,1,2.747-.335,13.054,13.054,0,0,1,2.814.331l.011,0c.828.248,1.031.5,1.064.551l.025.038v.045c0,.1-.079.431-1.093.636A9.286,9.286,0,0,1,9.409,5.823Zm-3.49-.907a1.536,1.536,0,0,0,.887.28l.019,0,.018.007a7.918,7.918,0,0,0,2.566.318,8.978,8.978,0,0,0,2.734-.32l.018,0a1.719,1.719,0,0,0,.824-.315,2.589,2.589,0,0,0-.833-.374,12.751,12.751,0,0,0-2.744-.323,8.754,8.754,0,0,0-2.653.32A2.5,2.5,0,0,0,5.919,4.916Z" transform="translate(0 -3.3)" />
        </g>
      </g>
      <g id="组_20" data-name="组 20" transform="translate(2.91 7.964)">
        <g id="组_19" data-name="组 19" transform="translate(0 0)">
          <path id="路径_55" data-name="路径 55" d="M6.21,12.436A1.326,1.326,0,0,0,4.9,11.455a.645.645,0,0,1-.655-.655.7.7,0,0,1,.655-.655.7.7,0,0,1,.655.655.327.327,0,0,0,.655,0,1.4,1.4,0,0,0-.982-1.309V9.327C5.31,9.164,5.147,9,4.983,9a.374.374,0,0,0-.409.327v.164A1.326,1.326,0,0,0,4.9,12.109a.655.655,0,1,1,0,1.309.58.58,0,0,1-.573-.655A.352.352,0,0,0,4,12.436a.352.352,0,0,0-.327.327,1.4,1.4,0,0,0,.982,1.309V14.4c-.082.164.082.327.327.327A.352.352,0,0,0,5.31,14.4v-.327A1.265,1.265,0,0,0,6.21,12.436Z" transform="translate(-3.556 -9)" />
          <path id="Path_55_-_Outline" data-name="Path 55 - Outline" d="M4.983,14.877a.519.519,0,0,1-.448-.216.33.33,0,0,1-.03-.292v-.189a1.562,1.562,0,0,1-.982-1.417A.5.5,0,0,1,4,12.286a.5.5,0,0,1,.477.477c0,.118.03.5.423.5a.5.5,0,0,0,0-1.009,1.478,1.478,0,0,1-1.453-1.091l0-.009a1.489,1.489,0,0,1,.978-1.784V9.327a.524.524,0,0,1,.559-.477.435.435,0,0,1,.363.2.345.345,0,0,1,.032.306v.025A1.562,1.562,0,0,1,6.36,10.8a.477.477,0,1,1-.955,0,.554.554,0,0,0-.5-.5.554.554,0,0,0-.5.5.494.494,0,0,0,.5.5,1.478,1.478,0,0,1,1.452,1.085,1.373,1.373,0,0,1-.1,1.129,1.4,1.4,0,0,1-.8.669V14.4A.5.5,0,0,1,4.983,14.877ZM4,12.586a.2.2,0,0,0-.177.177A1.246,1.246,0,0,0,4.7,13.928l.109.031v.476l-.016.032a.032.032,0,0,0,0,.037.232.232,0,0,0,.193.073A.2.2,0,0,0,5.16,14.4v-.448l.117-.026a1.088,1.088,0,0,0,.715-.551,1.073,1.073,0,0,0,.077-.886l0-.011A1.17,1.17,0,0,0,4.9,11.6a.8.8,0,0,1-.8-.8.847.847,0,0,1,.8-.8.848.848,0,0,1,.8.8.177.177,0,1,0,.355,0,1.246,1.246,0,0,0-.873-1.165L5.078,9.6V9.292l.016-.032a.046.046,0,0,0,0-.051.136.136,0,0,0-.108-.06c-.169,0-.259.1-.259.177v.284l-.117.026a1.187,1.187,0,0,0-.869,1.453,1.17,1.17,0,0,0,1.164.869.8.8,0,1,1,0,1.609.73.73,0,0,1-.723-.8A.2.2,0,0,0,4,12.586Z" transform="translate(-3.556 -9)" />
        </g>
      </g>
    </g>
  </g>
</svg>
