<svg xmlns="http://www.w3.org/2000/svg" width="21.614" height="22.014" viewBox="0 0 21.614 22.014">
  <g id="组_234" data-name="组 234" transform="translate(-278.569 -186.143)">
    <g id="scash-app-white">
      <g id="路径_67" data-name="路径 67">
        <path id="路径_617" data-name="路径 617" d="M294.176,190.548a4.679,4.679,0,0,1,3.9,1.9h0a8.429,8.429,0,0,1,1.1,4.4,9.847,9.847,0,0,1-.7,3.8v-.3a9.7,9.7,0,0,0-2.7-4.9h0l-4.4-4.1a4.716,4.716,0,0,1,1.7-.7c.4,0,.7-.1,1.1-.1m0-1a4.837,4.837,0,0,0-1.2.1,6.9,6.9,0,0,0-3.1,1.5l5.1,5.1a9,9,0,0,1,2.5,4.3,6.516,6.516,0,0,1-.7,4.4,10.926,10.926,0,0,0,3.4-8,9.5,9.5,0,0,0-1.2-5A6,6,0,0,0,294.176,189.548Z" fill="#fff"/>
      </g>
      <g id="路径_68" data-name="路径 68">
        <path id="路径_618" data-name="路径 618" d="M289.276,187.148a9.953,9.953,0,0,1,3.8.8.6.6,0,0,0-.4.1,9.6,9.6,0,0,0-4.8,2.8h0l-4.2,4.2a5.106,5.106,0,0,1-.7-1.7c-.6-3.6,1.8-5,1.9-5h0a6.929,6.929,0,0,1,4.4-1.2m0-1a9.38,9.38,0,0,0-4.9,1.2,5.97,5.97,0,0,0-2.4,6.1,6.9,6.9,0,0,0,1.5,3.1l5.1-5.1a9.062,9.062,0,0,1,4.2-2.5,6.164,6.164,0,0,1,1.3-.1,5.683,5.683,0,0,1,3.1.8A10.429,10.429,0,0,0,289.276,186.148Z" fill="#fff"/>
      </g>
      <g id="组_30" data-name="组 30">
        <g id="路径_69" data-name="路径 69">
          <path id="路径_619" data-name="路径 619" d="M280.276,193.548v.3a9.7,9.7,0,0,0,2.7,4.9h0l4.4,4.2a4.734,4.734,0,0,1-1.7.7,3.739,3.739,0,0,1-1,.1,4.683,4.683,0,0,1-3.9-1.9h0a8.439,8.439,0,0,1-1.1-4.4,9.43,9.43,0,0,1,.6-3.9m1.7-4.3a11.1,11.1,0,0,0-3.4,8,9.5,9.5,0,0,0,1.2,5,5.5,5.5,0,0,0,4.8,2.5,4.88,4.88,0,0,0,1.2-.1,6.9,6.9,0,0,0,3.1-1.5l-5.1-5.1a9,9,0,0,1-2.5-4.3A8.17,8.17,0,0,1,281.976,189.248Z" fill="#fff"/>
        </g>
        <g id="路径_70" data-name="路径 70">
          <path id="路径_620" data-name="路径 620" d="M295.076,199.248a5.068,5.068,0,0,1,.7,1.7c.6,3.6-1.8,5-1.9,5h0a7.934,7.934,0,0,1-4.4,1.1,9.972,9.972,0,0,1-3.8-.8.6.6,0,0,0,.4-.1,9.156,9.156,0,0,0,4.8-2.8h0l4.2-4.1m.1-1.5-5.1,5.1a9.06,9.06,0,0,1-4.2,2.5,6.154,6.154,0,0,1-1.3.1,5.687,5.687,0,0,1-3.1-.8,10.789,10.789,0,0,0,7.9,3.5,8.928,8.928,0,0,0,4.9-1.2,5.789,5.789,0,0,0,2.4-6.1A6.007,6.007,0,0,0,295.176,197.748Z" fill="#fff"/>
        </g>
      </g>
    </g>
  </g>
</svg>
