<svg xmlns="http://www.w3.org/2000/svg" width="18" height="22.5" viewBox="0 0 18 22.5">
  <g id="组_225" data-name="组 225" transform="translate(-257.599 -233.631)">
    <g id="store-management-white">
      <g id="路径_42" data-name="路径 42">
        <path id="路径_629" data-name="路径 629" d="M266.649,253.081a1,1,0,0,0-1,1,1.074,1.074,0,0,0,1,1,1,1,0,0,0,0-2Zm0,1.3a.4.4,0,1,1,.4-.4h0A.429.429,0,0,1,266.649,254.381Z" fill="#fff"/>
        <path id="路径_630" data-name="路径 630" d="M266.649,255.331a1.334,1.334,0,0,1-1.25-1.233,1.25,1.25,0,1,1,1.25,1.233Zm0-2a.75.75,0,0,0-.75.75.826.826,0,0,0,.767.751.751.751,0,0,0-.017-1.5.651.651,0,0,1,.65.65.686.686,0,0,1-.633.65h-.017a.65.65,0,0,1,0-1.3Zm0,.5a.15.15,0,0,0-.008.3.18.18,0,0,0,.158-.166A.148.148,0,0,0,266.649,253.831Z" fill="#fff"/>
      </g>
      <g id="路径_43" data-name="路径 43">
        <path id="路径_631" data-name="路径 631" d="M265.649,235.981h2a.265.265,0,0,0,.3-.224.242.242,0,0,0,0-.076.265.265,0,0,0-.225-.3.315.315,0,0,0-.075,0h-2a.265.265,0,0,0-.3.225.236.236,0,0,0,0,.075.265.265,0,0,0,.225.3A.236.236,0,0,0,265.649,235.981Z" fill="#fff"/>
        <path id="路径_632" data-name="路径 632" d="M267.687,236.234a.6.6,0,0,1-.073,0l-1.95,0a.468.468,0,0,1-.124,0,.514.514,0,0,1-.442-.547.494.494,0,0,1,0-.115.513.513,0,0,1,.2-.336.52.52,0,0,1,.383-.1l1.964,0a.408.408,0,0,1,.114,0,.517.517,0,0,1,.438.548.556.556,0,0,1,0,.108A.518.518,0,0,1,267.687,236.234Zm-2.074-.519.036.016h2l0-.034.058-.051-2.053-.015.006.037-.058.049Z" fill="#fff"/>
      </g>
      <g id="路径_44" data-name="路径 44">
        <path id="路径_633" data-name="路径 633" d="M273.249,245.781a.265.265,0,0,0-.3.225.236.236,0,0,0,0,.075v6.1h-12.6v-6.1a.265.265,0,0,0-.225-.3.313.313,0,0,0-.075,0,.265.265,0,0,0-.3.225.236.236,0,0,0,0,.075v8a1.793,1.793,0,0,0,1.786,1.8h10.314a1.793,1.793,0,0,0,1.8-1.786v-8.014C273.549,245.881,273.449,245.781,273.249,245.781Zm-1.5,9.5h-10.2a1.11,1.11,0,0,1-1.1-1.1v-1.3h12.5v1.2A1.216,1.216,0,0,1,271.749,255.281Z" fill="#fff"/>
        <path id="路径_634" data-name="路径 634" d="M271.856,256.131H261.549a2.043,2.043,0,0,1-2.05-2.051v-8a.4.4,0,0,1,0-.109.514.514,0,0,1,.2-.341.741.741,0,0,1,.456-.1.517.517,0,0,1,.438.582l0,5.815h12.1v-5.85a.34.34,0,0,1,0-.114.514.514,0,0,1,.564-.436.677.677,0,0,1,.607.438l.026.112v8a2.042,2.042,0,0,1-2.043,2.05Zm-.007-.5h.006a1.541,1.541,0,0,0,1.544-1.537v-7.951c-.063-.112-.1-.112-.15-.112l-.036,0a.017.017,0,0,0-.011,0l0,6.4H260.1v-6.35l-.035.005-.051-.057L260,254.081a1.543,1.543,0,0,0,1.537,1.55Zm-.1-.1h-10.2a1.367,1.367,0,0,1-1.35-1.347v-1.553h13v1.45a1.459,1.459,0,0,1-1.447,1.45Zm-11.051-2.4v1.05a.863.863,0,0,0,.852.85h10.2a.961.961,0,0,0,.952-.953v-.947Z" fill="#fff"/>
      </g>
      <g id="路径_45" data-name="路径 45">
        <path id="路径_635" data-name="路径 635" d="M275.349,239.681h0c0-.1,0-.1-.1-.2l-1.7-2.4v-1.4a1.793,1.793,0,0,0-1.786-1.8H261.549a1.793,1.793,0,0,0-1.8,1.786v1.414l-1.8,2.4h0a.354.354,0,0,0-.1.2h0v1.4a2.046,2.046,0,0,0,1.8,2v3.9a.265.265,0,0,0,.225.3.236.236,0,0,0,.075,0,.265.265,0,0,0,.3-.224.242.242,0,0,0,0-.076v-4a2.192,2.192,0,0,0,1.4-.8,1.964,1.964,0,0,0,1.7.9,1.892,1.892,0,0,0,1.6-.9,1.964,1.964,0,0,0,1.7.9,2.225,2.225,0,0,0,1.7-.9,1.964,1.964,0,0,0,1.7.9,2.225,2.225,0,0,0,1.7-.9,2.731,2.731,0,0,0,1.2.9v3.5a.3.3,0,1,0,.6,0v-3.5a2.046,2.046,0,0,0,1.8-2Zm-3.5-.3-.2-.5a.4.4,0,0,0-.4-.2c-.1,0-.2.3-.2.4l.1.3h-2.5l-.3-1.8h2l.2.3a.316.316,0,1,0,.6-.2l-.1-.1h2l1.3,1.8Zm-6.2-1.8h2l.3,1.8h-2.6Zm-4.1-3.1h10.3a1.11,1.11,0,0,1,1.1,1.1v1.3h-12.6v-1.2A1.217,1.217,0,0,1,261.549,234.481Zm-1.3,3.1h2l-.1.1c-.1.2,0,.4.2.4h.1c.1,0,.2,0,.3-.2l.2-.4h2.1l-.4,1.9h-2.5l.1-.3c.1-.2,0-.4-.2-.4-.2-.1-.4,0-.4.2l-.3.5h-2.5Zm-.3,4.8a1.43,1.43,0,0,1-1.4-1.4v-1h2.7v1a1.347,1.347,0,0,1-1.292,1.4Zm3.3,0a1.43,1.43,0,0,1-1.4-1.4v-1h2.8v1a1.367,1.367,0,0,1-1.333,1.4C263.294,242.382,263.271,242.382,263.249,242.381Zm3.4,0a1.43,1.43,0,0,1-1.4-1.4v-1h2.7v1a1.287,1.287,0,0,1-1.171,1.4A1.112,1.112,0,0,1,266.649,242.381Zm3.4,0a1.43,1.43,0,0,1-1.4-1.4v-1h2.7v1a1.347,1.347,0,0,1-1.292,1.4Zm4.7-1.3a1.429,1.429,0,0,1-1.4,1.4,1.366,1.366,0,0,1-1.4-1.333c0-.022,0-.045,0-.067v-1h2.7v1Z" fill="#fff"/>
        <path id="路径_636" data-name="路径 636" d="M259.988,247.534h-.077a.583.583,0,0,1-.072,0,.517.517,0,0,1-.438-.583l0-3.654a2.307,2.307,0,0,1-1.8-2.207v-1.4a.613.613,0,0,1,.175-.378L259.5,237v-1.317a2.043,2.043,0,0,1,2.043-2.05h10.207a2.043,2.043,0,0,1,2.05,2.051V237l1.654,2.336a.383.383,0,0,1,.146.344v1.4a2.307,2.307,0,0,1-1.8,2.211v3.289a.55.55,0,1,1-1.1,0v-3.333a2.983,2.983,0,0,1-.95-.68,2.461,2.461,0,0,1-1.69.763,2.243,2.243,0,0,1-1.721-.751,2.461,2.461,0,0,1-1.679.751,2.287,2.287,0,0,1-1.7-.734,2.133,2.133,0,0,1-1.6.734,2.288,2.288,0,0,1-1.72-.76,2.42,2.42,0,0,1-1.132.617v3.793a.409.409,0,0,1,0,.11.512.512,0,0,1-.2.34A.5.5,0,0,1,259.988,247.534Zm-.054-.557.051.057.014-4.269.214-.031a1.931,1.931,0,0,0,1.241-.709l.217-.272.188.293a1.7,1.7,0,0,0,1.484.785,1.634,1.634,0,0,0,1.393-.781l.208-.338.215.334a1.738,1.738,0,0,0,1.484.785,1.964,1.964,0,0,0,1.505-.8l.215-.29.2.3a1.747,1.747,0,0,0,1.483.785,1.964,1.964,0,0,0,1.506-.8l.2-.268.2.266a2.48,2.48,0,0,0,1.091.818l.16.061v3.672c0,.056.1.056.1,0v-3.722l.22-.026a1.8,1.8,0,0,0,1.58-1.756v-1.392l-.026-.026-1.774-2.5v-1.48a1.542,1.542,0,0,0-1.537-1.55h-10.22A1.543,1.543,0,0,0,260,235.668v1.5l-1.85,2.466-.3.05h.25v1.4a1.8,1.8,0,0,0,1.58,1.752l.22.026v4.122Zm15.174-7.3h.241l-.25-.035A.129.129,0,0,0,275.108,239.681Zm-1.793,3.051a1.618,1.618,0,0,1-1.616-1.578c0-.024,0-.054,0-.084v-1.239h3.2v1H275l-.005.255a1.676,1.676,0,0,1-1.645,1.645Zm-1.116-2.4v.75a1.141,1.141,0,0,0,.346.842,1.069,1.069,0,0,0,.8.308,1.175,1.175,0,0,0,1.123-.9H274.4v-1Zm-5.534,2.3h-.021A1.676,1.676,0,0,1,265,240.987v-1.256h3.2v1.25a1.534,1.534,0,0,1-1.4,1.644C266.756,242.629,266.71,242.631,266.665,242.631Zm-.012-.5a.7.7,0,0,0,.1,0A1.039,1.039,0,0,0,267.7,241v-.772h-2.2v.75A1.176,1.176,0,0,0,266.653,242.131Zm3.39.5a1.676,1.676,0,0,1-1.644-1.644v-1.256h3.2v1.25a1.6,1.6,0,0,1-1.533,1.65Zm-1.144-2.4v.75a1.176,1.176,0,0,0,1.15,1.15,1.1,1.1,0,0,0,1.05-1.14v-.76Zm-5.655,2.4a1.676,1.676,0,0,1-1.645-1.645v-1.255h3.3v1.25a1.615,1.615,0,0,1-1.577,1.65Zm-1.145-2.4v.75a1.176,1.176,0,0,0,1.155,1.15h.057a1.117,1.117,0,0,0,1.088-1.143v-.757Zm-2.155,2.4a1.677,1.677,0,0,1-1.645-1.644v-1.256h3.2v1.25a1.6,1.6,0,0,1-1.532,1.65Zm-1.145-2.4v.75a1.176,1.176,0,0,0,1.15,1.15,1.1,1.1,0,0,0,1.05-1.14v-.76Zm16.039-.6H271.68l-.263-.657a.134.134,0,0,0-.072-.041.732.732,0,0,0-.041.122l.192.576h-3.059l-.383-2.3h5.123Zm-2.82-.5h1.842l-.939-1.3h-1.526a.647.647,0,0,1-.323.468l-.091.03a.65.65,0,0,1-.65-.325l-.116-.173h-1.571l.217,1.3H270.8l0-.05c0-.132.118-.65.45-.65a.635.635,0,0,1,.618.328Zm-.72-.2h0Zm-.74-1.484.2.3a.174.174,0,0,0,.109.088.144.144,0,0,0,.029-.051Zm-2.314,2.187h-3.19l.383-2.3h2.424Zm-2.6-.5h2.01l-.217-1.3h-1.576Zm-.792.5H261.8l.236-.714-.1-.012v.069l-.074.036-.372.621h-3.153l1.789-2.3h2.618l.05-.1h2.562Zm-2.352-.5h1.946l.295-1.4H263.1l-.131.262a.526.526,0,0,1-.524.338h-.1a.48.48,0,0,1-.415-.226.5.5,0,0,1-.074-.274h-1.489l-1.011,1.3h1.848l.2-.329a.477.477,0,0,1,.22-.336.542.542,0,0,1,.485-.031.475.475,0,0,1,.354.222A.538.538,0,0,1,262.5,239.131Zm-.115-1.332.064.032c.033,0,.051-.009.076-.061l.112-.224Zm10.814-.668H260.1v-1.45a1.459,1.459,0,0,1,1.447-1.45h10.3a1.368,1.368,0,0,1,1.35,1.348Zm-12.6-.5h12.1v-1.05a.864.864,0,0,0-.852-.85h-10.3a.96.96,0,0,0-.952.953Z" fill="#fff"/>
      </g>
      <g id="路径_46" data-name="路径 46">
        <path id="路径_637" data-name="路径 637" d="M267.649,248.581a.751.751,0,0,0,.7-.5l.5-1.3c.1-.1,0-.3-.1-.4a.52.52,0,0,0-.4-.2h-1.9a.3.3,0,1,0,0,.6h1.7l-.5,1.1h-1.6a.1.1,0,0,1-.1-.1h0l-.3-1.5c0-.2-.3-.4-.5-.4h-.4a.3.3,0,0,0,0,.6h.3l.3,1.5a.858.858,0,0,0,.7.6Z" fill="#fff"/>
        <path id="路径_638" data-name="路径 638" d="M267.65,248.831h-1.6a1.118,1.118,0,0,1-.939-.777l-.266-1.323h-.1a.55.55,0,0,1,0-1.1h.4c.3,0,.75.273.75.65l.015.073a.55.55,0,0,1,.535-.423h1.9a.767.767,0,0,1,.6.3.553.553,0,0,1,.122.68l-.485,1.263a1,1,0,0,1-.931.66Zm-2.9-2.7a.051.051,0,0,0-.05.05.05.05,0,0,0,.05.05h.505l.34,1.7a.6.6,0,0,0,.49.4l1.563,0a.505.505,0,0,0,.467-.333l.518-1.35a.306.306,0,0,0-.06-.09.3.3,0,0,0-.228-.127h-1.895a.05.05,0,0,0-.05.05.05.05,0,0,0,.05.05h2.088l-.727,1.6h-1.761a.35.35,0,0,1-.35-.35l-.3-1.45a.322.322,0,0,0-.255-.2Zm1.441,1.58,0,.021A.034.034,0,0,0,266.19,247.711Zm-.016-.08h1.314l.273-.6h-1.312a.55.55,0,0,1-.443-.224Z" fill="#fff"/>
      </g>
      <g id="路径_47" data-name="路径 47">
        <path id="路径_639" data-name="路径 639" d="M266.149,248.681h0c-.2,0-.4.1-.4.3a.265.265,0,0,0,.225.3.236.236,0,0,0,.075,0h.1a.265.265,0,0,0,.3-.224.242.242,0,0,0,0-.076A.319.319,0,0,0,266.149,248.681Z" fill="#fff"/>
        <path id="路径_640" data-name="路径 640" d="M266.013,249.534a.519.519,0,0,1-.074,0,.513.513,0,0,1-.34-.2.519.519,0,0,1-.1-.383.581.581,0,0,1,.648-.514h.014a.57.57,0,0,1,.536.534.441.441,0,0,1,0,.125.516.516,0,0,1-.584.438l-.064,0A.143.143,0,0,1,266.013,249.534Zm0-.56.033.057h.1c.046-.066.023-.1-.009-.1a.2.2,0,0,0-.14.045Z" fill="#fff"/>
      </g>
      <g id="路径_48" data-name="路径 48">
        <path id="路径_641" data-name="路径 641" d="M267.249,248.681h0c-.2,0-.4.1-.4.3a.265.265,0,0,0,.225.3.236.236,0,0,0,.075,0h.1a.3.3,0,1,0,0-.6Z" fill="#fff"/>
        <path id="路径_642" data-name="路径 642" d="M267.113,249.534a.5.5,0,0,1-.073,0,.514.514,0,0,1-.438-.584.58.58,0,0,1,.647-.514.55.55,0,1,1,0,1.1h-.1A.143.143,0,0,1,267.113,249.534Zm0-.56.033.057h.1a.05.05,0,0,0,.05-.05.051.051,0,0,0-.05-.05.2.2,0,0,0-.149.045Z" fill="#fff"/>
      </g>
      <g id="路径_49" data-name="路径 49">
        <path id="路径_643" data-name="路径 643" d="M270.749,247.381a4.1,4.1,0,1,0-4.1,4.1A4.119,4.119,0,0,0,270.749,247.381Zm-7.5,0a3.4,3.4,0,1,1,3.4,3.4h0A3.435,3.435,0,0,1,263.249,247.381Z" fill="#fff"/>
        <path id="路径_644" data-name="路径 644" d="M266.65,251.731A4.35,4.35,0,1,1,271,247.38v0A4.38,4.38,0,0,1,266.65,251.731Zm0-8.2a3.85,3.85,0,0,0,0,7.7,3.85,3.85,0,1,0,0-7.7Zm0,7.5a3.706,3.706,0,0,1-3.65-3.647v0a3.65,3.65,0,1,1,3.65,3.65Zm-3.15-3.651a3.2,3.2,0,0,0,3.152,3.151,3.15,3.15,0,1,0-3.152-3.151Z" fill="#fff"/>
      </g>
    </g>
  </g>
</svg>
