<svg xmlns="http://www.w3.org/2000/svg" width="22.302" height="18.301" viewBox="0 0 22.302 18.301">
  <g id="组_235" data-name="组 235" transform="translate(-154.047 -179.442)">
    <g id="system-settings">
      <g id="路径_75" data-name="路径 75">
        <path id="路径_645" data-name="路径 645" d="M165.2,194.692H174a.43.43,0,0,0,.4-.4v-5.1a.429.429,0,0,0-.4-.4h-8.8a.429.429,0,0,0-.4.4v5.1A.431.431,0,0,0,165.2,194.692Zm.4-5.2h8.1v4.4h-8.1Z"/>
        <path id="路径_646" data-name="路径 646" d="M165.2,194.842h-.01a.582.582,0,0,1-.54-.539v-5.11a.584.584,0,0,1,.54-.55H174a.582.582,0,0,1,.549.54v5.11a.584.584,0,0,1-.54.549Zm.006-.3H174a.28.28,0,0,0,.251-.26v-5.09a.279.279,0,0,0-.26-.25H165.2a.28.28,0,0,0-.251.26v5.09A.281.281,0,0,0,165.2,194.542Zm8.644-.5h-8.4v-4.7h8.4Zm-8.1-.3h7.8v-4.1h-7.8Z"/>
      </g>
      <g id="路径_76" data-name="路径 76">
        <path id="路径_647" data-name="路径 647" d="M175.8,195.392v-7a1.324,1.324,0,0,0-1.3-1.3h-1.3v-5.5a2.006,2.006,0,0,0-2-2h-15a2.006,2.006,0,0,0-2,2v9.9a2.006,2.006,0,0,0,2,2h5.5l-.2.5a3.1,3.1,0,0,1-1.4,1.8c-.1.1-.2.2-.2.3v1.1c.2.2.3.4.5.4H175a1.155,1.155,0,0,0,1.2-1.108c0-.031,0-.062,0-.092v-.6a.366.366,0,0,0-.328-.4A.433.433,0,0,0,175.8,195.392Zm-1.2-7.5a.575.575,0,0,1,.6.551.4.4,0,0,1,0,.049v7h-4.4a.366.366,0,0,0-.3.1l-.3.2h-1.5l-.3-.3a.366.366,0,0,0-.3-.1h-4v-7a.576.576,0,0,1,.551-.6.4.4,0,0,1,.049,0h9.9Zm-11.2,7.5a.429.429,0,0,0-.4.4v.6a.9.9,0,0,0,.1.5h-2.3v-.5a4.081,4.081,0,0,0,1.5-2.1l.2-.7h.8v1.8Zm0-2.6h-7.2a1.324,1.324,0,0,1-1.3-1.3v-.2h8.4v1.5Zm0-2.2h-8.5v-9a1.324,1.324,0,0,1,1.3-1.3h15a1.324,1.324,0,0,1,1.3,1.3v5.5h-7.9a1.324,1.324,0,0,0-1.3,1.3v2.2Zm12.1,5.8a.472.472,0,0,1-.442.5.557.557,0,0,1-.058,0H164.2a.472.472,0,0,1-.5-.442.557.557,0,0,1,0-.058v-.3h4.2l.3.3a.366.366,0,0,0,.3.1h1.8a.366.366,0,0,0,.3-.1l.3-.3h4.6Z"/>
        <path id="路径_648" data-name="路径 648" d="M175.044,197.743H160.4a.633.633,0,0,1-.47-.295c-.041-.047-.085-.1-.136-.149l-.044-.044v-1.162a.615.615,0,0,1,.243-.4l.031-.025a2.941,2.941,0,0,0,1.332-1.713l.123-.308H156.2a2.161,2.161,0,0,1-2.15-2.15v-9.9a2.161,2.161,0,0,1,2.15-2.15h15a2.161,2.161,0,0,1,2.15,2.149v5.351h1.15a1.469,1.469,0,0,1,1.45,1.448v6.863a.519.519,0,0,1,.4.554v.585c0,.029,0,.063,0,.1A1.307,1.307,0,0,1,175.044,197.743Zm-15-.612c.038.041.073.081.106.119.109.126.17.192.244.192H175a.978.978,0,0,0,.728-.266,1,1,0,0,0,.322-.7c0-.026,0-.054,0-.081v-.6a.225.225,0,0,0-.047-.173.213.213,0,0,0-.146-.077.147.147,0,0,0-.042,0l-.165.016v-7.166a1.169,1.169,0,0,0-1.152-1.15h-1.448v-5.65a1.86,1.86,0,0,0-1.85-1.85h-15a1.86,1.86,0,0,0-1.85,1.85v9.9a1.86,1.86,0,0,0,1.851,1.85h5.721l-.283.705a3.224,3.224,0,0,1-1.446,1.864c-.057.057-.143.146-.143.181Zm4.115-.088a.622.622,0,0,1-.615-.585.513.513,0,0,1,0-.078v-.438h4.412l.344.344a.226.226,0,0,0,.176.057H170.3a.241.241,0,0,0,.2-.058l.341-.342h4.812v.446a.622.622,0,0,1-.583.654h-10.9Zm-.315-.8v.2a.321.321,0,0,0,.108.221.311.311,0,0,0,.233.08h10.859a.322.322,0,0,0,.3-.341v-.159h-4.388l-.256.256a.539.539,0,0,1-.425.143H168.5a.507.507,0,0,1-.4-.142l-.258-.258Zm-.5.8h-2.7v-.726l.061-.045a3.955,3.955,0,0,0,1.445-2.023l.231-.806h1.063v1.95H163.4l.005.15a.281.281,0,0,0-.261.26v.59a.757.757,0,0,0,.083.43Zm-2.4-.3h1.931a1.034,1.034,0,0,1-.03-.364v-.586a.592.592,0,0,1,.3-.479v-1.571h-.537l-.169.591a4.258,4.258,0,0,1-1.494,2.135Zm9.3-.8h-1.608l-.344-.344a.227.227,0,0,0-.175-.057h-4.169v-7.15a.726.726,0,0,1,.695-.75h10.1v.11a.727.727,0,0,1,.6.685v7.205H170.8a.229.229,0,0,0-.2.058Zm-1.484-.3h1.393l.262-.175a.5.5,0,0,1,.4-.124h4.232v-6.895a.417.417,0,0,0-.443-.4l-.157.007v-.107h-9.793a.426.426,0,0,0-.407.444v6.856h3.85a.5.5,0,0,1,.4.142Zm-5.362-2.7h-7.2a1.469,1.469,0,0,1-1.45-1.448v-.352h8.7v1.65h-.05Zm-8.35-1.5v.05a1.169,1.169,0,0,0,1.153,1.15h6.947v-1.2Zm8.35-.7h-8.65v-9.15a1.469,1.469,0,0,1,1.448-1.45h15a1.469,1.469,0,0,1,1.45,1.447v5.653H164.6a1.169,1.169,0,0,0-1.15,1.153v2.2h-.05Zm-8.35-.3h8.1v-2.05a1.47,1.47,0,0,1,1.448-1.45h7.752v-5.35a1.168,1.168,0,0,0-1.152-1.15h-15a1.168,1.168,0,0,0-1.15,1.152Z"/>
      </g>
    </g>
  </g>
</svg>
