<svg xmlns="http://www.w3.org/2000/svg" width="19.416" height="22.35" viewBox="0 0 19.416 22.35">
  <g id="visa" transform="translate(-34.025 0.175)">
    <g id="组_321" data-name="组 321" transform="translate(34.2)">
      <path id="路径_301" data-name="路径 301" d="M53.261,1.362A1.366,1.366,0,0,0,51.895,0H39.021A.325.325,0,0,0,38.7.322a.325.325,0,0,0,.322.322H51.895a.723.723,0,0,1,.722.722v8.92a.394.394,0,0,1-.4.4H35.24a.4.4,0,0,1-.4-.4V1.362a.72.72,0,0,1,.722-.718h4.095a.325.325,0,0,0,.322-.322A.325.325,0,0,0,39.661,0H35.566A1.366,1.366,0,0,0,34.2,1.362v8.92a1.028,1.028,0,0,0,.288.718,1.04,1.04,0,0,0-.288.718v8.92A1.363,1.363,0,0,0,35.562,22H51.895a1.363,1.363,0,0,0,1.362-1.362V18.249a.322.322,0,0,0-.645,0v2.389a.723.723,0,0,1-.722.722H35.566a.723.723,0,0,1-.722-.722v-8.92a.4.4,0,0,1,.4-.4H52.225a.4.4,0,0,1,.4.4v7.189a.322.322,0,1,0,.645,0V11.718A1.028,1.028,0,0,0,52.977,11a1.04,1.04,0,0,0,.288-.718l0-8.92Z" transform="translate(-34.2)" fill="#fff" stroke="#fff" stroke-width="0.35"/>
      <path id="路径_302" data-name="路径 302" d="M97.83,311.284H99.2a1.526,1.526,0,0,0,1.525-1.525v-2.853a2.109,2.109,0,0,0-2.105-2.105h-.219a2.109,2.109,0,0,0-2.105,2.105v2.853a1.529,1.529,0,0,0,1.53,1.525Zm-.885-4.378a1.462,1.462,0,0,1,1.461-1.461h.219a1.462,1.462,0,0,1,1.461,1.461v.266a3.135,3.135,0,0,1-1.238-.387,1.644,1.644,0,0,1-.739-.709.328.328,0,0,0-.292-.206h-.009a.319.319,0,0,0-.3.193l-.142.322a1.7,1.7,0,0,1-.168.3,1.13,1.13,0,0,1-.258.279v-.06Zm3.029.9v.219a1.457,1.457,0,1,1-2.913,0v-.365a1.814,1.814,0,0,0,.675-.606h0c.047-.069.09-.138.133-.215a3.529,3.529,0,0,0,2.105.967Zm-3.029,1.611a2.1,2.1,0,0,0,3.145,0v.339a.887.887,0,0,1-.885.885H97.83a.887.887,0,0,1-.885-.885v-.339Z" transform="translate(-93.632 -291.703)" fill="#fff" stroke="#fff" stroke-width="0.35"/>
      <path id="路径_303" data-name="路径 303" d="M72.593,281a.594.594,0,0,0-.593.593v7.348a.594.594,0,0,0,.593.593H77.93a.594.594,0,0,0,.593-.593v-7.348A.594.594,0,0,0,77.93,281Zm5.281,7.885H72.645v-7.24h5.229Z" transform="translate(-70.376 -268.926)" fill="#fff" stroke="#fff" stroke-width="0.35"/>
      <path id="路径_304" data-name="路径 304" d="M260.808,296.7h-7.386a.322.322,0,0,0,0,.645h7.386a.322.322,0,0,0,0-.645Z" transform="translate(-243.694 -283.951)" fill="#fff" stroke="#fff" stroke-width="0.35"/>
      <path id="路径_305" data-name="路径 305" d="M253.422,335.344h2.093a.322.322,0,0,0,0-.645h-2.093a.325.325,0,0,0-.322.322A.322.322,0,0,0,253.422,335.344Z" transform="translate(-243.694 -320.318)" fill="#fff" stroke="#fff" stroke-width="0.35"/>
      <path id="路径_306" data-name="路径 306" d="M378.715,334.7h-2.093a.322.322,0,0,0,0,.645h2.093a.322.322,0,0,0,0-.645Z" transform="translate(-361.6 -320.318)" fill="#fff" stroke="#fff" stroke-width="0.35"/>
      <path id="路径_307" data-name="路径 307" d="M253.422,373.344h2.093a.322.322,0,0,0,0-.645h-2.093a.322.322,0,0,0,0,.645Z" transform="translate(-243.694 -356.685)" fill="#fff" stroke="#fff" stroke-width="0.35"/>
      <path id="路径_308" data-name="路径 308" d="M379.037,373.122a.325.325,0,0,0-.322-.322h-2.093a.322.322,0,0,0,0,.645h2.093A.328.328,0,0,0,379.037,373.122Z" transform="translate(-361.6 -356.781)" fill="#fff" stroke="#fff" stroke-width="0.35"/>
      <path id="路径_309" data-name="路径 309" d="M258.716,410.8h-5.294a.322.322,0,1,0,0,.645h5.294a.322.322,0,0,0,0-.645Z" transform="translate(-243.694 -393.149)" fill="#fff" stroke="#fff" stroke-width="0.35"/>
      <path id="路径_310" data-name="路径 310" d="M258.716,448.8h-5.294a.322.322,0,0,0,0,.645h5.294a.322.322,0,1,0,0-.645Z" transform="translate(-243.694 -429.516)" fill="#fff" stroke="#fff" stroke-width="0.35"/>
      <path id="路径_311" data-name="路径 311" d="M337.926,82.9a.319.319,0,0,0,.3-.206l.292-.765h1.942l.288.765a.324.324,0,0,0,.606-.228l-1.474-3.9s0,0,0-.009a.412.412,0,0,0-.382-.254h0a.41.41,0,0,0-.383.258s0,0,0,.009l-1.487,3.9a.324.324,0,0,0,.185.417c.043,0,.082.013.121.013Zm1.568-3.532.722,1.917h-1.452Z" transform="translate(-324.563 -74.935)" fill="#fff" stroke="#fff" stroke-width="0.35"/>
      <path id="路径_312" data-name="路径 312" d="M196.845,82.48V78.522a.322.322,0,0,0-.645,0V82.48a.322.322,0,1,0,.645,0Z" transform="translate(-189.239 -74.84)" fill="#fff" stroke="#fff" stroke-width="0.35"/>
      <path id="路径_313" data-name="路径 313" d="M242.13,82.3a1.545,1.545,0,0,1-1.139-.481.322.322,0,0,0-.477.434,2.2,2.2,0,0,0,1.616.692,1.478,1.478,0,0,0,1.5-1.121,1.361,1.361,0,0,0-1.04-1.448c-.516-.189-.993-.4-1.1-.447a.438.438,0,0,1-.18-.43.568.568,0,0,1,.434-.456,1.477,1.477,0,0,1,1.246.284.322.322,0,0,0,.413-.494,2.127,2.127,0,0,0-1.848-.408,1.215,1.215,0,0,0-.885.984,1.083,1.083,0,0,0,.486,1.074l.043.026c.021.009.563.249,1.169.473.451.168.683.434.627.73a.82.82,0,0,1-.855.589Z" transform="translate(-231.568 -74.985)" fill="#fff" stroke="#fff" stroke-width="0.35"/>
      <path id="路径_314" data-name="路径 314" d="M86.882,78.231a.32.32,0,0,0-.2.408l1.354,3.9a.417.417,0,0,0,.387.275h0a.406.406,0,0,0,.387-.279l1.293-3.889a.323.323,0,1,0-.614-.2L88.42,81.677l-1.126-3.248a.332.332,0,0,0-.413-.2Z" transform="translate(-84.411 -74.854)" fill="#fff" stroke="#fff" stroke-width="0.35"/>
    </g>
  </g>
</svg>
