<svg xmlns="http://www.w3.org/2000/svg" width="17.56" height="14.86" viewBox="0 0 17.56 14.86">
  <g id="btn" transform="translate(-34.22 -139.57)">
    <g id="组_101" data-name="组 101" transform="translate(-10.226 46.124)">
      <path id="路径_17" data-name="路径 17" d="M364.6,135.886a8.273,8.273,0,0,1-.9,3.76.836.836,0,0,0,.3,1.089h0a.834.834,0,0,0,1.187-.326,10,10,0,0,0,0-9.039.834.834,0,1,0-1.484.762,8.272,8.272,0,0,1,.892,3.754" transform="translate(-304.414 -35.01)"  stroke="#fafafa" stroke-width="0.3"/>
      <path id="路径_18" data-name="路径 18" d="M320.651,161.816a5.593,5.593,0,0,1-.511,2.347.835.835,0,1,0,1.518.7,7.321,7.321,0,0,0,0-6.08.835.835,0,1,0-1.519.7,5.592,5.592,0,0,1,.508,2.341" transform="translate(-263.165 -60.94)"  stroke="#fafafa" stroke-width="0.3"/>
      <path id="路径_19" data-name="路径 19" d="M94.478,100.086A5.61,5.61,0,1,1,97.9,90.032a.833.833,0,1,0,1.02-1.316,7.277,7.277,0,1,0,.012,11.517A.822.822,0,0,0,99.012,99l-.018-.018a.823.823,0,0,0-1.084-.069,5.587,5.587,0,0,1-3.432,1.171" transform="translate(-42.602 6.399)"  stroke="#fafafa" stroke-width="0.3"/>
      <path id="路径_20" data-name="路径 20" d="M146.842,141.816a.841.841,0,0,0-.594-.246h0l-2.923,0h0a.841.841,0,0,0,0,1.682h.005l1.954,0a2.923,2.923,0,1,1-1.245-3.32.841.841,0,0,0,.9-1.421,4.636,4.636,0,0,0-3.455-.6,4.543,4.543,0,0,0-3.51,3.536,4.608,4.608,0,1,0,9.114.967.841.841,0,0,0-.247-.595" transform="translate(-90.602 -41.535)"  stroke="#fafafa" stroke-width="0.3"/>
    </g>
  </g>
</svg>
