<svg xmlns="http://www.w3.org/2000/svg" xmlns:xlink="http://www.w3.org/1999/xlink" width="17.633" height="16.116" viewBox="0 0 17.633 16.116">
  <defs>
    <clipPath id="clip-path">
      <rect id="矩形_104" data-name="矩形 104" width="17.633" height="16.116" />
    </clipPath>
  </defs>
  <g id="btn" transform="translate(-34.184 -138.942)">
    <g id="icon" transform="translate(0 -1)">
      <g id="组_100" data-name="组 100" transform="translate(34.184 139.942)">
        <g id="组_99" data-name="组 99" clip-path="url(#clip-path)">
          <path id="路径_246" data-name="路径 246" d="M0,12.542a3.444,3.444,0,0,1,.1-.468,5.677,5.677,0,0,1,.364-.87c1.823-3.179,3.667-6.346,5.48-9.53A3.3,3.3,0,0,1,11.2,1.01a3.84,3.84,0,0,1,.5.695c1.826,3.157,3.633,6.325,5.469,9.476a3.277,3.277,0,0,1-1.588,4.712,3.211,3.211,0,0,1-3.9-1.291c-.849-1.413-1.654-2.852-2.479-4.279l-.378-.653c-.042.068-.075.117-.1.168Q7.4,12.123,6.088,14.408A3.236,3.236,0,0,1,.034,13.327,1.063,1.063,0,0,0,0,13.2v-.656m14.419,2.434c.1-.01.223-.013.341-.035A2.1,2.1,0,0,0,16.21,11.8q-2.392-4.16-4.8-8.309a14.7,14.7,0,0,0-1.057-1.632,1.853,1.853,0,0,0-1.876-.686A2.105,2.105,0,0,0,7.048,4.317q2.776,4.8,5.544,9.613a2.059,2.059,0,0,0,1.827,1.048M5.744,4.311,2.657,9.668a3.252,3.252,0,0,1,3.631,2.1c.025-.035.049-.065.069-.1.582-1.01,1.162-2.021,1.749-3.028a.212.212,0,0,0-.017-.247Q6.913,6.347,5.744,4.311M3.231,14.971a2.1,2.1,0,1,0-2.094-2.095,2.1,2.1,0,0,0,2.094,2.095" transform="translate(0 0)" />
        </g>
      </g>
    </g>
  </g>
</svg>
