<svg xmlns="http://www.w3.org/2000/svg" width="16.637" height="15.956" viewBox="0 0 16.637 15.956">
  <g id="btn" transform="translate(-34.682 -138.565)">
    <g id="access-privileges-white" transform="translate(34.682 137.765)">
      <path id="路径_71" data-name="路径 71" d="M7.079,7.757A3.519,3.519,0,0,1,3.6,4.279,3.519,3.519,0,0,1,7.079.8a3.519,3.519,0,0,1,3.479,3.479A3.469,3.469,0,0,1,7.079,7.757Zm0-5.9a2.437,2.437,0,0,0-2.42,2.42,2.42,2.42,0,1,0,4.84,0A2.344,2.344,0,0,0,7.079,1.859Z" transform="translate(-0.878)" />
      <path id="路径_72" data-name="路径 72" d="M18.791,20.34H15.01a1.194,1.194,0,0,1-1.21-1.21V16.71a1.194,1.194,0,0,1,1.21-1.21h3.781A1.194,1.194,0,0,1,20,16.71v2.42A1.194,1.194,0,0,1,18.791,20.34ZM15.01,16.483a.163.163,0,0,0-.151.151v2.42a.163.163,0,0,0,.151.151h3.781a.163.163,0,0,0,.151-.151v-2.42a.163.163,0,0,0-.151-.151Z" transform="translate(-3.364 -3.584)" />
      <path id="路径_73" data-name="路径 73" d="M18.549,15.557h-2.42a.517.517,0,0,1-.529-.529V13.439a1.739,1.739,0,1,1,3.479,0v1.588A.517.517,0,0,1,18.549,15.557Zm-1.891-.983H18.02V13.515a.681.681,0,0,0-1.361,0Z" transform="translate(-3.803 -2.657)" />
      <path id="路径_74" data-name="路径 74" d="M8.7,18H.529A.506.506,0,0,1,0,17.547v-2.42A3.357,3.357,0,0,1,3.327,11.8h6.05a3.238,3.238,0,0,1,1.664.454.493.493,0,0,1-.529.832,1.969,1.969,0,0,0-1.134-.3H3.327a2.275,2.275,0,0,0-2.269,2.269v1.891H8.7a.517.517,0,0,1,.529.529A.568.568,0,0,1,8.7,18Z" transform="translate(0 -2.682)" />
    </g>
  </g>
</svg>
