<svg xmlns="http://www.w3.org/2000/svg" width="17.701" height="17.396" viewBox="0 0 17.701 17.396">
  <g id="btn" transform="translate(-34 -138)">
    <g id="Shopping_Bag-Hands-Bag-Purchase-Buy" transform="translate(33.483 138.15)">
      <path id="路径_50" data-name="路径 50" d="M13.917,2.827h-1.1V1.963a1.963,1.963,0,1,0-3.926,0v.864H7.714a.338.338,0,0,0-.314.314v6.2a.871.871,0,0,0,.864.864h3.691v-.55H8.264a.338.338,0,0,1-.314-.314V9.03h3.926V8.48H7.95v-5.1h.864V4.24h.628V3.376h2.827V4.24h.55V3.376h.864V4.24h.55V3.062C14.231,2.905,14.074,2.827,13.917,2.827Zm-1.649,0H9.442V1.963a1.413,1.413,0,0,1,2.827,0Z" transform="translate(-1.431 0.007)" />
      <path id="Path_50_-_Outline" data-name="Path 50 - Outline" d="M10.861-.15a2.1,2.1,0,0,1,2.12,2.12v.707h.943a.422.422,0,0,1,.471.392V4.4h-.863V3.539h-.551V4.4h-.863V3.539H9.6V4.4H8.663V3.539H8.113V8.33h3.926v.863H8.113v.158a.184.184,0,0,0,.158.158h3.847v.863H8.27a1.034,1.034,0,0,1-1.02-1.02v-6.2a.5.5,0,0,1,.471-.471H8.742V1.97A2.1,2.1,0,0,1,10.861-.15Zm3.22,4.24V3.069c0-.055-.092-.079-.158-.079H12.668V1.97a1.807,1.807,0,1,0-3.613,0V2.99H7.721a.184.184,0,0,0-.158.158v6.2a.717.717,0,0,0,.707.707H11.8V9.821H8.27A.5.5,0,0,1,7.8,9.351V8.88h3.926V8.643H7.8V3.226H8.976V4.09h.315V3.226h3.14V4.09h.237V3.226h1.177V4.09ZM10.861.4a1.572,1.572,0,0,1,1.57,1.57V2.99H9.292V1.97A1.572,1.572,0,0,1,10.861.4Zm1.257,2.277V1.97a1.257,1.257,0,0,0-2.514,0v.707Z" transform="translate(-1.438)" />
      <path id="路径_51" data-name="路径 51" d="M19.318,6.1h-5.1a.338.338,0,0,0-.314.314v4.24a.871.871,0,0,0,.864.864H18.69a.871.871,0,0,0,.864-.864V6.414C19.554,6.257,19.475,6.1,19.318,6.1ZM19,10.654a.338.338,0,0,1-.314.314H14.764a.338.338,0,0,1-.314-.314V10.34H19v.314Zm0-.864H14.45V6.65H19Z" transform="translate(-2.827 -1.304)" />
      <path id="Path_51_-_Outline" data-name="Path 51 - Outline" d="M14.221,5.95h5.1a.422.422,0,0,1,.392.471v4.24a1.034,1.034,0,0,1-1.02,1.02H14.77a1.034,1.034,0,0,1-1.02-1.02V6.421A.5.5,0,0,1,14.221,5.95ZM18.7,11.368a.717.717,0,0,0,.707-.707V6.421c0-.065-.025-.158-.079-.158h-5.1a.184.184,0,0,0-.158.158v4.24a.717.717,0,0,0,.707.707ZM14.3,6.5h4.867V9.954H14.3Zm4.554.313H14.613V9.641h4.241ZM14.3,10.19h4.867v.471a.5.5,0,0,1-.471.471H14.77a.5.5,0,0,1-.471-.471Zm4.554.313H14.613v.158a.184.184,0,0,0,.158.158H18.7a.184.184,0,0,0,.158-.158h0Z" transform="translate(-2.834 -1.31)" />
      <path id="路径_52" data-name="路径 52" d="M17.113,9.542a1.408,1.408,0,0,0,1.413-1.413V7.5h-.55v.55a.864.864,0,0,1-1.727,0V7.5H15.7v.55A1.427,1.427,0,0,0,17.113,9.542Z" transform="translate(-3.214 -1.604)" />
      <path id="Path_52_-_Outline" data-name="Path 52 - Outline" d="M17.12,9.7a1.575,1.575,0,0,1-1.57-1.648V7.35h.863v.706a.707.707,0,1,0,1.414,0V7.35h.863v.785A1.572,1.572,0,0,1,17.12,9.7ZM15.863,7.663v.393a1.258,1.258,0,1,0,2.514.079V7.663H18.14v.393a1.02,1.02,0,1,1-2.041,0V7.663Z" transform="translate(-3.22 -1.611)" />
      <path id="路径_53" data-name="路径 53" d="M17.975,14.977a1.128,1.128,0,0,0-1.492-.55l-2.513.942a1.2,1.2,0,0,0-.864-.864L9.73,13.878a4.209,4.209,0,0,0-2.2.157l-.471.157a8.582,8.582,0,0,0-1.178.628L5.8,14.663a.287.287,0,0,0-.393-.157h0L2.192,15.684a.287.287,0,0,0-.157.393h0L.7,16.547l.157.55,1.335-.471L3.37,19.767l.55-.157L2.663,16.155l2.67-.942,1.413,4-.707.236L6.2,20l.942-.314A.287.287,0,0,0,7.3,19.3h0l-.079-.236L8,18.667a2.329,2.329,0,0,1,1.256-.157l1.335.079a3.149,3.149,0,0,0,1.492-.236l5.182-1.885a1.109,1.109,0,0,0,.707-1.492Zm-.55.707a.613.613,0,0,1-.314.314l-5.1,1.885a2.329,2.329,0,0,1-1.256.157l-1.335-.079a3.149,3.149,0,0,0-1.492.236l-.707.157-1.1-2.984a5.006,5.006,0,0,1,1.1-.628l.471-.157a3.12,3.12,0,0,1,1.885-.157l3.376.628c.314.079.55.314.471.628s-.314.55-.628.471h0l-3.062-.55-.079.55,3.062.55a1.127,1.127,0,0,0,1.256-.785L16.718,14.9a.643.643,0,0,1,.785.314A1,1,0,0,1,17.425,15.684Z" transform="translate(0.008 -2.957)" />
      <path id="Path_53_-_Outline" data-name="Path 53 - Outline" d="M8.964,13.646a3.733,3.733,0,0,1,.8.085l3.374.628a1.38,1.38,0,0,1,.937.812l2.356-.884a1.537,1.537,0,0,1,.541-.1,1.223,1.223,0,0,1,1.15.735l.013.034a1.347,1.347,0,0,1-.072,1.072,1.164,1.164,0,0,1-.746.6L12.155,18.5a3.285,3.285,0,0,1-1.554.248h-.009L9.236,18.67a2.185,2.185,0,0,0-1.162.147l-.658.329.032.1a.418.418,0,0,1,.008.346.5.5,0,0,1-.241.245l-.021.008-1.1.366-.243-.851.7-.233L5.245,15.419l-2.373.838,1.26,3.464-.85.243L2.107,16.831.76,17.307l-.243-.851,1.339-.473a.457.457,0,0,1,.274-.432l.016-.007,3.212-1.175a.43.43,0,0,1,.186-.043.461.461,0,0,1,.408.274l0,.006a7.726,7.726,0,0,1,1.055-.552l.009,0,.471-.157A4.727,4.727,0,0,1,8.964,13.646Zm4.9,1.941-.036-.18a1.053,1.053,0,0,0-.741-.741L9.7,14.037a3.417,3.417,0,0,0-.74-.078,4.411,4.411,0,0,0-1.375.231l-.467.156a8.559,8.559,0,0,0-1.151.615l-.145.087-.154-.308a.157.157,0,0,0-.128-.1.123.123,0,0,0-.055.014l-.016.007-3.21,1.174c-.039.021-.129.082-.08.179l.079.159L.9,16.653.97,16.9l1.323-.467,1.181,3.149.249-.071L2.47,16.066l2.966-1.047,1.518,4.3-.716.239.071.248.775-.258a.185.185,0,0,0,.084-.084.107.107,0,0,0-.006-.094l-.008-.02-.121-.364.919-.459a2.507,2.507,0,0,1,1.334-.167l1.32.078a2.985,2.985,0,0,0,1.417-.219l.017-.007,5.2-1.889a.854.854,0,0,0,.553-.441,1.035,1.035,0,0,0,.047-.84l-.011-.023h0a.9.9,0,0,0-.85-.517,1.225,1.225,0,0,0-.431.081ZM8.913,14.2a2.911,2.911,0,0,1,.7.085L13,14.91a.873.873,0,0,1,.466.278.6.6,0,0,1,.119.54.715.715,0,0,1-.66.6.649.649,0,0,1-.152-.019l-2.9-.52-.034.24,2.911.522a1.035,1.035,0,0,0,.143.01.956.956,0,0,0,.938-.684l.022-.076,2.839-1.053a1.068,1.068,0,0,1,.258-.033.752.752,0,0,1,.7.429l.017.033v.037a1.141,1.141,0,0,1-.1.541.77.77,0,0,1-.384.384l-.016.007-5.1,1.885a2.506,2.506,0,0,1-1.33.166l-1.32-.078A2.985,2.985,0,0,0,8,18.343l-.017.009-.859.191L5.939,15.321l.093-.07A5.14,5.14,0,0,1,7.167,14.6l.009,0,.468-.156A3.584,3.584,0,0,1,8.913,14.2Zm4.011,1.019-3.381-.629a2.6,2.6,0,0,0-.63-.077,3.28,3.28,0,0,0-1.162.229l-.005,0-.467.156a4.768,4.768,0,0,0-.966.538l1.011,2.745.555-.123a3.3,3.3,0,0,1,1.544-.243h.009l1.356.081a2.189,2.189,0,0,0,1.168-.149l5.1-1.883a.458.458,0,0,0,.237-.24.779.779,0,0,0,.062-.362.44.44,0,0,0-.408-.225.75.75,0,0,0-.174.022l-2.669.991a1.269,1.269,0,0,1-1.214.833,1.347,1.347,0,0,1-.19-.014h-.006l-3.211-.576.123-.86,3.232.581a.338.338,0,0,0,.082.011c.2,0,.314-.2.357-.368a.289.289,0,0,0-.058-.265A.558.558,0,0,0,12.924,15.215Z" transform="translate(0 -2.963)" />
    </g>
  </g>
</svg>
